<svg xmlns="http://www.w3.org/2000/svg" viewBox="0 0 1156.96 1229.62"><defs><style>.cls-1{fill:#fff;opacity:0.05;}.cls-2{fill:#cfae74;}.cls-3{fill:#8b672d;}.cls-3,.cls-8{opacity:0.4;}.cls-4{fill:#946c3a;}.cls-5{fill:#765635;}.cls-6{fill:#936f34;}.cls-7{opacity:0.59;}.cls-8{fill:#1d1d1b;}.cls-9{fill:#55a7dd;}.cls-10{fill:#4b91be;}.cls-11{fill:#0b62ac;}</style></defs><title>Asset 43</title><g id="Layer_2" data-name="Layer 2"><g id="Livello_1" data-name="Livello 1"><path class="cls-1" d="M31.25,539.95C131,244.49,453.64,49.24,759.83,135.67s467.46,414.11,367.63,709.59S689.36,1291.88,383,1205.43-68.6,835.45,31.25,539.95Z"/><path class="cls-2" d="M288.6,1127.5C38.38,977-48.31,657.18,127.55,413.09S664.12,102.36,914.34,252.9s290.17,474.26,114.31,718.36S538.81,1278,288.6,1127.5Z"/><path class="cls-2" d="M288.6,1127.5C38.38,977-48.31,657.18,127.55,413.09S664.12,102.36,914.34,252.9s290.17,474.26,114.31,718.36S538.81,1278,288.6,1127.5Z"/><path class="cls-3" d="M288.6,1127.5C38.38,977-48.31,657.18,127.55,413.09S664.12,102.36,914.34,252.9s290.17,474.26,114.31,718.36S538.81,1278,288.6,1127.5Z"/><path class="cls-4" d="M473,1074.66c-9-5.44-11.54-16.55-5.59-24.8s18.11-10.55,27.14-5.11,11.54,16.55,5.59,24.81S482.06,1080.1,473,1074.66Z"/><path class="cls-2" d="M127,412.14C302.91,168,663.66,101.45,913.93,252s290.27,474.33,114.4,718.43C1129.71,756.75,742.81,141.39,127,412.14Z"/><path class="cls-4" d="M111.36,663.47c-.33-16.34,13-29.83,29.9-30.12s30.77,12.74,31.11,29.07-5.6,31.27-22.44,31.55S111.7,679.81,111.36,663.47Z"/><path class="cls-4" d="M1001.86,782.66c-9-5.44-10.8-17.57-3.93-27.1s19.76-12.85,28.8-7.41,10.79,17.58,3.93,27.1S1010.89,788.1,1001.86,782.66Z"/><path class="cls-4" d="M832.78,965.57c-13.89-8.36-10.72-35.18,7.1-59.9s43.52-38,57.41-29.63,19.88,25.09,2.07,49.81S846.67,973.93,832.78,965.57Z"/><path class="cls-4" d="M832.78,965.57c13.89,8.36,48.76-15,66.58-39.72s11.83-41.45-2.07-49.81a18.7,18.7,0,0,0-9.79-2.46c10,15.58,4.36,37.39-14.19,50.68-14.44,10.35-32.54,12.53-46.55,7.08C822,946.79,823.71,960.12,832.78,965.57Z"/><path class="cls-5" d="M870.52,919.78c18.55-13.3,21.3-37.47,17-46.2-14.25,0-33.42,12.39-47.62,32.09a90.26,90.26,0,0,0-13.12,25.67C840.07,937,856.08,930.12,870.52,919.78Z"/><path class="cls-6" d="M922.06,425.22c8.14-10.51,32.35-2.48,54.07,17.94s32.73,45.49,24.59,56-23.56,12.48-45.29-7.94S913.91,435.73,922.06,425.22Z"/><path class="cls-4" d="M957.54,461.25c16.25,15.28,26.5,33.16,27.22,45.59a18.88,18.88,0,0,0,16-7.69c8.14-10.51-2.86-35.58-24.59-56s-45.93-28.45-54.07-17.94c-2.35,3-2.32,8.16-.64,14.35C932,442,945.16,449.61,957.54,461.25Z"/><path class="cls-5" d="M955.44,491.21c11.64,10.94,21.45,15.41,29.32,15.62-.72-12.43-11-30.32-27.22-45.59C945.16,449.61,932,442,921.42,439.57,925.58,454.81,940,476.69,955.44,491.21Z"/><path class="cls-4" d="M218.92,934.27c11.64-.2,19.35-5.67,24.05-13.9-18.89-5.38-37.32-21.22-37.67-38.73a38.6,38.6,0,0,1,10.82-27.48,41.78,41.78,0,0,0-8.74-.8c-22.49.39-40.36,18.4-39.92,40.22S196.43,934.67,218.92,934.27Z"/><path class="cls-5" d="M205.29,881.64c.35,17.5,18.79,33.34,37.67,38.73,4.37-7.66,6.13-17.7,5.92-28.22-.38-18.9-14.41-34.42-32.77-38A38.6,38.6,0,0,0,205.29,881.64Z"/><g class="cls-7"><path class="cls-8" d="M571.51,184.37c-73.75,6.8-95.75-2.13-95.75,11.74,0,2.63,16.14-1.09,17.6,5.42,2.42,10.79,16.23,20.91,23.24,32.27,11,17.88-4.1,22.38,28.2,20.92,34.52-1.56,106.31-58.46,127.62-61.45C686.12,189.39,618.39,180,571.51,184.37Z"/></g><path class="cls-9" d="M574.46,79.86h0c-12,17.38-19.45,54.5-20.17,87.07,4.76,2.65,15.79,4,20.18,4,4.74,0,14.67-1.39,20.18-4C593.91,134.36,586.47,97.23,574.46,79.86Z"/><path class="cls-10" d="M582.78,164.43c-5-.38-17.53-2.84-22.75-6.13,2.92-29.53,5-59,14.38-78.4-12,17.39-19.42,54.48-20.15,87,4.76,2.65,15.79,4,20.18,4,4.74,0,14.67-1.39,20.18-4,0-.93-.07-1.88-.1-2.83A73.8,73.8,0,0,1,582.78,164.43Z"/><path class="cls-11" d="M673.76,158.32c-.21-5.81-1.66-12.61-3.65-14.62-2,2-3.44,8.76-3.65,14.59,0,.08,0,.16,0,.24v.28c-2.91-2.71-10.46-7.62-20-12.67C638.89,79.27,611.23,24.39,574.45,0h0c-36.77,24.39-64.42,79.25-72,146.1-9.67,5.12-17.32,10.11-20.16,12.81v-.38c0-.08,0-.16,0-.24-.21-5.83-1.66-12.58-3.65-14.59-2,2-3.44,8.81-3.65,14.62,0,.07,0,.13,0,.2v32.59a3.67,3.67,0,1,0,7.35,0v-.82a157.18,157.18,0,0,1,18.09-9.5v0a170.44,170.44,0,0,1,44.72-12.88c.62-42.92,12.59-88.35,29.35-103.3h0c11.75,10.49,21.15,36,25.92,65.06h0q.19,1,.36,2.09a263.14,263.14,0,0,1,2.82,27.9l0,.34q.08,1.7.13,3.39c0,.42,0,.84,0,1.25q0,1.25.06,2.5c0,.25,0,.5,0,.75h0q2.94.43,5.85,1l.2,0q2.86.52,5.67,1.13h.07q5.57,1.21,11,2.76l.87.25q2.4.7,4.76,1.46l.45.14q2.53.83,5,1.73l1.05.39q1.92.71,3.81,1.47l1.37.55q2.2.9,4.37,1.86a157.26,157.26,0,0,1,18.19,9.53v.88a3.67,3.67,0,1,0,7.35,0V158.52C673.78,158.45,673.76,158.39,673.76,158.32Z"/><path class="cls-11" d="M673.76,158.32c-.21-5.81-1.66-12.61-3.65-14.62-2,2-3.44,8.76-3.65,14.59,0,.08,0,.16,0,.24v.28c-2.91-2.71-10.46-7.62-20-12.67C638.89,79.27,611.23,24.39,574.45,0h0c-36.77,24.39-64.42,79.25-72,146.1-9.67,5.12-17.32,10.11-20.16,12.81v-.38c0-.08,0-.16,0-.24-.21-5.83-1.66-12.58-3.65-14.59-2,2-3.44,8.81-3.65,14.62,0,.07,0,.13,0,.2v32.59a3.67,3.67,0,1,0,7.35,0v-.82a157.18,157.18,0,0,1,18.09-9.5v0a170.44,170.44,0,0,1,44.72-12.88c.62-42.92,12.59-88.35,29.35-103.3h0c11.75,10.49,21.15,36,25.92,65.06h0q.19,1,.36,2.09a263.14,263.14,0,0,1,2.82,27.9l0,.34q.08,1.7.13,3.39c0,.42,0,.84,0,1.25q0,1.25.06,2.5c0,.25,0,.5,0,.75h0q2.94.43,5.85,1l.2,0q2.86.52,5.67,1.13h.07q5.57,1.21,11,2.76l.87.25q2.4.7,4.76,1.46l.45.14q2.53.83,5,1.73l1.05.39q1.92.71,3.81,1.47l1.37.55q2.2.9,4.37,1.86a157.26,157.26,0,0,1,18.19,9.53v.88a3.67,3.67,0,1,0,7.35,0V158.52C673.78,158.45,673.76,158.39,673.76,158.32Z"/><path class="cls-9" d="M663.15,162.33c-2.28-2.12-9.18-6.76-19-11.94l-2.25-1.19-.28-2.53C634.57,84,608.94,30.51,574.45,5.85c-.94.67-1.85,1.45-2.78,2.16,34,25,59.18,78,66.2,140l.28,2.53,2.25,1.19c9.77,5.18,16.67,9.81,19,11.94l5.81,5.41V184c1.26.72,2.56,1.4,3.79,2.15V167.74Z"/><path class="cls-9" d="M570.66,59.56l-3.21,2.87c-18.81,16.78-29.53,63.14-30.84,102.12,1.25-.24,2.5-.52,3.76-.73,1.22-39.11,12-85.89,30.87-102.76l.55-.49Z"/></g></g></svg>