<svg xmlns="http://www.w3.org/2000/svg" viewBox="0 0 468.47 353.25"><defs><style>.cls-1{fill:#765635;opacity:0.75;}.cls-2{fill:#f4c02f;}.cls-3{fill:#cc5f23;}.cls-4{fill:#e27f34;}.cls-5{fill:#8fb8cc;}.cls-6{fill:#a8d1e5;}.cls-7{fill:#759eb2;}.cls-8{fill:#f4f0df;}</style></defs><title>Asset 49</title><g id="Layer_2" data-name="Layer 2"><g id="Livello_1" data-name="Livello 1"><polygon class="cls-1" points="235.93 99.05 145.66 199.83 264.69 104.39 429.88 106.8 468.47 0 56.22 15.4 77.65 111.96 235.93 99.05"/><path class="cls-2" d="M168,299l-13,6.37-12.31,6L35.21,341.79l27.5,11.46s70-11.14,88.19-18.2c3.91-1.51,8-3.24,12.36-5.19,1.11-.51,2.23-1,3.37-1.55,6.64-3.15,54-32,61.09-36.28l12.8-30.81Z"/><path class="cls-3" d="M0,325.9l5.29,15.88S70.24,360,162.21,311.34s97.64-64.26,97.64-64.26l-6-17.72Z"/><path class="cls-4" d="M228.23,223.37s-44.79.54-89.28,8.05a226.13,226.13,0,0,1,32.86.77c10.09.38,34.37,6,26.9,13.46-45.58,45.54-107.15,68-169.8,84.27,32.86.39,91.44-7.35,163.64-48.19C306.69,217.17,228.23,223.37,228.23,223.37Z"/><path class="cls-4" d="M198.7,245.65c7.48-7.47-16.81-13.08-26.9-13.46a226.13,226.13,0,0,0-32.86-.77c-21.42,3.62-42.78,8.85-59,16.41,0,0-78.15,75.83-79.89,78.07-.64.82,9.78,3.79,28.87,4C91.55,313.61,153.12,291.19,198.7,245.65Z"/><path class="cls-5" d="M135.56,239.27C127.73,212,124,182.11,105,162.3c-3.72-3.73-11.41-6.12-18.45-5.45a47.63,47.63,0,0,0-11.42,5.43c-39.32,25-17.56,76.65-7.12,96.55C90.49,252.31,116.22,255.38,135.56,239.27Z"/><path class="cls-6" d="M86.51,156.85c7-.67,14.72,1.72,18.45,5.45,19,19.81,22.77,49.7,30.61,77-19.34,16.11-45.07,13-67.6,19.55,2.65,5.06,4.57,8.07,4.57,8.07l4.86,1.7c20.55,8.93,78.83-17.11,74.51-35.6C147.94,216,128,144,86.51,156.85Z"/><path class="cls-7" d="M64.59,252s-5.51,4.65-4,8.89,2.61,10.34,3.61,10.84,32,13.84,67.88-9.31,26-33.85,26-33.85-1.56-12.42-10.09-10c0,0,7.45,20.87-36.42,32.92C111.54,251.48,69.46,263.6,64.59,252Z"/><path class="cls-8" d="M212.35,218.5c-.32-.09-.64-.18-1-.25-6.67-1.35-10.51,8.63-10.51,8.63a11,11,0,0,0,1.26,1c7.47,5,17.33-2.18,17.33-2.18A10.48,10.48,0,0,0,212.35,218.5Z"/><path class="cls-8" d="M172.7,256.38l-.64.21c-9.49,3-8.54,8.55-8.54,8.55,0,.78,2.45,1.7,5.67,1.69a14.41,14.41,0,0,0,8.65-2.71C183.62,259.71,182.91,253.4,172.7,256.38Z"/><path class="cls-8" d="M91.21,285.59s-1.11.39-2.7,1c-5.37,2.2-16.36,7.43-9.79,11.18,3.23,1.84,8.45.25,12.68-2.34C98.32,291.25,102.59,284.38,91.21,285.59Z"/><path class="cls-8" d="M37.15,289.87a32.41,32.41,0,0,0-4.53,3c-4.7,6.15,1.72,4.33,6.41,1.39,2.67-1.67,4.78-3.7,4-4.84C41.89,287.89,39.41,288.67,37.15,289.87Z"/></g></g></svg>