<svg xmlns="http://www.w3.org/2000/svg" viewBox="0 0 423.01 291.67"><defs><style>.cls-1{fill:#765635;opacity:0.75;}.cls-2{opacity:0.59;}.cls-3{fill:#1d1d1b;opacity:0.4;}.cls-4{fill:#e3e3e3;}.cls-5{fill:#fff;}.cls-6{fill:#6f757d;}</style></defs><title>Asset 46</title><g id="Layer_2" data-name="Layer 2"><g id="Livello_1" data-name="Livello 1"><polygon class="cls-1" points="136.04 112.69 72.75 246.52 165.22 114.25 392.12 131.47 423.01 0 53.46 34.91 61.61 115.97 136.04 112.69"/><g class="cls-2"><path class="cls-3" d="M62,248.71c-23-2-25.1,1.32-31,3.78-1,.43-11.05,14.15-8.12,19.31,4.62,8.12,12.87,20.51,26.41,19.85,14.46-.71,26.86-34.73,30.55-38C77.13,251.36,63.69,248.87,62,248.71Z"/></g><path class="cls-4" d="M55.06,263.51c0,1.35.48,2.45,1.16,2.45h0c.68,0,1.16-1.1,1.16-2.45l1-57.72a2.79,2.79,0,0,0-2.19-2.45h0a2.58,2.58,0,0,0-1.93,2.45Z"/><path class="cls-4" d="M35.78,254.83a1.22,1.22,0,0,1-1.72.33h0a1.22,1.22,0,0,1-.12-1.75L55,225.94a1.22,1.22,0,0,1,1.72-.33h0a1.22,1.22,0,0,1,.12,1.75Z"/><path class="cls-4" d="M76.65,254.83a1.22,1.22,0,0,0,1.72.33h0a1.22,1.22,0,0,0,.12-1.75L57.43,225.94a1.22,1.22,0,0,0-1.72-.33h0a1.22,1.22,0,0,0-.12,1.75Z"/><path class="cls-5" d="M42,213.7c-1.95,1.1-8.33-6.51-14.26-17s-9.14-19.9-7.19-21c.09-.05.29-.13.31-.1l0-.06,27.34-15.43h0l0,0c1.95-1.1,8.32,6.52,14.25,17s9.15,19.89,7.2,21l-.06,0h0L42.28,213.54l0-.06S42.09,213.65,42,213.7Z"/><path class="cls-5" d="M16.79,222c-1.49.84-6.39-5-10.91-13S-1,193.81.44,193c.07,0-.06.06.28-.1l-.12-.21L21.27,181l.1.17.07,0c1.49-.84,6.37,5,10.89,13s7,15.19,5.47,16l-.07,0-.09-.16L17,221.67l.07.12C16.72,222,16.86,222,16.79,222Z"/><path class="cls-4" d="M27.66,196.74a86.89,86.89,0,0,0,9.26,13.68l-5,2.82a86.92,86.92,0,0,1-9.26-13.68,86.27,86.27,0,0,1-7.06-15.36l5-2.82A86.31,86.31,0,0,0,27.66,196.74Z"/><path class="cls-4" d="M53.23,182.3c4.37,7.75,8.93,14.26,12.45,18l-6,3.39c-3.51-3.77-8.07-10.28-12.45-18s-7.59-15-9-20l6-3.39C45.64,167.29,48.86,174.55,53.23,182.3Z"/><path class="cls-5" d="M100.18,187.46l-28.41,16-.1-.19s-.27.25-.38.32c-2.45,1.38-10.52-8.17-18-21.37s-11.43-25.05-9-26.44c.11-.06.42-.2.45-.15l-.11-.19,28.39-16c2.07,6.11,6.31,15.18,11.83,25S96,182.54,100.18,187.46Z"/><path class="cls-4" d="M105.87,184.11a1,1,0,0,0,.21-.16l.1.13-.4.23-.07-.12Z"/><path class="cls-4" d="M79.13,136.22a1,1,0,0,0-.2.08l-.17.11-.07-.12.39-.22Z"/><path class="cls-4" d="M78.93,136.3a1,1,0,0,1,.2-.08c2.08,6.1,6.3,15.11,11.78,24.82s11,18,15.16,22.91a1,1,0,0,1-.21.16l-.16.07.07.12-5.6,3.16c-4.16-4.92-9.74-13.24-15.27-23s-9.77-18.87-11.83-25l5.61-3.17.07.12Z"/><path class="cls-6" d="M79.13,136.22c2.66-.81,10.51,8.59,17.77,21.45S108.07,182,106.08,184c-4.15-4.94-9.68-13.2-15.16-22.91S81.21,142.32,79.13,136.22Z"/><path class="cls-6" d="M105.84,184.15c-4.34-5.16-9.87-13.52-15.2-23S81,142.68,78.83,136.32l-.1-.3.31-.09a1.51,1.51,0,0,1,.43-.06c3.12,0,10.73,9.31,17.69,21.65,6.27,11.12,11.61,24.24,9.13,26.66l-.24.23ZM91.18,160.89c5.2,9.22,10.6,17.41,14.88,22.56,1.17-2.35-2.18-12.77-9.43-25.63-7.46-13.23-14.5-21.18-17.08-21.33C81.75,142.79,86,151.66,91.18,160.89Z"/></g></g></svg>