<svg xmlns="http://www.w3.org/2000/svg" viewBox="0 0 562.96 299.27"><defs><style>.cls-1{fill:#765635;opacity:0.75;}.cls-2{opacity:0.59;}.cls-3{fill:#1d1d1b;opacity:0.4;}.cls-4{fill:#e6e6e6;}.cls-5{fill:#b5bcbc;}.cls-6{fill:#55a7dd;}</style></defs><title>Asset 47</title><g id="Layer_2" data-name="Layer 2"><g id="Livello_1" data-name="Livello 1"><polygon class="cls-1" points="261.74 108.2 171.47 208.98 290.49 113.54 523.38 129.32 562.96 0 157.02 21.75 166.65 115.96 261.74 108.2"/><g class="cls-2"><path class="cls-3" d="M87.1,183.6c-75-3.15-50.77,27.37-70,31.16-3.35.66-21.71,11-12.15,18.95,15,12.53,28.46,66.57,72.51,65.54,47.06-1.09,80.33-66.79,92.36-71.83C161.18,223.88,92.75,183.84,87.1,183.6Z"/></g><polygon class="cls-4" points="90.93 215.43 44.26 188.48 42.14 187.25 72.21 169.9 121 198.07 118.88 199.29 90.93 215.43"/><polygon class="cls-5" points="71.38 150.07 71.39 150.04 71.41 150.05 72.06 150.43 91.8 161.82 99.64 204.83 99.85 205.98 99.85 205.99 99.84 205.98 63.63 185.07 71.38 150.07"/><polygon class="cls-5" points="91.8 161.82 72.06 150.43 71.41 150.05 72.26 149.52 72.26 149.52 72.27 149.52 92.68 161.3 100.72 205.45 100.72 205.46 100.72 205.46 99.85 205.98 99.64 204.83 91.8 161.82"/><polygon class="cls-5" points="79.68 131.85 81.18 131.6 80.63 132.43 79.68 131.85"/><polygon class="cls-5" points="100.42 186.67 98.93 186.91 99.46 186.1 100.42 186.67"/><polygon class="cls-4" points="80.63 132.43 62.02 160.64 60.54 162.88 62.74 164.19 66.49 166.42 72.65 170.1 76.39 172.33 82.56 176.01 86.3 178.25 92.46 181.92 96.2 184.15 99.46 186.1 98.93 186.91 98.91 186.91 59.03 163.12 79.65 131.86 79.68 131.85 80.63 132.43"/><polygon class="cls-4" points="79.68 131.85 79.65 131.86 79.67 131.85 79.68 131.85"/><polygon class="cls-5" points="119.55 155.65 80.63 132.43 81.18 131.6 121.06 155.4 100.43 186.67 100.42 186.67 99.46 186.1 119.55 155.65"/><path class="cls-6" d="M62.12,160.65l1.25-1.9a2.61,2.61,0,0,1,3.4-.74l-3.92,5.84A2.33,2.33,0,0,1,62.12,160.65Z"/><path class="cls-6" d="M67.24,152.89,68.49,151a2.61,2.61,0,0,1,3.4-.74L68,156.1A2.33,2.33,0,0,1,67.24,152.89Z"/><path class="cls-6" d="M72.49,144.94l1.25-1.9a2.61,2.61,0,0,1,3.4-.74l-3.92,5.84A2.34,2.34,0,0,1,72.49,144.94Z"/><path class="cls-6" d="M77.61,137.18l1.25-1.9a2.61,2.61,0,0,1,3.4-.74l-3.92,5.84A2.33,2.33,0,0,1,77.61,137.18Z"/><path class="cls-4" d="M62.85,163.86l-.09.13a.12.12,0,0,0,0,.17l-.06,0-2.2-1.31L62,160.64h.1A2.33,2.33,0,0,0,62.85,163.86Z"/><path class="cls-4" d="M63,164l-.16-.1L66.77,158l.11.06.11.07L63.07,164Z"/><path class="cls-4" d="M68.13,156.2l-.16-.1,3.92-5.84.11.07.11.07-3.93,5.84Z"/><path class="cls-4" d="M73.38,148.24l-.16-.1,3.92-5.84.11.06.11.07-3.93,5.84Z"/><path class="cls-4" d="M78.5,140.48l-.16-.1,3.92-5.84.11.07.11.07-3.93,5.84Z"/><path class="cls-4" d="M66.77,158l0-.05a.14.14,0,0,1,.18,0,.12.12,0,0,1,0,.17l0,0-.11-.07Z"/><path class="cls-4" d="M71.89,150.26l0-.05a.14.14,0,0,1,.18,0,.12.12,0,0,1,0,.17l0,.05-.11-.07Z"/><path class="cls-4" d="M77.14,142.3l0-.06a.13.13,0,0,1,.18,0,.12.12,0,0,1,0,.17l0,.05-.11-.07Z"/><path class="cls-4" d="M82.26,134.54l0-.05a.14.14,0,0,1,.18,0,.12.12,0,0,1,0,.17l0,0-.11-.07Z"/><path class="cls-4" d="M78.56,140.52l-.09.14a.13.13,0,0,1-.18,0h0a.12.12,0,0,1,0-.17l.09-.14.16.1Z"/><path class="cls-4" d="M73.44,148.28l-.09.14a.13.13,0,0,1-.18,0h0a.12.12,0,0,1,0-.17l.09-.14.16.1Z"/><path class="cls-4" d="M68.19,156.24l-.09.13a.14.14,0,0,1-.18,0h0a.12.12,0,0,1,0-.17l.09-.14.16.1Z"/><path class="cls-4" d="M63.07,164l-.09.13a.14.14,0,0,1-.18,0,.12.12,0,0,1,0-.17l.09-.13.16.1Z"/><path class="cls-6" d="M66.53,166.06,63.07,164,67,158.15l3.41,2,.11.07-3.93,5.84Z"/><path class="cls-6" d="M71.65,158.3l-3.46-2.07,3.93-5.84,3.41,2,.11.07-3.93,5.84Z"/><path class="cls-6" d="M76.9,150.34l-3.46-2.07,3.93-5.84,3.41,2,.1.07L77,150.38Z"/><path class="cls-6" d="M82,142.58l-3.46-2.07,3.93-5.84,3.41,2,.11.06-3.93,5.84Z"/><path class="cls-4" d="M63,164.13l.09-.13,3.46,2.07.05,0-.09.13a.12.12,0,0,0,0,.17l-.06,0-3.74-2.23.06,0A.14.14,0,0,0,63,164.13Z"/><path class="cls-4" d="M70.52,160.25l.21.15-3.9,5.81-.24-.12Z"/><path class="cls-4" d="M71.71,158.33l3.93-5.84.21.15-3.9,5.81Z"/><path class="cls-4" d="M77,150.38l3.93-5.84.21.15-3.9,5.81Z"/><path class="cls-4" d="M82.07,142.62,86,136.77l.21.16-3.9,5.8Z"/><path class="cls-4" d="M82.21,142.89a.13.13,0,0,1-.18,0h0a.12.12,0,0,1,0-.17l.09-.13.24.12Z"/><path class="cls-4" d="M77.09,150.64a.13.13,0,0,1-.18,0h0a.12.12,0,0,1,0-.17l.09-.14.24.12Z"/><path class="cls-4" d="M71.84,158.6a.13.13,0,0,1-.18,0h0a.12.12,0,0,1,0-.17l.09-.13.24.12Z"/><path class="cls-4" d="M75.67,152.44a.14.14,0,0,1,.18,0,.12.12,0,0,1,0,.17l0,.07-.21-.15Z"/><path class="cls-4" d="M80.92,144.48a.15.15,0,0,1,.18,0,.11.11,0,0,1,0,.17l0,.07-.21-.15Z"/><path class="cls-4" d="M86,136.72a.15.15,0,0,1,.18,0,.12.12,0,0,1,0,.17l0,.07-.21-.16Z"/><path class="cls-4" d="M70.55,160.2a.14.14,0,0,1,.18,0,.12.12,0,0,1,0,.17l0,.07-.21-.15Z"/><path class="cls-4" d="M66.5,166.22l.09-.13.24.12-.1.15a.13.13,0,0,1-.18,0h0A.12.12,0,0,1,66.5,166.22Z"/><path class="cls-6" d="M71.3,163.49,70,165.39a2.59,2.59,0,0,1-3.22.82l3.9-5.81A2.32,2.32,0,0,1,71.3,163.49Z"/><path class="cls-6" d="M71.95,158.45l3.9-5.81a2.31,2.31,0,0,1,.57,3.08l-1.25,1.9A2.6,2.6,0,0,1,71.95,158.45Z"/><path class="cls-6" d="M77.2,150.5l3.9-5.81a2.31,2.31,0,0,1,.57,3.08l-1.25,1.9A2.59,2.59,0,0,1,77.2,150.5Z"/><path class="cls-6" d="M82.31,142.74l3.9-5.8a2.31,2.31,0,0,1,.57,3.08l-1.25,1.89A2.59,2.59,0,0,1,82.31,142.74Z"/><path class="cls-6" d="M72,166.57l1.25-1.9a2.61,2.61,0,0,1,3.4-.74l-3.93,5.84A2.33,2.33,0,0,1,72,166.57Z"/><path class="cls-6" d="M77.15,158.81l1.25-1.9a2.61,2.61,0,0,1,3.4-.74L77.87,162A2.33,2.33,0,0,1,77.15,158.81Z"/><path class="cls-6" d="M82.4,150.85,83.65,149a2.61,2.61,0,0,1,3.4-.74l-3.93,5.84A2.34,2.34,0,0,1,82.4,150.85Z"/><path class="cls-6" d="M87.52,143.09l1.25-1.9a2.6,2.6,0,0,1,3.4-.74l-3.92,5.83A2.33,2.33,0,0,1,87.52,143.09Z"/><path class="cls-4" d="M72.91,169.87l-.16-.1,3.93-5.84.11.06.11.07L73,169.91Z"/><path class="cls-4" d="M78,162.11l-.16-.1,3.92-5.84.11.07.11.07-3.93,5.85Z"/><path class="cls-4" d="M83.28,154.15l-.16-.1L87,148.21l.12.07.11.06-3.93,5.85Z"/><path class="cls-4" d="M88.41,146.39l-.16-.1,3.92-5.83.12.06.11.07-3.93,5.84Z"/><path class="cls-4" d="M76.68,163.93l0-.06a.15.15,0,0,1,.18,0,.12.12,0,0,1,0,.17l0,0-.11-.07Z"/><path class="cls-4" d="M81.8,156.17l0-.05a.14.14,0,0,1,.18,0,.13.13,0,0,1,0,.17l0,0-.11-.07Z"/><path class="cls-4" d="M87,148.21l0-.05a.14.14,0,0,1,.18,0,.12.12,0,0,1,0,.17l0,0-.11-.06Z"/><path class="cls-4" d="M92.17,140.46l0-.06a.14.14,0,0,1,.18,0,.13.13,0,0,1,0,.17l0,.05-.11-.07Z"/><path class="cls-4" d="M88.47,146.43l-.09.14a.13.13,0,0,1-.18,0h0a.12.12,0,0,1,0-.17l.09-.14.16.1Z"/><path class="cls-4" d="M83.34,154.19l-.09.13a.13.13,0,0,1-.18,0h0a.12.12,0,0,1,0-.17l.09-.14.16.1Z"/><path class="cls-4" d="M78.1,162.15l-.09.13a.14.14,0,0,1-.18,0h0a.12.12,0,0,1,0-.17l.09-.13.16.1Z"/><path class="cls-4" d="M73,169.91l-.09.13a.13.13,0,0,1-.18,0h0a.13.13,0,0,1,0-.17l.09-.13.16.1Z"/><path class="cls-6" d="M76.44,172,73,169.91l3.93-5.85,3.41,2,.11.07L76.49,172Z"/><path class="cls-6" d="M81.56,164.21l-3.46-2.06L82,156.3l3.41,2,.1.07-3.93,5.84Z"/><path class="cls-6" d="M86.81,156.26l-3.46-2.07,3.93-5.85,3.41,2,.11.07-3.93,5.84Z"/><path class="cls-6" d="M91.93,148.5l-3.46-2.07,3.93-5.84,3.41,2,.1.07L92,148.53Z"/><path class="cls-4" d="M72.71,170.07a.13.13,0,0,0,.18,0l.09-.13L76.44,172l.05,0-.08.13a.12.12,0,0,0,0,.17l-.06,0-3.74-2.23.05,0Z"/><path class="cls-4" d="M80.42,166.16l.21.16-3.9,5.81-.24-.12Z"/><path class="cls-4" d="M81.61,164.24l3.93-5.84.21.15-3.9,5.81Z"/><path class="cls-4" d="M86.86,156.29l3.93-5.84.21.16-3.9,5.81Z"/><path class="cls-4" d="M92,148.53l3.93-5.84.21.15-3.9,5.81Z"/><path class="cls-4" d="M92.12,148.8a.13.13,0,0,1-.18,0h0a.12.12,0,0,1,0-.17l.09-.14.24.12Z"/><path class="cls-4" d="M87,156.55a.13.13,0,0,1-.18,0h0a.12.12,0,0,1,0-.17l.09-.13.24.12Z"/><path class="cls-4" d="M81.75,164.51a.13.13,0,0,1-.18,0h0a.12.12,0,0,1,0-.17l.09-.13.24.12Z"/><path class="cls-4" d="M90.83,150.39a.14.14,0,0,1,.18,0,.12.12,0,0,1,0,.17l0,.07-.21-.16Z"/><path class="cls-4" d="M95.94,142.63a.16.16,0,0,1,.18,0,.13.13,0,0,1,0,.17l0,.07-.21-.15Z"/><path class="cls-4" d="M85.58,158.35a.15.15,0,0,1,.18,0,.12.12,0,0,1,0,.17l0,.07-.21-.15Z"/><path class="cls-4" d="M80.46,166.11a.15.15,0,0,1,.18,0,.12.12,0,0,1,0,.17l0,.07-.21-.16Z"/><path class="cls-4" d="M76.41,172.13l.08-.13.24.12-.1.15a.13.13,0,0,1-.18,0h0A.12.12,0,0,1,76.41,172.13Z"/><path class="cls-6" d="M81.21,169.4,80,171.3a2.58,2.58,0,0,1-3.22.82l3.9-5.81A2.32,2.32,0,0,1,81.21,169.4Z"/><path class="cls-6" d="M81.85,164.36l3.9-5.81a2.32,2.32,0,0,1,.57,3.08l-1.25,1.9A2.59,2.59,0,0,1,81.85,164.36Z"/><path class="cls-6" d="M87.1,156.41,91,150.6a2.31,2.31,0,0,1,.57,3.08l-1.25,1.9A2.59,2.59,0,0,1,87.1,156.41Z"/><path class="cls-6" d="M92.22,148.65l3.9-5.81a2.31,2.31,0,0,1,.57,3.08l-1.25,1.89A2.59,2.59,0,0,1,92.22,148.65Z"/><path class="cls-6" d="M81.93,172.47l1.25-1.9a2.61,2.61,0,0,1,3.4-.74l-3.92,5.84A2.33,2.33,0,0,1,81.93,172.47Z"/><path class="cls-6" d="M87,164.72l1.26-1.9a2.6,2.6,0,0,1,3.39-.74l-3.92,5.84A2.33,2.33,0,0,1,87,164.72Z"/><path class="cls-6" d="M92.3,156.76l1.25-1.9a2.61,2.61,0,0,1,3.4-.74L93,160A2.32,2.32,0,0,1,92.3,156.76Z"/><path class="cls-6" d="M97.42,149l1.25-1.9a2.6,2.6,0,0,1,3.39-.74l-3.92,5.83A2.32,2.32,0,0,1,97.42,149Z"/><path class="cls-4" d="M87.94,168l-.16-.1,3.92-5.84.12.07.11.07L88,168.06Z"/><path class="cls-4" d="M93.19,160.06,93,160,97,154.12l.12.07.11.07-3.93,5.85Z"/><path class="cls-4" d="M98.31,152.31l-.16-.11,3.92-5.83.12.06.11.07-3.93,5.85Z"/><path class="cls-4" d="M82.82,175.78l-.16-.11,3.92-5.84.11.06.11.07-3.93,5.84Z"/><path class="cls-4" d="M86.59,169.84l0-.05a.14.14,0,0,1,.18,0,.12.12,0,0,1,0,.17l0,0-.11-.07Z"/><path class="cls-4" d="M91.7,162.08l0-.05a.14.14,0,0,1,.18,0,.12.12,0,0,1,0,.17l0,0-.11-.07Z"/><path class="cls-4" d="M97,154.12l0-.05a.14.14,0,0,1,.18,0,.12.12,0,0,1,0,.17l0,0-.11-.07Z"/><path class="cls-4" d="M102.07,146.37l0-.06a.14.14,0,0,1,.18,0,.12.12,0,0,1,0,.17l0,0-.11-.07Z"/><path class="cls-4" d="M98.37,152.34l-.09.13a.14.14,0,0,1-.18,0h0a.12.12,0,0,1,0-.17l.09-.14.16.11Z"/><path class="cls-4" d="M93.25,160.1l-.09.14a.13.13,0,0,1-.18,0h0a.12.12,0,0,1,0-.17L93,160l.16.11Z"/><path class="cls-4" d="M88,168.06l-.09.13a.13.13,0,0,1-.18,0h0a.12.12,0,0,1,0-.17l.09-.13.16.1Z"/><path class="cls-4" d="M82.89,175.81l-.09.13a.14.14,0,0,1-.18,0,.12.12,0,0,1,0-.17l.09-.14.16.11Z"/><path class="cls-6" d="M91.46,170.12,88,168.06l3.93-5.85,3.41,2,.1.07-3.93,5.84Z"/><path class="cls-6" d="M96.71,162.16l-3.46-2.07,3.93-5.85,3.41,2,.1.06-3.93,5.85Z"/><path class="cls-6" d="M101.83,154.41l-3.46-2.07,3.93-5.85,3.41,2,.11.07-3.93,5.84Z"/><path class="cls-6" d="M86.35,177.88l-3.46-2.07L86.82,170l3.41,2,.11.07-3.93,5.84Z"/><path class="cls-4" d="M82.8,175.95l.09-.13,3.46,2.07.05,0-.09.13a.12.12,0,0,0,0,.17l-.06,0L82.56,176l.06,0A.14.14,0,0,0,82.8,175.95Z"/><path class="cls-4" d="M91.52,170.15l3.93-5.84.21.16-3.9,5.81Z"/><path class="cls-4" d="M96.77,162.2l3.93-5.85.21.16L97,162.31Z"/><path class="cls-4" d="M90.33,172.07l.21.16L86.64,178l-.24-.12Z"/><path class="cls-4" d="M101.89,154.44l3.93-5.84.21.15-3.9,5.8Z"/><path class="cls-4" d="M96.91,162.47a.13.13,0,0,1-.18,0h0a.12.12,0,0,1,0-.17l.09-.13.24.12Z"/><path class="cls-4" d="M91.66,170.42a.13.13,0,0,1-.18,0h0a.12.12,0,0,1,0-.17l.09-.13.24.12Z"/><path class="cls-4" d="M90.36,172a.14.14,0,0,1,.18,0,.11.11,0,0,1,0,.17l0,.07-.21-.16Z"/><path class="cls-4" d="M95.48,164.26a.15.15,0,0,1,.18,0,.12.12,0,0,1,0,.17l0,.07-.21-.16Z"/><path class="cls-4" d="M100.73,156.3a.14.14,0,0,1,.18,0,.12.12,0,0,1,0,.17l0,.07-.21-.16Z"/><path class="cls-4" d="M105.85,148.54a.14.14,0,0,1,.18,0,.12.12,0,0,1,0,.17l0,.07-.21-.15Z"/><path class="cls-4" d="M102,154.71a.13.13,0,0,1-.18,0h0a.11.11,0,0,1,0-.17l.09-.13.24.11Z"/><path class="cls-4" d="M86.31,178l.09-.13.24.12-.1.15a.13.13,0,0,1-.18,0h0A.12.12,0,0,1,86.31,178Z"/><path class="cls-6" d="M91.11,175.31l-1.25,1.9a2.59,2.59,0,0,1-3.22.83l3.9-5.81A2.31,2.31,0,0,1,91.11,175.31Z"/><path class="cls-6" d="M91.76,170.27l3.9-5.81a2.31,2.31,0,0,1,.57,3.08L95,169.45A2.59,2.59,0,0,1,91.76,170.27Z"/><path class="cls-6" d="M97,162.31l3.9-5.81a2.31,2.31,0,0,1,.57,3.08l-1.25,1.9A2.59,2.59,0,0,1,97,162.31Z"/><path class="cls-6" d="M102.13,154.55l3.9-5.8a2.3,2.3,0,0,1,.57,3.08l-1.25,1.9A2.58,2.58,0,0,1,102.13,154.55Z"/><path class="cls-6" d="M91.84,178.39l1.25-1.9a2.61,2.61,0,0,1,3.4-.74l-3.92,5.83A2.33,2.33,0,0,1,91.84,178.39Z"/><path class="cls-6" d="M97,170.63l1.25-1.9a2.61,2.61,0,0,1,3.4-.74l-3.93,5.84A2.33,2.33,0,0,1,97,170.63Z"/><path class="cls-6" d="M102.21,162.67l1.25-1.9a2.61,2.61,0,0,1,3.4-.74l-3.92,5.84A2.33,2.33,0,0,1,102.21,162.67Z"/><path class="cls-6" d="M107.33,154.91l1.25-1.9a2.6,2.6,0,0,1,3.4-.74l-3.92,5.84A2.33,2.33,0,0,1,107.33,154.91Z"/><path class="cls-4" d="M103.1,166l-.16-.1,3.92-5.84.12.07.11.06L103.16,166Z"/><path class="cls-4" d="M108.22,158.22l-.16-.1,3.92-5.84.12.06.11.07-3.93,5.85Z"/><path class="cls-4" d="M97.85,173.93l-.16-.1,3.93-5.84.11.07.11.07L97.91,174Z"/><path class="cls-4" d="M92.73,181.69l-.17-.1,3.92-5.83.12.07.11.07-3.93,5.84Z"/><path class="cls-4" d="M112,152.28l0-.05a.14.14,0,0,1,.18,0,.13.13,0,0,1,0,.17l0,0-.11-.07Z"/><path class="cls-4" d="M96.49,175.75l0-.05a.14.14,0,0,1,.18,0,.12.12,0,0,1,0,.17l0,0-.11-.07Z"/><path class="cls-4" d="M101.61,168l0-.05a.13.13,0,0,1,.18,0,.12.12,0,0,1,0,.17l0,0-.11-.07Z"/><path class="cls-4" d="M106.86,160l0-.05a.13.13,0,0,1,.18,0,.12.12,0,0,1,0,.17l0,0-.11-.06Z"/><path class="cls-4" d="M108.27,158.25l-.09.13a.14.14,0,0,1-.18,0h0a.12.12,0,0,1,0-.17l.09-.14.16.1Z"/><path class="cls-4" d="M103.16,166l-.09.13a.13.13,0,0,1-.18,0h0a.12.12,0,0,1,0-.17l.09-.14.16.1Z"/><path class="cls-4" d="M97.91,174l-.09.13a.13.13,0,0,1-.18,0h0a.12.12,0,0,1,0-.17l.09-.14.16.1Z"/><path class="cls-4" d="M119.55,155.65,80.63,132.43,62,160.64h.1l1.25-1.9a2.61,2.61,0,0,1,3.4-.74l0-.05a.14.14,0,0,1,.18,0,.12.12,0,0,1,0,.17l0,0,3.41,2,.11.07,0,0a.14.14,0,0,1,.18,0,.12.12,0,0,1,0,.17l0,.07a2.32,2.32,0,0,1,.57,3.09L70,165.39a2.59,2.59,0,0,1-3.22.82l-.1.15a.13.13,0,0,1-.18,0h0l-.06,0,6.16,3.68.05,0a.13.13,0,0,1,0-.17l.09-.13a2.33,2.33,0,0,1-.73-3.2l1.25-1.9a2.61,2.61,0,0,1,3.4-.74l0-.06a.15.15,0,0,1,.18,0,.12.12,0,0,1,0,.17l0,0,3.41,2,.11.07,0,0a.15.15,0,0,1,.18,0,.12.12,0,0,1,0,.17l0,.07a2.32,2.32,0,0,1,.57,3.08L80,171.3a2.58,2.58,0,0,1-3.22.82l-.1.15a.13.13,0,0,1-.18,0h0l-.06,0L82.56,176l.06,0a.12.12,0,0,1,0-.17l.09-.14a2.33,2.33,0,0,1-.73-3.2l1.25-1.9a2.61,2.61,0,0,1,3.4-.74l0-.05a.14.14,0,0,1,.18,0,.12.12,0,0,1,0,.17l0,0,3.41,2,.11.07,0-.05a.14.14,0,0,1,.18,0,.11.11,0,0,1,0,.17l0,.07a2.31,2.31,0,0,1,.57,3.08l-1.25,1.9a2.59,2.59,0,0,1-3.22.83l-.1.15a.13.13,0,0,1-.18,0h0l-.06,0,6.16,3.67.06,0a.12.12,0,0,1,0-.17l.09-.14a2.33,2.33,0,0,1-.73-3.2l1.25-1.9a2.61,2.61,0,0,1,3.4-.74l0-.05a.14.14,0,0,1,.18,0,.12.12,0,0,1,0,.17l0,0,3.41,2,.1.07,0-.05a.15.15,0,0,1,.18,0,.12.12,0,0,1,0,.17l0,.07a2.31,2.31,0,0,1,.57,3.08l-1.25,1.89a2.58,2.58,0,0,1-3.22.83l-.1.15a.13.13,0,0,1-.18,0h0l-.06,0,3.26,1.95Zm-34-13.74a2.59,2.59,0,0,1-3.22.83l-.1.15a.13.13,0,0,1-.18,0h0a.12.12,0,0,1,0-.17l.09-.13-.05,0-3.46-2.07-.09.14a.13.13,0,0,1-.18,0h0a.12.12,0,0,1,0-.17l.09-.14a2.33,2.33,0,0,1-.73-3.2l1.25-1.9a2.61,2.61,0,0,1,3.4-.74l0-.05a.14.14,0,0,1,.18,0,.12.12,0,0,1,0,.17l0,0,3.41,2,.11.06,0,0a.15.15,0,0,1,.18,0,.12.12,0,0,1,0,.17l0,.07a2.31,2.31,0,0,1,.57,3.08Zm-5.12,7.76a2.59,2.59,0,0,1-3.22.83l-.1.15a.13.13,0,0,1-.18,0h0a.12.12,0,0,1,0-.17l.09-.14-.05,0-3.46-2.07-.09.14a.13.13,0,0,1-.18,0h0a.12.12,0,0,1,0-.17l.09-.14a2.34,2.34,0,0,1-.73-3.2l1.25-1.9a2.61,2.61,0,0,1,3.4-.74l0-.06a.13.13,0,0,1,.18,0,.12.12,0,0,1,0,.17l0,.05,3.41,2,.1.07,0-.05a.15.15,0,0,1,.18,0,.11.11,0,0,1,0,.17l0,.07a2.31,2.31,0,0,1,.57,3.08Zm-5.25,8a2.6,2.6,0,0,1-3.22.83l-.1.15a.13.13,0,0,1-.18,0h0a.12.12,0,0,1,0-.17l.09-.13-.06,0-3.46-2.07-.09.13a.14.14,0,0,1-.18,0h0a.12.12,0,0,1,0-.17l.09-.14a2.33,2.33,0,0,1-.73-3.2L68.49,151a2.61,2.61,0,0,1,3.4-.74l0-.05a.14.14,0,0,1,.18,0,.12.12,0,0,1,0,.17l0,.05,3.41,2,.11.07,0-.05a.14.14,0,0,1,.18,0,.12.12,0,0,1,0,.17l0,.07a2.31,2.31,0,0,1,.57,3.08Zm20.27-9.81a2.59,2.59,0,0,1-3.22.83l-.1.15a.13.13,0,0,1-.18,0h0a.12.12,0,0,1,0-.17l.09-.14-.05,0-3.46-2.07-.09.14a.13.13,0,0,1-.18,0h0a.12.12,0,0,1,0-.17l.09-.14a2.33,2.33,0,0,1-.72-3.2l1.25-1.9a2.6,2.6,0,0,1,3.4-.74l0-.06a.14.14,0,0,1,.18,0,.13.13,0,0,1,0,.17l0,.05,3.41,2,.1.07,0-.06a.16.16,0,0,1,.18,0,.13.13,0,0,1,0,.17l0,.07a2.31,2.31,0,0,1,.57,3.08Zm-5.12,7.76a2.59,2.59,0,0,1-3.22.83l-.1.15a.13.13,0,0,1-.18,0h0a.12.12,0,0,1,0-.17l.09-.13-.05,0-3.46-2.07-.09.13a.13.13,0,0,1-.18,0h0a.12.12,0,0,1,0-.17l.09-.14a2.34,2.34,0,0,1-.72-3.2L83.65,149a2.61,2.61,0,0,1,3.4-.74l0-.05a.14.14,0,0,1,.18,0,.12.12,0,0,1,0,.17l0,0,3.41,2,.11.07,0-.05a.14.14,0,0,1,.18,0,.12.12,0,0,1,0,.17l0,.07a2.31,2.31,0,0,1,.57,3.08Zm-5.25,8a2.59,2.59,0,0,1-3.22.83l-.1.15a.13.13,0,0,1-.18,0h0a.12.12,0,0,1,0-.17l.09-.13-.05,0-3.46-2.06-.09.13a.14.14,0,0,1-.18,0h0a.12.12,0,0,1,0-.17l.09-.13a2.33,2.33,0,0,1-.73-3.2l1.25-1.9a2.61,2.61,0,0,1,3.4-.74l0-.05a.14.14,0,0,1,.18,0,.13.13,0,0,1,0,.17l0,0,3.41,2,.1.07,0-.05a.15.15,0,0,1,.18,0,.12.12,0,0,1,0,.17l0,.07a2.32,2.32,0,0,1,.57,3.08Zm20.27-9.8a2.58,2.58,0,0,1-3.22.82l-.1.15a.13.13,0,0,1-.18,0h0a.11.11,0,0,1,0-.17l.09-.13-.06,0-3.46-2.07-.09.13a.14.14,0,0,1-.18,0h0a.12.12,0,0,1,0-.17l.09-.14a2.32,2.32,0,0,1-.73-3.2l1.25-1.9a2.6,2.6,0,0,1,3.39-.74l0-.06a.14.14,0,0,1,.18,0,.12.12,0,0,1,0,.17l0,0,3.41,2,.11.07,0-.05a.14.14,0,0,1,.18,0,.12.12,0,0,1,0,.17l0,.07a2.3,2.3,0,0,1,.57,3.08Zm-5.12,7.75a2.59,2.59,0,0,1-3.22.83l-.1.15a.13.13,0,0,1-.18,0h0a.12.12,0,0,1,0-.17l.09-.13-.05,0-3.46-2.07-.09.14a.13.13,0,0,1-.18,0h0a.12.12,0,0,1,0-.17L93,160a2.32,2.32,0,0,1-.73-3.2l1.25-1.9a2.61,2.61,0,0,1,3.4-.74l0-.05a.14.14,0,0,1,.18,0,.12.12,0,0,1,0,.17l0,0,3.41,2,.1.06,0,0a.14.14,0,0,1,.18,0,.12.12,0,0,1,0,.17l0,.07a2.31,2.31,0,0,1,.57,3.08Zm-5.25,8a2.59,2.59,0,0,1-3.22.83l-.1.15a.13.13,0,0,1-.18,0h0a.12.12,0,0,1,0-.17l.09-.13-.05,0L88,168.06l-.09.13a.13.13,0,0,1-.18,0h0a.12.12,0,0,1,0-.17l.09-.13a2.33,2.33,0,0,1-.73-3.2l1.26-1.9a2.6,2.6,0,0,1,3.39-.74l0-.05a.14.14,0,0,1,.18,0,.12.12,0,0,1,0,.17l0,0,3.41,2,.1.07,0-.05a.15.15,0,0,1,.18,0,.12.12,0,0,1,0,.17l0,.07a2.31,2.31,0,0,1,.57,3.08Zm20.27-9.8a2.59,2.59,0,0,1-3.22.83l-.1.15a.13.13,0,0,1-.18,0h0a.11.11,0,0,1,0-.17l.08-.13-.06,0-3.46-2.07-.09.13a.14.14,0,0,1-.18,0h0a.12.12,0,0,1,0-.17l.09-.14a2.33,2.33,0,0,1-.73-3.2l1.25-1.9a2.6,2.6,0,0,1,3.4-.74l0-.05a.14.14,0,0,1,.18,0,.13.13,0,0,1,0,.17l0,0,3.41,2,.11.07,0-.05a.14.14,0,0,1,.18,0,.13.13,0,0,1,0,.17l0,.07a2.31,2.31,0,0,1,.57,3.08Zm-5.12,7.76a2.58,2.58,0,0,1-3.22.83l-.1.15a.14.14,0,0,1-.18,0h0a.12.12,0,0,1,0-.17l.09-.13-.06,0L103.16,166l-.09.13a.13.13,0,0,1-.18,0h0a.12.12,0,0,1,0-.17l.09-.14a2.33,2.33,0,0,1-.72-3.2l1.25-1.9a2.61,2.61,0,0,1,3.4-.74l0-.05a.13.13,0,0,1,.18,0,.12.12,0,0,1,0,.17l0,0,3.41,2,.1.07,0-.05a.15.15,0,0,1,.18,0,.12.12,0,0,1,0,.17l0,.07a2.31,2.31,0,0,1,.57,3.08Zm-5.25,8a2.58,2.58,0,0,1-3.22.82l-.1.15a.13.13,0,0,1-.18,0h0a.12.12,0,0,1,0-.17l.09-.14-.05,0L97.91,174l-.09.13a.13.13,0,0,1-.18,0h0a.12.12,0,0,1,0-.17l.09-.14a2.33,2.33,0,0,1-.73-3.2l1.25-1.9a2.61,2.61,0,0,1,3.4-.74l0-.05a.13.13,0,0,1,.18,0,.12.12,0,0,1,0,.17l0,0,3.4,2,.11.07,0-.05a.14.14,0,0,1,.18,0,.12.12,0,0,1,0,.17l0,.07a2.31,2.31,0,0,1,.57,3.08Z"/><path class="cls-4" d="M92.79,181.72l-.09.14a.13.13,0,0,1-.18,0h0a.12.12,0,0,1,0-.17l.09-.14.17.1Z"/><path class="cls-6" d="M106.62,168.08,103.16,166l3.93-5.85,3.41,2,.1.07-3.92,5.84Z"/><path class="cls-6" d="M111.74,160.32l-3.46-2.07,3.93-5.85,3.41,2,.11.07-3.93,5.84Z"/><path class="cls-6" d="M101.37,176,97.91,174l3.93-5.85,3.4,2,.11.07-3.93,5.84Z"/><path class="cls-6" d="M96.25,183.79l-3.46-2.07,3.93-5.84,3.41,2,.1.07-3.93,5.84Z"/><path class="cls-4" d="M92.53,181.89a.13.13,0,0,0,.18,0l.09-.14,3.46,2.07.05,0-.09.13a.12.12,0,0,0,0,.17l-.06,0-3.74-2.23.06,0Z"/><path class="cls-4" d="M100.23,178l.21.16-3.9,5.81-.24-.12Z"/><path class="cls-4" d="M101.43,176.06l3.93-5.84.21.16-3.9,5.81Z"/><path class="cls-4" d="M106.68,168.11l3.92-5.84.21.16-3.9,5.81Z"/><path class="cls-4" d="M111.79,160.35l3.93-5.84.21.15-3.9,5.81Z"/><path class="cls-4" d="M101.56,176.33a.13.13,0,0,1-.18,0h0a.12.12,0,0,1,0-.17l.09-.14.24.12Z"/><path class="cls-4" d="M111.93,160.62a.13.13,0,0,1-.18,0h0a.11.11,0,0,1,0-.17l.08-.13.24.12Z"/><path class="cls-4" d="M106.81,168.38a.14.14,0,0,1-.18,0h0a.12.12,0,0,1,0-.17l.09-.13.23.12Z"/><path class="cls-4" d="M115.76,154.45a.14.14,0,0,1,.18,0,.13.13,0,0,1,0,.17l0,.07-.21-.15Z"/><path class="cls-4" d="M110.64,162.21a.15.15,0,0,1,.18,0,.12.12,0,0,1,0,.17l0,.07-.21-.16Z"/><path class="cls-4" d="M105.39,170.17a.14.14,0,0,1,.18,0,.12.12,0,0,1,0,.17l0,.07-.21-.16Z"/><path class="cls-4" d="M100.27,177.93a.15.15,0,0,1,.18,0,.12.12,0,0,1,0,.17l0,.07-.21-.16Z"/><path class="cls-4" d="M96.22,184l.09-.13.24.12-.1.15a.13.13,0,0,1-.18,0h0A.12.12,0,0,1,96.22,184Z"/><path class="cls-6" d="M101.66,176.18l3.9-5.81a2.31,2.31,0,0,1,.57,3.08l-1.25,1.9A2.58,2.58,0,0,1,101.66,176.18Z"/><path class="cls-6" d="M106.91,168.22l3.9-5.81a2.31,2.31,0,0,1,.57,3.08l-1.25,1.9A2.58,2.58,0,0,1,106.91,168.22Z"/><path class="cls-6" d="M112,160.47l3.9-5.81a2.31,2.31,0,0,1,.57,3.08l-1.25,1.9A2.59,2.59,0,0,1,112,160.47Z"/><path class="cls-6" d="M101,181.22l-1.25,1.89a2.58,2.58,0,0,1-3.22.83l3.9-5.81A2.31,2.31,0,0,1,101,181.22Z"/><polygon class="cls-4" points="98.92 186.92 98.91 186.91 98.93 186.91 98.92 186.92"/><polygon class="cls-5" points="100.43 186.68 100.42 186.67 100.43 186.67 100.43 186.68"/><polygon class="cls-4" points="141.86 243.56 95.19 216.61 93.07 215.38 123.13 198.02 171.93 226.19 169.8 227.42 141.86 243.56"/><polygon class="cls-5" points="122.31 178.19 122.32 178.17 122.34 178.18 122.99 178.56 142.73 189.95 150.57 232.96 150.78 234.11 150.78 234.11 150.77 234.11 114.56 213.2 122.31 178.19"/><polygon class="cls-5" points="142.73 189.95 122.99 178.56 122.34 178.18 123.19 177.65 123.19 177.65 123.2 177.65 143.6 189.43 151.65 233.58 151.65 233.59 151.64 233.58 150.78 234.11 150.57 232.96 142.73 189.95"/><polygon class="cls-5" points="130.61 159.98 132.11 159.73 131.56 160.55 130.61 159.98"/><polygon class="cls-5" points="151.35 214.8 149.85 215.04 150.39 214.22 151.35 214.8"/><polygon class="cls-4" points="131.56 160.55 112.94 188.77 111.47 191 113.67 192.32 117.42 194.55 123.58 198.23 127.32 200.46 133.49 204.14 137.23 206.37 143.39 210.05 147.13 212.28 150.39 214.22 149.85 215.04 149.83 215.04 109.96 191.25 130.58 159.99 130.61 159.98 131.56 160.55"/><polygon class="cls-4" points="130.61 159.98 130.58 159.99 130.59 159.97 130.61 159.98"/><polygon class="cls-5" points="170.48 183.77 131.56 160.55 132.11 159.73 171.99 183.53 151.36 214.79 151.35 214.8 150.39 214.22 170.48 183.77"/><path class="cls-6" d="M113,188.78l1.25-1.9a2.61,2.61,0,0,1,3.4-.74L113.78,192A2.33,2.33,0,0,1,113,188.78Z"/><path class="cls-6" d="M118.17,181l1.25-1.9a2.6,2.6,0,0,1,3.4-.74l-3.92,5.84A2.33,2.33,0,0,1,118.17,181Z"/><path class="cls-6" d="M123.42,173.07l1.25-1.9a2.6,2.6,0,0,1,3.4-.74l-3.93,5.84A2.33,2.33,0,0,1,123.42,173.07Z"/><path class="cls-6" d="M128.54,165.31l1.25-1.89a2.6,2.6,0,0,1,3.4-.74l-3.92,5.84A2.33,2.33,0,0,1,128.54,165.31Z"/><path class="cls-4" d="M113.78,192l-.09.14a.12.12,0,0,0,0,.17l-.06,0-2.2-1.32,1.47-2.23H113A2.33,2.33,0,0,0,113.78,192Z"/><path class="cls-4" d="M113.94,192.08l-.16-.1,3.93-5.84.11.06.12.07L114,192.12Z"/><path class="cls-4" d="M119.06,184.32l-.16-.1,3.92-5.84.11.07.11.07-3.93,5.84Z"/><path class="cls-4" d="M124.3,176.37l-.16-.1,3.93-5.84.11.06.11.07-3.93,5.84Z"/><path class="cls-4" d="M129.43,168.61l-.16-.1,3.92-5.84.11.07.11.07-3.93,5.84Z"/><path class="cls-4" d="M117.7,186.14l0-.05a.14.14,0,0,1,.18,0,.12.12,0,0,1,0,.17l0,0-.12-.07Z"/><path class="cls-4" d="M122.82,178.39l0-.06a.14.14,0,0,1,.18,0,.12.12,0,0,1,0,.17l0,.05-.11-.07Z"/><path class="cls-4" d="M128.07,170.43l0-.06a.14.14,0,0,1,.18,0,.12.12,0,0,1,0,.17l0,.05-.11-.07Z"/><path class="cls-4" d="M133.19,162.67l0-.05a.13.13,0,0,1,.18,0,.12.12,0,0,1,0,.17l0,0-.11-.07Z"/><path class="cls-4" d="M129.49,168.65l-.09.14a.14.14,0,0,1-.18,0h0a.12.12,0,0,1,0-.17l.09-.14.16.1Z"/><path class="cls-4" d="M124.37,176.41l-.09.13a.13.13,0,0,1-.18,0h0a.12.12,0,0,1,0-.17l.09-.14.16.1Z"/><path class="cls-4" d="M119.12,184.36l-.09.13a.14.14,0,0,1-.18,0h0a.12.12,0,0,1,0-.17l.09-.13.16.1Z"/><path class="cls-4" d="M114,192.12l-.09.13a.13.13,0,0,1-.18,0,.12.12,0,0,1,0-.17l.09-.14.16.1Z"/><path class="cls-6" d="M117.46,194.19,114,192.12l3.93-5.85,3.41,2,.11.07-3.93,5.84Z"/><path class="cls-6" d="M122.58,186.43l-3.46-2.07,3.93-5.84,3.41,2,.11.07-3.93,5.84Z"/><path class="cls-6" d="M127.83,178.47l-3.46-2.06,3.93-5.84,3.41,2,.11.07-3.93,5.84Z"/><path class="cls-6" d="M132.95,170.71l-3.46-2.07,3.93-5.84,3.41,2,.1.06L133,170.75Z"/><path class="cls-4" d="M113.91,192.25l.09-.13,3.46,2.07.05,0-.09.13a.12.12,0,0,0,0,.17l-.05,0-3.74-2.23.06,0A.13.13,0,0,0,113.91,192.25Z"/><path class="cls-4" d="M121.45,188.37l.21.15-3.9,5.81-.24-.12Z"/><path class="cls-4" d="M122.63,186.46l3.93-5.84.21.15-3.9,5.81Z"/><path class="cls-4" d="M127.88,178.5l3.93-5.84.21.15-3.9,5.81Z"/><path class="cls-4" d="M133,170.75l3.93-5.84.21.16-3.9,5.8Z"/><path class="cls-4" d="M133.14,171a.13.13,0,0,1-.18,0h0a.12.12,0,0,1,0-.17l.09-.13.24.12Z"/><path class="cls-4" d="M128,178.77a.13.13,0,0,1-.18,0h0a.12.12,0,0,1,0-.17l.09-.14.24.12Z"/><path class="cls-4" d="M122.77,186.73a.14.14,0,0,1-.18,0h0a.12.12,0,0,1,0-.17l.09-.13.24.12Z"/><path class="cls-4" d="M126.6,180.56a.14.14,0,0,1,.18,0,.12.12,0,0,1,0,.17l0,.08-.21-.15Z"/><path class="cls-4" d="M131.85,172.6a.15.15,0,0,1,.18,0,.12.12,0,0,1,0,.17l0,.07-.21-.15Z"/><path class="cls-4" d="M137,164.85a.15.15,0,0,1,.18,0,.12.12,0,0,1,0,.17l0,.08-.21-.16Z"/><path class="cls-4" d="M121.48,188.32a.14.14,0,0,1,.18,0,.12.12,0,0,1,0,.17l0,.07-.21-.15Z"/><path class="cls-4" d="M117.43,194.35l.09-.13.24.12-.1.15a.13.13,0,0,1-.18,0h0A.12.12,0,0,1,117.43,194.35Z"/><path class="cls-6" d="M122.23,191.61l-1.25,1.9a2.59,2.59,0,0,1-3.22.82l3.9-5.81A2.31,2.31,0,0,1,122.23,191.61Z"/><path class="cls-6" d="M122.87,186.58l3.9-5.81a2.31,2.31,0,0,1,.57,3.08l-1.25,1.9A2.59,2.59,0,0,1,122.87,186.58Z"/><path class="cls-6" d="M128.12,178.62l3.9-5.81a2.31,2.31,0,0,1,.57,3.08l-1.25,1.9A2.59,2.59,0,0,1,128.12,178.62Z"/><path class="cls-6" d="M133.24,170.86l3.9-5.8a2.3,2.3,0,0,1,.57,3.08l-1.25,1.9A2.59,2.59,0,0,1,133.24,170.86Z"/><path class="cls-6" d="M123,194.69l1.25-1.9a2.6,2.6,0,0,1,3.4-.74l-3.93,5.84A2.33,2.33,0,0,1,123,194.69Z"/><path class="cls-6" d="M128.07,186.93l1.25-1.9a2.61,2.61,0,0,1,3.4-.74l-3.92,5.84A2.34,2.34,0,0,1,128.07,186.93Z"/><path class="cls-6" d="M133.32,179l1.25-1.89a2.61,2.61,0,0,1,3.4-.74L134,182.18A2.33,2.33,0,0,1,133.32,179Z"/><path class="cls-6" d="M138.44,171.22l1.25-1.9a2.61,2.61,0,0,1,3.4-.74l-3.92,5.83A2.32,2.32,0,0,1,138.44,171.22Z"/><path class="cls-4" d="M123.84,198l-.16-.1,3.93-5.84.11.06.11.07L123.9,198Z"/><path class="cls-4" d="M129,190.24l-.16-.1,3.92-5.84.11.07.11.07L129,190.27Z"/><path class="cls-4" d="M134.21,182.28l-.16-.1,3.93-5.84.11.07.11.07-3.93,5.85Z"/><path class="cls-4" d="M139.33,174.52l-.16-.11,3.92-5.83.12.06.11.07-3.93,5.84Z"/><path class="cls-4" d="M127.61,192.05l0-.05a.14.14,0,0,1,.18,0,.12.12,0,0,1,0,.17l0,0-.11-.07Z"/><path class="cls-4" d="M132.73,184.29l0-.05a.14.14,0,0,1,.18,0,.13.13,0,0,1,0,.17l0,0-.11-.07Z"/><path class="cls-4" d="M138,176.34l0-.05a.13.13,0,0,1,.18,0,.12.12,0,0,1,0,.17l0,0-.11-.07Z"/><path class="cls-4" d="M143.09,168.58l0-.05a.14.14,0,0,1,.18,0,.13.13,0,0,1,0,.17l0,0-.11-.07Z"/><path class="cls-4" d="M139.39,174.56l-.09.14a.13.13,0,0,1-.18,0h0a.13.13,0,0,1,0-.17l.09-.14.16.11Z"/><path class="cls-4" d="M134.27,182.32l-.09.13a.13.13,0,0,1-.18,0h0a.12.12,0,0,1,0-.17l.09-.14.16.1Z"/><path class="cls-4" d="M129,190.27l-.09.13a.13.13,0,0,1-.18,0h0a.12.12,0,0,1,0-.17l.09-.14.16.1Z"/><path class="cls-4" d="M123.9,198l-.09.13a.13.13,0,0,1-.18,0h0a.12.12,0,0,1,0-.17l.09-.13.16.1Z"/><path class="cls-6" d="M127.37,200.09,123.9,198l3.93-5.85,3.41,2,.1.07-3.93,5.84Z"/><path class="cls-6" d="M132.49,192.34,129,190.27l3.93-5.85,3.41,2,.1.07-3.93,5.84Z"/><path class="cls-6" d="M137.73,184.38l-3.46-2.07,3.93-5.85,3.41,2,.11.06-3.93,5.84Z"/><path class="cls-6" d="M142.85,176.62l-3.46-2.07,3.93-5.84,3.41,2,.11.07-3.93,5.84Z"/><path class="cls-4" d="M123.64,198.2a.13.13,0,0,0,.18,0l.09-.13,3.46,2.06.05,0-.09.13a.12.12,0,0,0,0,.17l-.06,0-3.74-2.23.05,0Z"/><path class="cls-4" d="M131.35,194.28l.21.15-3.9,5.81-.24-.12Z"/><path class="cls-4" d="M132.54,192.37l3.93-5.84a1.45,1.45,0,0,1,.21.16l-3.9,5.8Z"/><path class="cls-4" d="M137.79,184.41l3.93-5.84.21.16-3.9,5.81Z"/><path class="cls-4" d="M142.91,176.65l3.93-5.84.21.16-3.9,5.8Z"/><path class="cls-4" d="M143,176.92a.14.14,0,0,1-.18,0h0a.12.12,0,0,1,0-.17l.09-.14.24.12Z"/><path class="cls-4" d="M137.93,184.68a.14.14,0,0,1-.18,0h0a.12.12,0,0,1,0-.17l.09-.13.24.12Z"/><path class="cls-4" d="M132.68,192.64a.13.13,0,0,1-.18,0h0a.12.12,0,0,1,0-.17l.09-.13.24.11Z"/><path class="cls-4" d="M141.75,178.52a.14.14,0,0,1,.18,0,.12.12,0,0,1,0,.17l0,.07-.21-.16Z"/><path class="cls-4" d="M146.87,170.76a.16.16,0,0,1,.18,0,.13.13,0,0,1,0,.17L147,171l-.21-.16Z"/><path class="cls-4" d="M136.5,186.47a.15.15,0,0,1,.18,0,.12.12,0,0,1,0,.17l0,.07a1.45,1.45,0,0,0-.21-.16Z"/><path class="cls-4" d="M131.38,194.23a.14.14,0,0,1,.18,0,.12.12,0,0,1,0,.17l0,.07-.21-.15Z"/><path class="cls-4" d="M127.33,200.26l.09-.13.24.12-.1.15a.14.14,0,0,1-.18,0h0A.12.12,0,0,1,127.33,200.26Z"/><path class="cls-6" d="M132.13,197.52l-1.25,1.9a2.59,2.59,0,0,1-3.22.82l3.9-5.81A2.31,2.31,0,0,1,132.13,197.52Z"/><path class="cls-6" d="M132.78,192.49l3.9-5.8a2.31,2.31,0,0,1,.57,3.08l-1.25,1.9A2.58,2.58,0,0,1,132.78,192.49Z"/><path class="cls-6" d="M138,184.53l3.9-5.81a2.31,2.31,0,0,1,.57,3.08l-1.25,1.9A2.59,2.59,0,0,1,138,184.53Z"/><path class="cls-6" d="M143.15,176.77,147,171a2.31,2.31,0,0,1,.57,3.08l-1.25,1.89A2.59,2.59,0,0,1,143.15,176.77Z"/><path class="cls-6" d="M132.86,200.6l1.25-1.9a2.61,2.61,0,0,1,3.4-.74l-3.92,5.84A2.33,2.33,0,0,1,132.86,200.6Z"/><path class="cls-6" d="M138,192.84l1.26-1.9a2.61,2.61,0,0,1,3.4-.74L138.71,196A2.33,2.33,0,0,1,138,192.84Z"/><path class="cls-6" d="M143.23,184.89l1.25-1.9a2.61,2.61,0,0,1,3.4-.74L144,188.08A2.32,2.32,0,0,1,143.23,184.89Z"/><path class="cls-6" d="M148.35,177.13l1.25-1.9a2.6,2.6,0,0,1,3.4-.74l-3.92,5.83A2.33,2.33,0,0,1,148.35,177.13Z"/><path class="cls-4" d="M138.87,196.15l-.16-.1,3.93-5.84.12.06.11.07-3.93,5.85Z"/><path class="cls-4" d="M144.12,188.19l-.16-.11,3.92-5.83.12.07.11.07-3.93,5.85Z"/><path class="cls-4" d="M149.24,180.43l-.16-.1,3.92-5.83.12.06.11.07-3.93,5.84Z"/><path class="cls-4" d="M133.75,203.9l-.16-.1,3.92-5.84.11.07.11.07-3.93,5.84Z"/><path class="cls-4" d="M137.51,198l0-.05a.14.14,0,0,1,.18,0,.12.12,0,0,1,0,.17l0,.05-.11-.07Z"/><path class="cls-4" d="M142.63,190.21l0-.05a.14.14,0,0,1,.18,0,.12.12,0,0,1,0,.17l0,0-.11-.07Z"/><path class="cls-4" d="M147.88,182.25l0-.05a.14.14,0,0,1,.18,0,.12.12,0,0,1,0,.17l0,0-.11-.07Z"/><path class="cls-4" d="M153,174.49l0-.06a.14.14,0,0,1,.18,0,.12.12,0,0,1,0,.17l0,.05-.11-.07Z"/><path class="cls-4" d="M149.3,180.47l-.08.13a.14.14,0,0,1-.18,0h0a.12.12,0,0,1,0-.17l.09-.14.16.1Z"/><path class="cls-4" d="M144.18,188.23l-.09.13a.13.13,0,0,1-.18,0h0a.12.12,0,0,1,0-.17l.09-.14.16.11Z"/><path class="cls-4" d="M138.93,196.19l-.09.13a.14.14,0,0,1-.18,0h0a.13.13,0,0,1,0-.17l.09-.13.16.1Z"/><path class="cls-4" d="M133.81,203.94l-.09.13a.14.14,0,0,1-.18,0,.12.12,0,0,1,0-.17l.09-.14.16.1Z"/><path class="cls-6" d="M142.39,198.25l-3.46-2.06,3.93-5.85,3.4,2,.11.07-3.93,5.84Z"/><path class="cls-6" d="M147.64,190.29l-3.46-2.07,3.93-5.85,3.41,2,.11.07-3.93,5.85Z"/><path class="cls-6" d="M152.76,182.53l-3.46-2.07,3.93-5.84,3.41,2,.11.07-3.93,5.84Z"/><path class="cls-6" d="M137.27,206l-3.46-2.07,3.93-5.84,3.41,2,.1.07L137.33,206Z"/><path class="cls-4" d="M133.72,204.07l.09-.13,3.46,2.07.05,0-.09.13a.12.12,0,0,0,0,.17l-.06,0-3.74-2.23.06,0A.14.14,0,0,0,133.72,204.07Z"/><path class="cls-4" d="M142.45,198.28l3.93-5.84.21.15-3.9,5.81Z"/><path class="cls-4" d="M147.69,190.33l3.93-5.85.21.16-3.9,5.81Z"/><path class="cls-4" d="M141.26,200.19l.21.16-3.9,5.81-.24-.12Z"/><path class="cls-4" d="M152.81,182.57l3.93-5.84.21.15-3.9,5.81Z"/><path class="cls-4" d="M147.83,190.59a.13.13,0,0,1-.18,0h0a.13.13,0,0,1,0-.17l.09-.13.24.12Z"/><path class="cls-4" d="M142.58,198.55a.13.13,0,0,1-.18,0h0a.12.12,0,0,1,0-.17l.09-.13.24.12Z"/><path class="cls-4" d="M141.29,200.14a.14.14,0,0,1,.18,0,.12.12,0,0,1,0,.17l0,.07-.21-.16Z"/><path class="cls-4" d="M146.41,192.38a.15.15,0,0,1,.18,0,.12.12,0,0,1,0,.17l0,.07-.21-.15Z"/><path class="cls-4" d="M151.66,184.43a.14.14,0,0,1,.18,0,.12.12,0,0,1,0,.17l0,.07-.21-.16Z"/><path class="cls-4" d="M156.78,176.67a.14.14,0,0,1,.18,0,.12.12,0,0,1,0,.17l-.05.07-.21-.15Z"/><path class="cls-4" d="M152.95,182.83a.13.13,0,0,1-.18,0h0a.11.11,0,0,1,0-.17l.08-.13.24.12Z"/><path class="cls-4" d="M137.24,206.17l.09-.13.24.12-.1.15a.14.14,0,0,1-.18,0h0A.12.12,0,0,1,137.24,206.17Z"/><path class="cls-6" d="M142,203.43l-1.25,1.9a2.59,2.59,0,0,1-3.22.83l3.9-5.81A2.31,2.31,0,0,1,142,203.43Z"/><path class="cls-6" d="M142.69,198.4l3.9-5.81a2.31,2.31,0,0,1,.57,3.08l-1.25,1.9A2.58,2.58,0,0,1,142.69,198.4Z"/><path class="cls-6" d="M147.93,190.44l3.9-5.81a2.31,2.31,0,0,1,.57,3.08l-1.25,1.9A2.59,2.59,0,0,1,147.93,190.44Z"/><path class="cls-6" d="M153.05,182.68l3.9-5.81a2.3,2.3,0,0,1,.57,3.08l-1.25,1.9A2.58,2.58,0,0,1,153.05,182.68Z"/><path class="cls-6" d="M142.77,206.51l1.25-1.9a2.61,2.61,0,0,1,3.4-.74l-3.92,5.83A2.32,2.32,0,0,1,142.77,206.51Z"/><path class="cls-6" d="M147.89,198.76l1.25-1.9a2.61,2.61,0,0,1,3.4-.74L148.61,202A2.33,2.33,0,0,1,147.89,198.76Z"/><path class="cls-6" d="M153.14,190.8l1.25-1.9a2.6,2.6,0,0,1,3.4-.74L153.86,194A2.32,2.32,0,0,1,153.14,190.8Z"/><path class="cls-6" d="M158.26,183l1.25-1.9a2.6,2.6,0,0,1,3.4-.74L159,186.24A2.33,2.33,0,0,1,158.26,183Z"/><path class="cls-4" d="M154,194.1l-.16-.1,3.92-5.84.12.07.11.07-3.93,5.85Z"/><path class="cls-4" d="M159.14,186.34l-.16-.1,3.92-5.84.12.06.11.07-3.93,5.85Z"/><path class="cls-4" d="M148.78,202.06l-.16-.1,3.92-5.84.11.07.11.06-3.93,5.85Z"/><path class="cls-4" d="M143.66,209.81l-.16-.11,3.92-5.83.12.07.11.06-3.93,5.85Z"/><path class="cls-4" d="M162.91,180.4l0-.05a.14.14,0,0,1,.18,0,.13.13,0,0,1,0,.17l0,0-.11-.07Z"/><path class="cls-4" d="M147.42,203.87l0-.05a.14.14,0,0,1,.18,0,.11.11,0,0,1,0,.17l0,0-.11-.06Z"/><path class="cls-4" d="M152.54,196.12l0-.05a.14.14,0,0,1,.18,0,.12.12,0,0,1,0,.17l0,0-.11-.06Z"/><path class="cls-4" d="M157.79,188.16l0-.05a.14.14,0,0,1,.18,0,.12.12,0,0,1,0,.17l0,0-.11-.07Z"/><path class="cls-4" d="M159.2,186.38l-.09.13a.14.14,0,0,1-.18,0s0,0,0,0a.11.11,0,0,1,0-.17l.09-.14.16.1Z"/><path class="cls-4" d="M154.08,194.14l-.09.14a.13.13,0,0,1-.18,0h0a.12.12,0,0,1,0-.17l.09-.14.16.1Z"/><path class="cls-4" d="M148.83,202.1l-.09.13a.13.13,0,0,1-.18,0h0a.12.12,0,0,1,0-.17l.09-.14.16.1Z"/><path class="cls-4" d="M170.48,183.77l-38.92-23.22-18.62,28.22H113l1.25-1.9a2.61,2.61,0,0,1,3.4-.74l0-.05a.14.14,0,0,1,.18,0,.12.12,0,0,1,0,.17l0,0,3.41,2,.11.07,0-.05a.14.14,0,0,1,.18,0,.12.12,0,0,1,0,.17l0,.07a2.31,2.31,0,0,1,.57,3.08l-1.25,1.9a2.59,2.59,0,0,1-3.22.82l-.1.15a.13.13,0,0,1-.18,0h0l-.05,0,6.16,3.68.05,0a.12.12,0,0,1,0-.17l.09-.13a2.33,2.33,0,0,1-.72-3.2l1.25-1.9a2.6,2.6,0,0,1,3.4-.74l0-.05a.14.14,0,0,1,.18,0,.12.12,0,0,1,0,.17l0,0,3.41,2,.1.07,0,0a.14.14,0,0,1,.18,0,.12.12,0,0,1,0,.17l0,.07a2.31,2.31,0,0,1,.57,3.09l-1.25,1.9a2.59,2.59,0,0,1-3.22.82l-.1.15a.14.14,0,0,1-.18,0h0l-.06,0,6.16,3.68.06,0a.12.12,0,0,1,0-.17l.09-.14a2.33,2.33,0,0,1-.73-3.2l1.25-1.9a2.61,2.61,0,0,1,3.4-.74l0-.05a.14.14,0,0,1,.18,0,.12.12,0,0,1,0,.17l0,.05,3.41,2,.1.07,0,0a.14.14,0,0,1,.18,0,.12.12,0,0,1,0,.17l0,.07a2.31,2.31,0,0,1,.57,3.08l-1.25,1.9a2.59,2.59,0,0,1-3.22.83l-.1.15a.14.14,0,0,1-.18,0h0l-.06,0,6.16,3.68.05,0a.12.12,0,0,1,0-.17l.09-.14a2.32,2.32,0,0,1-.73-3.2l1.25-1.9a2.61,2.61,0,0,1,3.4-.74l0-.05a.14.14,0,0,1,.18,0,.11.11,0,0,1,0,.17l0,0,3.41,2,.11.07,0-.05a.15.15,0,0,1,.18,0,.12.12,0,0,1,0,.17l0,.07a2.31,2.31,0,0,1,.57,3.08l-1.25,1.9a2.58,2.58,0,0,1-3.22.83l-.1.15a.13.13,0,0,1-.18,0h0l-.05,0,3.26,1.94Zm-34-13.74a2.59,2.59,0,0,1-3.22.83l-.1.15a.13.13,0,0,1-.18,0h0a.12.12,0,0,1,0-.17l.09-.13-.05,0-3.46-2.07-.09.14a.14.14,0,0,1-.18,0h0a.12.12,0,0,1,0-.17l.09-.14a2.33,2.33,0,0,1-.72-3.2l1.25-1.89a2.6,2.6,0,0,1,3.4-.74l0-.05a.13.13,0,0,1,.18,0,.12.12,0,0,1,0,.17l0,0,3.41,2,.1.06,0-.05a.15.15,0,0,1,.18,0,.12.12,0,0,1,0,.17l0,.08a2.3,2.3,0,0,1,.57,3.08Zm-5.12,7.76a2.59,2.59,0,0,1-3.22.83l-.1.15a.13.13,0,0,1-.18,0h0a.12.12,0,0,1,0-.17l.09-.14-.05,0-3.46-2.06-.09.13a.13.13,0,0,1-.18,0h0a.12.12,0,0,1,0-.17l.09-.14a2.33,2.33,0,0,1-.73-3.2l1.25-1.9a2.6,2.6,0,0,1,3.4-.74l0-.06a.14.14,0,0,1,.18,0,.12.12,0,0,1,0,.17l0,.05,3.41,2,.11.07,0-.06a.15.15,0,0,1,.18,0,.12.12,0,0,1,0,.17l0,.07a2.31,2.31,0,0,1,.57,3.08Zm-5.25,8a2.59,2.59,0,0,1-3.22.83l-.1.15a.14.14,0,0,1-.18,0h0a.12.12,0,0,1,0-.17l.09-.13-.05,0-3.46-2.07-.09.13a.14.14,0,0,1-.18,0h0a.12.12,0,0,1,0-.17l.09-.13a2.33,2.33,0,0,1-.73-3.2l1.25-1.9a2.6,2.6,0,0,1,3.4-.74l0-.06a.14.14,0,0,1,.18,0,.12.12,0,0,1,0,.17l0,.05,3.41,2,.11.07,0-.05a.14.14,0,0,1,.18,0,.12.12,0,0,1,0,.17l0,.08a2.31,2.31,0,0,1,.57,3.08Zm20.27-9.81a2.59,2.59,0,0,1-3.22.83l-.1.15a.14.14,0,0,1-.18,0h0a.12.12,0,0,1,0-.17l.09-.14-.05,0-3.46-2.07-.09.14a.13.13,0,0,1-.18,0h0a.13.13,0,0,1,0-.17l.09-.14a2.32,2.32,0,0,1-.73-3.2l1.25-1.9a2.61,2.61,0,0,1,3.4-.74l0-.05a.14.14,0,0,1,.18,0,.13.13,0,0,1,0,.17l0,0,3.41,2,.11.07,0-.06a.16.16,0,0,1,.18,0,.13.13,0,0,1,0,.17L147,171a2.31,2.31,0,0,1,.57,3.08Zm-5.12,7.76a2.59,2.59,0,0,1-3.22.83l-.1.15a.14.14,0,0,1-.18,0h0a.12.12,0,0,1,0-.17l.09-.13-.05,0-3.46-2.07-.09.13a.13.13,0,0,1-.18,0h0a.12.12,0,0,1,0-.17l.09-.14a2.33,2.33,0,0,1-.73-3.2l1.25-1.89a2.61,2.61,0,0,1,3.4-.74l0-.05a.13.13,0,0,1,.18,0,.12.12,0,0,1,0,.17l0,0,3.41,2,.11.06,0-.05a.14.14,0,0,1,.18,0,.12.12,0,0,1,0,.17l0,.07a2.31,2.31,0,0,1,.57,3.08Zm-5.25,8a2.58,2.58,0,0,1-3.22.82l-.1.15a.13.13,0,0,1-.18,0h0a.12.12,0,0,1,0-.17l.09-.13-.05,0L129,190.27l-.09.13a.13.13,0,0,1-.18,0h0a.12.12,0,0,1,0-.17l.09-.14a2.34,2.34,0,0,1-.73-3.2l1.25-1.9a2.61,2.61,0,0,1,3.4-.74l0-.05a.14.14,0,0,1,.18,0,.13.13,0,0,1,0,.17l0,0,3.41,2,.1.07,0-.05a.15.15,0,0,1,.18,0,.12.12,0,0,1,0,.17l0,.07a2.31,2.31,0,0,1,.57,3.08Zm20.27-9.81a2.58,2.58,0,0,1-3.22.83l-.1.15a.13.13,0,0,1-.18,0h0a.11.11,0,0,1,0-.17l.08-.13-.06,0-3.46-2.07-.08.13a.14.14,0,0,1-.18,0h0a.12.12,0,0,1,0-.17l.09-.14a2.33,2.33,0,0,1-.73-3.2l1.25-1.9a2.6,2.6,0,0,1,3.4-.74l0-.06a.14.14,0,0,1,.18,0,.12.12,0,0,1,0,.17l0,.05,3.41,2,.11.07,0-.06a.14.14,0,0,1,.18,0,.12.12,0,0,1,0,.17l-.05.07a2.3,2.3,0,0,1,.57,3.08Zm-5.12,7.76a2.59,2.59,0,0,1-3.22.83l-.1.15a.13.13,0,0,1-.18,0h0a.13.13,0,0,1,0-.17l.09-.13-.05,0-3.46-2.07-.09.13a.13.13,0,0,1-.18,0h0a.12.12,0,0,1,0-.17l.09-.14a2.32,2.32,0,0,1-.72-3.2l1.25-1.9a2.61,2.61,0,0,1,3.4-.74l0-.05a.14.14,0,0,1,.18,0,.12.12,0,0,1,0,.17l0,0,3.41,2,.11.07,0,0a.14.14,0,0,1,.18,0,.12.12,0,0,1,0,.17l0,.07a2.31,2.31,0,0,1,.57,3.08Zm-5.25,8a2.58,2.58,0,0,1-3.22.83l-.1.15a.13.13,0,0,1-.18,0h0a.12.12,0,0,1,0-.17l.09-.13-.06,0-3.46-2.06-.09.13a.14.14,0,0,1-.18,0h0a.13.13,0,0,1,0-.17l.09-.13a2.33,2.33,0,0,1-.73-3.2l1.26-1.9a2.61,2.61,0,0,1,3.4-.74l0-.05a.14.14,0,0,1,.18,0,.12.12,0,0,1,0,.17l0,0,3.4,2,.11.07,0-.05a.15.15,0,0,1,.18,0,.12.12,0,0,1,0,.17l0,.07a2.31,2.31,0,0,1,.57,3.08Zm20.28-9.8a2.59,2.59,0,0,1-3.22.83l-.1.15a.14.14,0,0,1-.18,0h0a.11.11,0,0,1,0-.17l.09-.13-.06,0-3.46-2.07-.09.13a.14.14,0,0,1-.18,0s0,0,0,0a.11.11,0,0,1,0-.17l.09-.14a2.33,2.33,0,0,1-.72-3.2l1.25-1.9a2.6,2.6,0,0,1,3.4-.74l0-.05a.14.14,0,0,1,.18,0,.13.13,0,0,1,0,.17l0,0,3.41,2,.11.07,0-.05a.14.14,0,0,1,.18,0,.12.12,0,0,1,0,.17l0,.07a2.32,2.32,0,0,1,.57,3.08Zm-5.12,7.75a2.58,2.58,0,0,1-3.22.83l-.1.15a.13.13,0,0,1-.18,0h0a.12.12,0,0,1,0-.17l.09-.13-.06,0-3.46-2.07-.09.14a.13.13,0,0,1-.18,0h0a.12.12,0,0,1,0-.17l.09-.14a2.32,2.32,0,0,1-.73-3.2l1.25-1.9a2.6,2.6,0,0,1,3.4-.74l0-.05a.14.14,0,0,1,.18,0,.12.12,0,0,1,0,.17l0,0,3.41,2,.1.06,0-.05a.15.15,0,0,1,.18,0,.12.12,0,0,1,0,.17l0,.07a2.31,2.31,0,0,1,.57,3.08Zm-5.25,8a2.59,2.59,0,0,1-3.22.83l-.1.15a.14.14,0,0,1-.18,0h0a.12.12,0,0,1,0-.17l.09-.14-.05,0-3.47-2.06-.09.13a.13.13,0,0,1-.18,0h0a.12.12,0,0,1,0-.17l.09-.14a2.33,2.33,0,0,1-.73-3.2l1.25-1.9a2.61,2.61,0,0,1,3.4-.74l0-.05a.14.14,0,0,1,.18,0,.12.12,0,0,1,0,.17l0,0,3.41,2,.11.07,0-.05a.15.15,0,0,1,.18,0,.12.12,0,0,1,0,.17l0,.07a2.31,2.31,0,0,1,.57,3.08Z"/><path class="cls-4" d="M143.72,209.85l-.09.14a.13.13,0,0,1-.18,0h0a.12.12,0,0,1,0-.17l.09-.14.16.11Z"/><path class="cls-6" d="M157.55,196.2l-3.46-2.07,3.93-5.85,3.41,2,.1.06-3.93,5.84Z"/><path class="cls-6" d="M162.66,188.45l-3.46-2.07,3.93-5.85,3.41,2,.11.07-3.93,5.84Z"/><path class="cls-6" d="M152.3,204.16l-3.47-2.06,3.93-5.85,3.41,2,.11.07-3.93,5.84Z"/><path class="cls-6" d="M147.18,211.92l-3.46-2.07,3.93-5.85,3.41,2,.11.07-3.93,5.84Z"/><path class="cls-4" d="M143.45,210a.13.13,0,0,0,.18,0l.09-.14,3.46,2.07.05,0-.09.13a.12.12,0,0,0,0,.17l-.05,0L143.39,210l.05,0Z"/><path class="cls-4" d="M151.16,206.11l.21.16-3.9,5.8-.24-.12Z"/><path class="cls-4" d="M152.35,204.19l3.93-5.84.21.16-3.9,5.81Z"/><path class="cls-4" d="M157.6,196.23l3.93-5.84.21.16-3.9,5.81Z"/><path class="cls-4" d="M162.72,188.48l3.93-5.84.21.15L163,188.6Z"/><path class="cls-4" d="M152.49,204.46a.14.14,0,0,1-.18,0h0a.12.12,0,0,1,0-.17l.09-.14.24.12Z"/><path class="cls-4" d="M162.86,188.74a.14.14,0,0,1-.18,0h0a.11.11,0,0,1,0-.17l.09-.13.24.12Z"/><path class="cls-4" d="M157.74,196.5a.13.13,0,0,1-.18,0h0a.12.12,0,0,1,0-.17l.09-.13.24.12Z"/><path class="cls-4" d="M166.68,182.58a.14.14,0,0,1,.18,0,.12.12,0,0,1,0,.17l0,.07-.21-.15Z"/><path class="cls-4" d="M161.56,190.34a.15.15,0,0,1,.18,0,.12.12,0,0,1,0,.17l0,.07-.21-.16Z"/><path class="cls-4" d="M156.31,198.29a.15.15,0,0,1,.18,0,.12.12,0,0,1,0,.17l0,.07-.21-.16Z"/><path class="cls-4" d="M151.2,206.05a.15.15,0,0,1,.18,0,.12.12,0,0,1,0,.17l0,.07-.21-.16Z"/><path class="cls-4" d="M147.15,212.08l.09-.13.24.12-.1.15a.13.13,0,0,1-.18,0h0A.12.12,0,0,1,147.15,212.08Z"/><path class="cls-6" d="M152.59,204.31l3.9-5.81a2.31,2.31,0,0,1,.57,3.08l-1.25,1.9A2.59,2.59,0,0,1,152.59,204.31Z"/><path class="cls-6" d="M157.84,196.35l3.9-5.81a2.31,2.31,0,0,1,.57,3.08l-1.25,1.9A2.58,2.58,0,0,1,157.84,196.35Z"/><path class="cls-6" d="M163,188.6l3.9-5.81a2.32,2.32,0,0,1,.57,3.08l-1.25,1.9A2.59,2.59,0,0,1,163,188.6Z"/><path class="cls-6" d="M151.95,209.34l-1.25,1.9a2.58,2.58,0,0,1-3.22.83l3.9-5.8A2.31,2.31,0,0,1,151.95,209.34Z"/><polygon class="cls-4" points="149.85 215.05 149.83 215.04 149.85 215.04 149.85 215.05"/><polygon class="cls-5" points="151.36 214.8 151.35 214.8 151.36 214.79 151.36 214.8"/><polygon class="cls-4" points="48.79 245.96 2.12 219.01 0 217.79 30.07 200.43 78.86 228.6 76.74 229.83 48.79 245.96"/><polygon class="cls-5" points="29.24 180.6 29.25 180.57 29.27 180.59 29.92 180.96 49.66 192.36 57.5 235.36 57.71 236.51 57.71 236.52 57.7 236.51 21.49 215.6 29.24 180.6"/><polygon class="cls-5" points="49.66 192.36 29.92 180.96 29.27 180.59 30.12 180.05 30.12 180.05 30.13 180.05 50.54 191.83 58.58 235.98 58.58 235.99 58.57 235.99 57.71 236.51 57.5 235.36 49.66 192.36"/><polygon class="cls-5" points="37.54 162.39 39.04 162.14 38.49 162.96 37.54 162.39"/><polygon class="cls-5" points="58.28 217.21 56.79 217.44 57.32 216.63 58.28 217.21"/><polygon class="cls-4" points="38.49 162.96 19.88 191.18 18.4 193.41 20.61 194.72 24.35 196.96 30.51 200.63 34.25 202.87 40.42 206.55 44.16 208.78 50.32 212.45 54.06 214.69 57.32 216.63 56.79 217.44 56.77 217.44 16.89 193.65 37.51 162.39 37.54 162.39 38.49 162.96"/><polygon class="cls-4" points="37.54 162.39 37.51 162.39 37.52 162.38 37.54 162.39"/><polygon class="cls-5" points="77.41 186.18 38.49 162.96 39.04 162.14 78.92 185.94 58.29 217.2 58.28 217.21 57.32 216.63 77.41 186.18"/><path class="cls-6" d="M20,191.19l1.25-1.9a2.61,2.61,0,0,1,3.4-.74l-3.92,5.84A2.33,2.33,0,0,1,20,191.19Z"/><path class="cls-6" d="M25.1,183.43l1.25-1.89a2.61,2.61,0,0,1,3.4-.74l-3.92,5.84A2.33,2.33,0,0,1,25.1,183.43Z"/><path class="cls-6" d="M30.35,175.48l1.25-1.9a2.61,2.61,0,0,1,3.4-.74l-3.92,5.84A2.34,2.34,0,0,1,30.35,175.48Z"/><path class="cls-6" d="M35.47,167.71l1.25-1.9a2.61,2.61,0,0,1,3.4-.74l-3.92,5.84A2.33,2.33,0,0,1,35.47,167.71Z"/><path class="cls-4" d="M20.71,194.39l-.09.13a.12.12,0,0,0,0,.17l-.06,0-2.2-1.31,1.47-2.23H20A2.33,2.33,0,0,0,20.71,194.39Z"/><path class="cls-4" d="M20.87,194.49l-.16-.1,3.92-5.84.11.06.11.07-3.93,5.85Z"/><path class="cls-4" d="M26,186.73l-.16-.1,3.92-5.84.11.07.11.07L26,186.77Z"/><path class="cls-4" d="M31.24,178.77l-.16-.1L35,172.84l.11.06.11.07-3.93,5.84Z"/><path class="cls-4" d="M36.36,171l-.16-.1,3.92-5.84.11.07.11.07-3.93,5.84Z"/><path class="cls-4" d="M24.63,188.55l0-.05a.14.14,0,0,1,.18,0,.12.12,0,0,1,0,.17l0,0-.11-.07Z"/><path class="cls-4" d="M29.75,180.79l0-.05a.14.14,0,0,1,.18,0,.12.12,0,0,1,0,.17l0,.05-.11-.07Z"/><path class="cls-4" d="M35,172.84l0-.06a.13.13,0,0,1,.18,0,.12.12,0,0,1,0,.17l0,.05-.11-.07Z"/><path class="cls-4" d="M40.12,165.08l0-.05a.14.14,0,0,1,.18,0,.12.12,0,0,1,0,.17l0,0-.11-.07Z"/><path class="cls-4" d="M36.42,171.05l-.09.14a.13.13,0,0,1-.18,0h0a.12.12,0,0,1,0-.17l.09-.14.16.1Z"/><path class="cls-4" d="M31.3,178.81l-.09.14a.13.13,0,0,1-.18,0h0a.12.12,0,0,1,0-.17l.09-.14.16.1Z"/><path class="cls-4" d="M26,186.77l-.09.13a.14.14,0,0,1-.18,0h0a.12.12,0,0,1,0-.17l.09-.14.16.1Z"/><path class="cls-4" d="M20.93,194.53l-.09.13a.14.14,0,0,1-.18,0,.12.12,0,0,1,0-.17l.09-.13.16.1Z"/><path class="cls-6" d="M24.39,196.59l-3.46-2.07,3.93-5.85,3.41,2,.11.07-3.93,5.84Z"/><path class="cls-6" d="M29.51,188.84,26,186.77,30,180.92l3.41,2,.11.07-3.93,5.84Z"/><path class="cls-6" d="M34.76,180.88l-3.46-2.07L35.23,173l3.41,2,.1.07-3.93,5.84Z"/><path class="cls-6" d="M39.88,173.12l-3.46-2.07,3.93-5.84,3.41,2,.11.06-3.93,5.84Z"/><path class="cls-4" d="M20.84,194.66l.09-.13,3.46,2.07.05,0-.09.13a.12.12,0,0,0,0,.17l-.06,0-3.74-2.23.06,0A.14.14,0,0,0,20.84,194.66Z"/><path class="cls-4" d="M28.38,190.78l.21.15-3.9,5.81-.24-.12Z"/><path class="cls-4" d="M29.57,188.87,33.5,183l.21.15L29.81,189Z"/><path class="cls-4" d="M34.81,180.91l3.93-5.84.21.15L35.06,181Z"/><path class="cls-4" d="M39.93,173.15l3.93-5.84.21.16-3.9,5.8Z"/><path class="cls-4" d="M40.07,173.42a.13.13,0,0,1-.18,0h0a.12.12,0,0,1,0-.17l.09-.13.24.12Z"/><path class="cls-4" d="M35,181.17a.13.13,0,0,1-.18,0h0a.12.12,0,0,1,0-.17l.09-.14.24.12Z"/><path class="cls-4" d="M29.7,189.13a.13.13,0,0,1-.18,0h0a.12.12,0,0,1,0-.17l.09-.13.24.12Z"/><path class="cls-4" d="M33.53,183a.14.14,0,0,1,.18,0,.12.12,0,0,1,0,.17l0,.07L33.5,183Z"/><path class="cls-4" d="M38.78,175a.15.15,0,0,1,.18,0,.11.11,0,0,1,0,.17l0,.07-.21-.15Z"/><path class="cls-4" d="M43.9,167.26a.15.15,0,0,1,.18,0,.12.12,0,0,1,0,.17l0,.07-.21-.16Z"/><path class="cls-4" d="M28.41,190.73a.14.14,0,0,1,.18,0,.12.12,0,0,1,0,.17l0,.07-.21-.15Z"/><path class="cls-4" d="M24.36,196.76l.09-.13.24.12-.1.15a.13.13,0,0,1-.18,0h0A.12.12,0,0,1,24.36,196.76Z"/><path class="cls-6" d="M29.16,194l-1.25,1.9a2.59,2.59,0,0,1-3.22.82l3.9-5.81A2.32,2.32,0,0,1,29.16,194Z"/><path class="cls-6" d="M29.81,189l3.9-5.81a2.31,2.31,0,0,1,.57,3.08L33,188.16A2.6,2.6,0,0,1,29.81,189Z"/><path class="cls-6" d="M35.06,181l3.9-5.81a2.31,2.31,0,0,1,.57,3.08l-1.25,1.9A2.59,2.59,0,0,1,35.06,181Z"/><path class="cls-6" d="M40.17,173.27l3.9-5.8a2.31,2.31,0,0,1,.57,3.08l-1.25,1.89A2.59,2.59,0,0,1,40.17,173.27Z"/><path class="cls-6" d="M29.89,197.1l1.25-1.9a2.61,2.61,0,0,1,3.4-.74l-3.93,5.84A2.33,2.33,0,0,1,29.89,197.1Z"/><path class="cls-6" d="M35,189.34l1.25-1.9a2.61,2.61,0,0,1,3.4-.74l-3.92,5.84A2.33,2.33,0,0,1,35,189.34Z"/><path class="cls-6" d="M40.26,181.38l1.25-1.89a2.61,2.61,0,0,1,3.4-.74L41,184.58A2.33,2.33,0,0,1,40.26,181.38Z"/><path class="cls-6" d="M45.38,173.62l1.25-1.9A2.6,2.6,0,0,1,50,171l-3.92,5.83A2.33,2.33,0,0,1,45.38,173.62Z"/><path class="cls-4" d="M30.77,200.4l-.16-.1,3.93-5.84.11.06.11.07-3.93,5.85Z"/><path class="cls-4" d="M35.9,192.64l-.16-.1,3.92-5.84.11.07.11.07L36,192.68Z"/><path class="cls-4" d="M41.14,184.69l-.16-.1,3.93-5.84.12.07.11.06-3.93,5.85Z"/><path class="cls-4" d="M46.27,176.93l-.16-.1L50,171l.12.06.11.07L46.33,177Z"/><path class="cls-4" d="M34.54,194.46l0-.06a.15.15,0,0,1,.18,0,.12.12,0,0,1,0,.17l0,0-.11-.07Z"/><path class="cls-4" d="M39.66,186.7l0-.05a.14.14,0,0,1,.18,0,.13.13,0,0,1,0,.17l0,0-.11-.07Z"/><path class="cls-4" d="M44.91,178.74l0-.05a.14.14,0,0,1,.18,0,.12.12,0,0,1,0,.17l0,0-.11-.06Z"/><path class="cls-4" d="M50,171l0-.06a.14.14,0,0,1,.18,0,.13.13,0,0,1,0,.17l0,.05-.11-.07Z"/><path class="cls-4" d="M46.33,177l-.09.14a.13.13,0,0,1-.18,0h0a.12.12,0,0,1,0-.17l.09-.14.16.1Z"/><path class="cls-4" d="M41.2,184.72l-.09.13a.13.13,0,0,1-.18,0h0a.12.12,0,0,1,0-.17l.09-.14.16.1Z"/><path class="cls-4" d="M36,192.68l-.09.13a.14.14,0,0,1-.18,0h0a.12.12,0,0,1,0-.17l.09-.13.16.1Z"/><path class="cls-4" d="M30.84,200.44l-.09.13a.13.13,0,0,1-.18,0h0a.13.13,0,0,1,0-.17l.09-.13.16.1Z"/><path class="cls-6" d="M34.3,202.5l-3.46-2.06,3.93-5.85,3.41,2,.11.07-3.93,5.84Z"/><path class="cls-6" d="M39.42,194.74,36,192.68l3.93-5.85,3.41,2,.1.07-3.93,5.84Z"/><path class="cls-6" d="M44.67,186.79l-3.46-2.07,3.93-5.85,3.41,2,.11.07-3.93,5.84Z"/><path class="cls-6" d="M49.79,179,46.33,177l3.93-5.84,3.41,2,.1.07-3.93,5.84Z"/><path class="cls-4" d="M30.57,200.6a.13.13,0,0,0,.18,0l.09-.13,3.46,2.06.05,0-.08.13a.12.12,0,0,0,0,.17l-.06,0-3.74-2.23.05,0Z"/><path class="cls-4" d="M38.28,196.69l.21.16-3.9,5.81-.24-.12Z"/><path class="cls-4" d="M39.47,194.78l3.93-5.84.21.15-3.9,5.81Z"/><path class="cls-4" d="M44.72,186.82,48.65,181l.21.16L45,186.94Z"/><path class="cls-4" d="M49.84,179.06l3.93-5.84.21.15-3.9,5.81Z"/><path class="cls-4" d="M50,179.33a.14.14,0,0,1-.18,0h0a.12.12,0,0,1,0-.17l.09-.14.24.12Z"/><path class="cls-4" d="M44.86,187.09a.13.13,0,0,1-.18,0h0a.12.12,0,0,1,0-.17l.09-.13.24.12Z"/><path class="cls-4" d="M39.61,195a.13.13,0,0,1-.18,0h0a.12.12,0,0,1,0-.17l.09-.13.24.12Z"/><path class="cls-4" d="M48.69,180.92a.14.14,0,0,1,.18,0,.12.12,0,0,1,0,.17l0,.07-.21-.16Z"/><path class="cls-4" d="M53.8,173.16a.16.16,0,0,1,.18,0,.13.13,0,0,1,0,.17l0,.07-.21-.15Z"/><path class="cls-4" d="M43.44,188.88a.15.15,0,0,1,.18,0,.12.12,0,0,1,0,.17l0,.07-.21-.15Z"/><path class="cls-4" d="M38.32,196.64a.15.15,0,0,1,.18,0,.12.12,0,0,1,0,.17l0,.07-.21-.16Z"/><path class="cls-4" d="M34.27,202.67l.08-.13.24.12-.1.15a.13.13,0,0,1-.18,0h0A.12.12,0,0,1,34.27,202.67Z"/><path class="cls-6" d="M39.07,199.93l-1.25,1.9a2.58,2.58,0,0,1-3.22.83l3.9-5.81A2.32,2.32,0,0,1,39.07,199.93Z"/><path class="cls-6" d="M39.71,194.89l3.9-5.81a2.32,2.32,0,0,1,.57,3.08l-1.25,1.9A2.59,2.59,0,0,1,39.71,194.89Z"/><path class="cls-6" d="M45,186.94l3.9-5.81a2.31,2.31,0,0,1,.57,3.08l-1.25,1.9A2.59,2.59,0,0,1,45,186.94Z"/><path class="cls-6" d="M50.08,179.18l3.9-5.81a2.31,2.31,0,0,1,.57,3.08l-1.25,1.89A2.59,2.59,0,0,1,50.08,179.18Z"/><path class="cls-6" d="M39.79,203l1.25-1.9a2.61,2.61,0,0,1,3.4-.74l-3.92,5.84A2.33,2.33,0,0,1,39.79,203Z"/><path class="cls-6" d="M44.91,195.25l1.26-1.9a2.6,2.6,0,0,1,3.39-.74l-3.92,5.84A2.33,2.33,0,0,1,44.91,195.25Z"/><path class="cls-6" d="M50.16,187.29l1.25-1.9a2.61,2.61,0,0,1,3.4-.74l-3.92,5.84A2.32,2.32,0,0,1,50.16,187.29Z"/><path class="cls-6" d="M55.28,179.53l1.25-1.9a2.6,2.6,0,0,1,3.39-.74L56,182.73A2.32,2.32,0,0,1,55.28,179.53Z"/><path class="cls-4" d="M45.8,198.55l-.16-.1,3.92-5.84.12.07.11.07-3.93,5.85Z"/><path class="cls-4" d="M51.05,190.6l-.16-.11,3.92-5.84.12.07.11.07-3.93,5.85Z"/><path class="cls-4" d="M56.17,182.84l-.16-.11,3.92-5.83L60,177l.11.07-3.93,5.85Z"/><path class="cls-4" d="M40.68,206.31l-.16-.11,3.92-5.84.11.06.11.07-3.93,5.84Z"/><path class="cls-4" d="M44.45,200.37l0-.05a.14.14,0,0,1,.18,0,.12.12,0,0,1,0,.17l0,0-.11-.07Z"/><path class="cls-4" d="M49.56,192.61l0-.05a.14.14,0,0,1,.18,0,.12.12,0,0,1,0,.17l0,0-.11-.07Z"/><path class="cls-4" d="M54.81,184.65l0-.05a.14.14,0,0,1,.18,0,.12.12,0,0,1,0,.17l0,0-.11-.07Z"/><path class="cls-4" d="M59.93,176.9l0-.06a.14.14,0,0,1,.18,0,.12.12,0,0,1,0,.17l0,0L60,177Z"/><path class="cls-4" d="M56.23,182.88l-.09.13a.14.14,0,0,1-.18,0h0a.12.12,0,0,1,0-.17l.09-.14.16.11Z"/><path class="cls-4" d="M51.11,190.63l-.09.14a.13.13,0,0,1-.18,0h0a.12.12,0,0,1,0-.17l.09-.14.16.11Z"/><path class="cls-4" d="M45.86,198.59l-.09.13a.13.13,0,0,1-.18,0h0a.12.12,0,0,1,0-.17l.09-.13.16.1Z"/><path class="cls-4" d="M40.75,206.35l-.09.13a.14.14,0,0,1-.18,0,.12.12,0,0,1,0-.17l.09-.14.16.11Z"/><path class="cls-6" d="M49.32,200.65l-3.46-2.06,3.93-5.85,3.41,2,.1.07-3.93,5.84Z"/><path class="cls-6" d="M54.57,192.7l-3.46-2.07L55,184.78l3.41,2,.1.06-3.93,5.85Z"/><path class="cls-6" d="M59.69,184.94l-3.46-2.07L60.16,177l3.41,2,.11.07L59.75,185Z"/><path class="cls-6" d="M44.21,208.41l-3.46-2.07,3.93-5.84,3.41,2,.11.07-3.93,5.84Z"/><path class="cls-4" d="M40.66,206.48l.09-.13,3.46,2.07.05,0-.09.13a.12.12,0,0,0,0,.17l-.06,0-3.74-2.23.06,0A.14.14,0,0,0,40.66,206.48Z"/><path class="cls-4" d="M49.38,200.69l3.93-5.84.21.16-3.9,5.81Z"/><path class="cls-4" d="M54.63,192.73l3.93-5.85.21.16-3.9,5.81Z"/><path class="cls-4" d="M48.19,202.6l.21.16-3.9,5.81-.24-.12Z"/><path class="cls-4" d="M59.75,185l3.93-5.84.21.15-3.9,5.8Z"/><path class="cls-4" d="M54.77,193a.13.13,0,0,1-.18,0h0a.12.12,0,0,1,0-.17l.09-.13.24.12Z"/><path class="cls-4" d="M49.52,201a.13.13,0,0,1-.18,0h0a.12.12,0,0,1,0-.17l.09-.13.24.12Z"/><path class="cls-4" d="M48.22,202.55a.14.14,0,0,1,.18,0,.11.11,0,0,1,0,.17l0,.07-.21-.16Z"/><path class="cls-4" d="M53.34,194.79a.15.15,0,0,1,.18,0,.12.12,0,0,1,0,.17l0,.07-.21-.16Z"/><path class="cls-4" d="M58.59,186.83a.14.14,0,0,1,.18,0,.12.12,0,0,1,0,.17l0,.07-.21-.16Z"/><path class="cls-4" d="M63.71,179.08a.15.15,0,0,1,.18,0,.12.12,0,0,1,0,.17l0,.07-.21-.15Z"/><path class="cls-4" d="M59.88,185.24a.13.13,0,0,1-.18,0h0a.11.11,0,0,1,0-.17l.09-.13.24.11Z"/><path class="cls-4" d="M44.17,208.58l.09-.13.24.12-.1.15a.13.13,0,0,1-.18,0h0A.12.12,0,0,1,44.17,208.58Z"/><path class="cls-6" d="M49,205.84l-1.25,1.9a2.59,2.59,0,0,1-3.22.83l3.9-5.81A2.31,2.31,0,0,1,49,205.84Z"/><path class="cls-6" d="M49.62,200.81l3.9-5.81a2.31,2.31,0,0,1,.57,3.08L52.84,200A2.59,2.59,0,0,1,49.62,200.81Z"/><path class="cls-6" d="M54.87,192.85l3.9-5.81a2.31,2.31,0,0,1,.57,3.08L58.09,192A2.59,2.59,0,0,1,54.87,192.85Z"/><path class="cls-6" d="M60,185.09l3.9-5.8a2.3,2.3,0,0,1,.57,3.08l-1.25,1.9A2.58,2.58,0,0,1,60,185.09Z"/><path class="cls-6" d="M49.7,208.92,51,207a2.61,2.61,0,0,1,3.4-.74l-3.92,5.83A2.33,2.33,0,0,1,49.7,208.92Z"/><path class="cls-6" d="M54.82,201.16l1.25-1.9a2.61,2.61,0,0,1,3.4-.74l-3.93,5.84A2.33,2.33,0,0,1,54.82,201.16Z"/><path class="cls-6" d="M60.07,193.2l1.25-1.9a2.61,2.61,0,0,1,3.4-.74l-3.92,5.84A2.33,2.33,0,0,1,60.07,193.2Z"/><path class="cls-6" d="M65.19,185.45l1.25-1.9a2.6,2.6,0,0,1,3.4-.74l-3.92,5.84A2.33,2.33,0,0,1,65.19,185.45Z"/><path class="cls-4" d="M61,196.51l-.16-.1,3.92-5.84.12.07.11.06L61,196.54Z"/><path class="cls-4" d="M66.08,188.75l-.16-.1,3.92-5.84.12.06.11.07-3.93,5.85Z"/><path class="cls-4" d="M55.71,204.46l-.16-.1,3.93-5.84.11.07.11.07-3.93,5.85Z"/><path class="cls-4" d="M50.59,212.22l-.17-.1,3.92-5.83.12.07.11.07-3.93,5.84Z"/><path class="cls-4" d="M69.84,182.81l0-.05a.14.14,0,0,1,.18,0,.13.13,0,0,1,0,.17l0,0-.11-.07Z"/><path class="cls-4" d="M54.35,206.28l0-.05a.14.14,0,0,1,.18,0,.12.12,0,0,1,0,.17l0,0-.11-.07Z"/><path class="cls-4" d="M59.47,198.52l0-.05a.13.13,0,0,1,.18,0,.12.12,0,0,1,0,.17l0,0-.11-.07Z"/><path class="cls-4" d="M64.72,190.56l0-.05a.13.13,0,0,1,.18,0,.12.12,0,0,1,0,.17l0,0-.11-.06Z"/><path class="cls-4" d="M66.13,188.79l-.09.13a.14.14,0,0,1-.18,0h0a.12.12,0,0,1,0-.17l.09-.14.16.1Z"/><path class="cls-4" d="M61,196.54l-.09.13a.13.13,0,0,1-.18,0h0a.12.12,0,0,1,0-.17l.09-.14.16.1Z"/><path class="cls-4" d="M55.77,204.5l-.09.13a.13.13,0,0,1-.18,0h0a.12.12,0,0,1,0-.17l.09-.14.16.1Z"/><path class="cls-4" d="M77.41,186.18,38.49,163,19.88,191.18H20l1.25-1.9a2.61,2.61,0,0,1,3.4-.74l0-.05a.14.14,0,0,1,.18,0,.12.12,0,0,1,0,.17l0,0,3.41,2,.11.07,0,0a.14.14,0,0,1,.18,0,.12.12,0,0,1,0,.17l0,.07a2.32,2.32,0,0,1,.57,3.09l-1.25,1.9a2.59,2.59,0,0,1-3.22.82l-.1.15a.13.13,0,0,1-.18,0h0l-.06,0,6.16,3.68.05,0a.13.13,0,0,1,0-.17l.09-.13a2.33,2.33,0,0,1-.73-3.2l1.25-1.9a2.61,2.61,0,0,1,3.4-.74l0-.06a.15.15,0,0,1,.18,0,.12.12,0,0,1,0,.17l0,0,3.41,2,.11.07,0,0a.15.15,0,0,1,.18,0,.12.12,0,0,1,0,.17l0,.07a2.32,2.32,0,0,1,.57,3.08l-1.25,1.9a2.58,2.58,0,0,1-3.22.83l-.1.15a.13.13,0,0,1-.18,0h0l-.06,0,6.17,3.68.06,0a.12.12,0,0,1,0-.17l.09-.14a2.33,2.33,0,0,1-.73-3.2l1.25-1.9a2.61,2.61,0,0,1,3.4-.74l0-.05a.14.14,0,0,1,.18,0,.12.12,0,0,1,0,.17l0,0,3.41,2,.11.07,0-.05a.14.14,0,0,1,.18,0,.11.11,0,0,1,0,.17l0,.07a2.31,2.31,0,0,1,.57,3.08l-1.25,1.9a2.59,2.59,0,0,1-3.22.83l-.1.15a.13.13,0,0,1-.18,0h0l-.06,0,6.16,3.67.06,0a.12.12,0,0,1,0-.17l.09-.14a2.33,2.33,0,0,1-.73-3.2L51,207a2.61,2.61,0,0,1,3.4-.74l0-.05a.14.14,0,0,1,.18,0,.12.12,0,0,1,0,.17l0,0,3.41,2,.1.07,0-.05a.15.15,0,0,1,.18,0,.12.12,0,0,1,0,.17l0,.07a2.31,2.31,0,0,1,.57,3.08l-1.25,1.89a2.58,2.58,0,0,1-3.22.83l-.1.15a.13.13,0,0,1-.18,0h0l-.06,0,3.26,1.95Zm-34-13.74a2.59,2.59,0,0,1-3.22.83l-.1.15a.13.13,0,0,1-.18,0h0a.12.12,0,0,1,0-.17l.09-.13-.05,0-3.46-2.07-.09.14a.13.13,0,0,1-.18,0h0a.12.12,0,0,1,0-.17l.09-.14a2.33,2.33,0,0,1-.73-3.2l1.25-1.9a2.61,2.61,0,0,1,3.4-.74l0-.05a.14.14,0,0,1,.18,0,.12.12,0,0,1,0,.17l0,0,3.41,2,.11.06,0,0a.15.15,0,0,1,.18,0,.12.12,0,0,1,0,.17l0,.07a2.31,2.31,0,0,1,.57,3.08Zm-5.12,7.76a2.59,2.59,0,0,1-3.22.83l-.1.15a.13.13,0,0,1-.18,0h0a.12.12,0,0,1,0-.17l.09-.14-.05,0-3.46-2.07-.09.14a.13.13,0,0,1-.18,0h0a.12.12,0,0,1,0-.17l.09-.14a2.34,2.34,0,0,1-.73-3.2l1.25-1.9a2.61,2.61,0,0,1,3.4-.74l0-.06a.13.13,0,0,1,.18,0,.12.12,0,0,1,0,.17l0,.05,3.41,2,.1.07,0-.05a.15.15,0,0,1,.18,0,.11.11,0,0,1,0,.17l0,.07a2.31,2.31,0,0,1,.57,3.08Zm-5.25,8a2.6,2.6,0,0,1-3.22.83l-.1.15a.13.13,0,0,1-.18,0h0a.12.12,0,0,1,0-.17l.09-.13-.06,0L26,186.77l-.09.13a.14.14,0,0,1-.18,0h0a.12.12,0,0,1,0-.17l.09-.14a2.33,2.33,0,0,1-.73-3.2l1.25-1.89a2.61,2.61,0,0,1,3.4-.74l0-.05a.14.14,0,0,1,.18,0,.12.12,0,0,1,0,.17l0,.05,3.41,2,.11.07,0-.05a.14.14,0,0,1,.18,0,.12.12,0,0,1,0,.17l0,.07a2.31,2.31,0,0,1,.57,3.08Zm20.27-9.81a2.59,2.59,0,0,1-3.22.83l-.1.15a.14.14,0,0,1-.18,0h0a.12.12,0,0,1,0-.17l.09-.14-.05,0L46.33,177l-.09.14a.13.13,0,0,1-.18,0h0a.12.12,0,0,1,0-.17l.09-.14a2.33,2.33,0,0,1-.72-3.2l1.25-1.9A2.6,2.6,0,0,1,50,171l0-.06a.14.14,0,0,1,.18,0,.13.13,0,0,1,0,.17l0,.05,3.41,2,.1.07,0-.06a.16.16,0,0,1,.18,0,.13.13,0,0,1,0,.17l0,.07a2.31,2.31,0,0,1,.57,3.08Zm-5.12,7.76a2.59,2.59,0,0,1-3.22.83l-.1.15a.13.13,0,0,1-.18,0h0a.12.12,0,0,1,0-.17l.09-.13-.05,0-3.46-2.07-.09.13a.13.13,0,0,1-.18,0h0a.12.12,0,0,1,0-.17l.09-.14a2.33,2.33,0,0,1-.72-3.2l1.25-1.89a2.61,2.61,0,0,1,3.4-.74l0-.05a.14.14,0,0,1,.18,0,.12.12,0,0,1,0,.17l0,0,3.41,2,.11.07,0-.05a.14.14,0,0,1,.18,0,.12.12,0,0,1,0,.17l0,.07a2.31,2.31,0,0,1,.57,3.08Zm-5.25,8a2.59,2.59,0,0,1-3.22.83l-.1.15a.13.13,0,0,1-.18,0h0a.12.12,0,0,1,0-.17l.09-.13-.05,0L36,192.68l-.09.13a.14.14,0,0,1-.18,0h0a.12.12,0,0,1,0-.17l.09-.13a2.33,2.33,0,0,1-.73-3.2l1.25-1.9a2.61,2.61,0,0,1,3.4-.74l0-.05a.14.14,0,0,1,.18,0,.13.13,0,0,1,0,.17l0,0,3.41,2,.1.07,0-.05a.15.15,0,0,1,.18,0,.12.12,0,0,1,0,.17l0,.07a2.32,2.32,0,0,1,.57,3.08Zm20.27-9.8a2.58,2.58,0,0,1-3.22.82l-.1.15a.13.13,0,0,1-.18,0h0a.11.11,0,0,1,0-.17l.09-.13-.06,0-3.46-2.07-.09.13a.14.14,0,0,1-.18,0h0a.12.12,0,0,1,0-.17l.09-.14a2.32,2.32,0,0,1-.73-3.2l1.25-1.9a2.6,2.6,0,0,1,3.39-.74l0-.06a.14.14,0,0,1,.18,0,.12.12,0,0,1,0,.17l0,0,3.41,2,.11.07,0-.05a.15.15,0,0,1,.18,0,.12.12,0,0,1,0,.17l0,.07a2.3,2.3,0,0,1,.57,3.08ZM58.09,192a2.59,2.59,0,0,1-3.22.83l-.1.15a.13.13,0,0,1-.18,0h0a.12.12,0,0,1,0-.17l.09-.13-.05,0-3.46-2.07-.09.14a.13.13,0,0,1-.18,0h0a.12.12,0,0,1,0-.17l.09-.14a2.32,2.32,0,0,1-.73-3.2l1.25-1.9a2.61,2.61,0,0,1,3.4-.74l0-.05a.14.14,0,0,1,.18,0,.12.12,0,0,1,0,.17l0,0,3.41,2,.1.06,0,0a.14.14,0,0,1,.18,0,.12.12,0,0,1,0,.17l0,.07a2.31,2.31,0,0,1,.57,3.08Zm-5.25,8a2.59,2.59,0,0,1-3.22.83l-.1.15a.13.13,0,0,1-.18,0h0a.12.12,0,0,1,0-.17l.09-.13-.05,0-3.46-2.06-.09.13a.13.13,0,0,1-.18,0h0a.12.12,0,0,1,0-.17l.09-.13a2.33,2.33,0,0,1-.73-3.2l1.26-1.9a2.6,2.6,0,0,1,3.39-.74l0-.05a.14.14,0,0,1,.18,0,.12.12,0,0,1,0,.17l0,0,3.41,2,.1.07,0-.05a.15.15,0,0,1,.18,0,.12.12,0,0,1,0,.17l0,.07a2.31,2.31,0,0,1,.57,3.08Zm20.27-9.8a2.59,2.59,0,0,1-3.22.83l-.1.15a.13.13,0,0,1-.18,0h0a.11.11,0,0,1,0-.17l.08-.13-.06,0-3.46-2.07-.09.13a.14.14,0,0,1-.18,0h0a.12.12,0,0,1,0-.17l.09-.14a2.33,2.33,0,0,1-.73-3.2l1.25-1.9a2.6,2.6,0,0,1,3.4-.74l0-.05a.14.14,0,0,1,.18,0,.13.13,0,0,1,0,.17l0,0,3.41,2,.11.07,0-.05a.14.14,0,0,1,.18,0,.12.12,0,0,1,0,.17l0,.07a2.31,2.31,0,0,1,.57,3.08ZM68,197.93a2.59,2.59,0,0,1-3.22.83l-.1.15a.14.14,0,0,1-.18,0h0a.12.12,0,0,1,0-.17l.09-.13-.06,0L61,196.54l-.09.13a.13.13,0,0,1-.18,0h0a.12.12,0,0,1,0-.17l.09-.14a2.33,2.33,0,0,1-.72-3.2l1.25-1.9a2.61,2.61,0,0,1,3.4-.74l0-.05a.13.13,0,0,1,.18,0,.12.12,0,0,1,0,.17l0,0,3.41,2,.1.07,0-.05a.15.15,0,0,1,.18,0,.12.12,0,0,1,0,.17l0,.07a2.31,2.31,0,0,1,.57,3.08Zm-5.25,8a2.58,2.58,0,0,1-3.22.83l-.1.15a.13.13,0,0,1-.18,0h0a.12.12,0,0,1,0-.17l.09-.14-.05,0-3.46-2.06-.09.13a.13.13,0,0,1-.18,0h0a.12.12,0,0,1,0-.17l.09-.14a2.33,2.33,0,0,1-.73-3.2l1.25-1.9a2.61,2.61,0,0,1,3.4-.74l0-.05a.13.13,0,0,1,.18,0,.12.12,0,0,1,0,.17l0,0,3.4,2,.11.07,0-.05a.14.14,0,0,1,.18,0,.12.12,0,0,1,0,.17l0,.07A2.31,2.31,0,0,1,64,204Z"/><path class="cls-4" d="M50.65,212.26l-.09.14a.13.13,0,0,1-.18,0h0a.12.12,0,0,1,0-.17l.09-.14.17.1Z"/><path class="cls-6" d="M64.48,198.61,61,196.54l3.93-5.85,3.41,2,.1.07-3.92,5.84Z"/><path class="cls-6" d="M69.6,190.85l-3.46-2.07,3.93-5.85,3.41,2,.11.07-3.93,5.84Z"/><path class="cls-6" d="M59.23,206.56l-3.46-2.06,3.93-5.85,3.4,2,.11.07-3.93,5.84Z"/><path class="cls-6" d="M54.11,214.32l-3.46-2.07,3.93-5.84,3.41,2,.1.07-3.93,5.84Z"/><path class="cls-4" d="M50.39,212.42a.13.13,0,0,0,.18,0l.09-.14,3.46,2.07.05,0-.09.13a.12.12,0,0,0,0,.17l-.06,0-3.74-2.23.06,0Z"/><path class="cls-4" d="M58.09,208.51l.21.16-3.9,5.81-.24-.12Z"/><path class="cls-4" d="M59.28,206.6l3.93-5.84.21.16-3.9,5.81Z"/><path class="cls-4" d="M64.54,198.64l3.92-5.84.21.16-3.9,5.81Z"/><path class="cls-4" d="M69.65,190.88,73.58,185l.21.15L69.89,191Z"/><path class="cls-4" d="M59.42,206.86a.13.13,0,0,1-.18,0h0a.12.12,0,0,1,0-.17l.09-.14.24.12Z"/><path class="cls-4" d="M69.79,191.15a.13.13,0,0,1-.18,0h0a.11.11,0,0,1,0-.17l.08-.13.24.12Z"/><path class="cls-4" d="M64.67,198.91a.14.14,0,0,1-.18,0h0a.12.12,0,0,1,0-.17l.09-.13.23.12Z"/><path class="cls-4" d="M73.62,185a.14.14,0,0,1,.18,0,.12.12,0,0,1,0,.17l0,.07-.21-.15Z"/><path class="cls-4" d="M68.5,192.74a.15.15,0,0,1,.18,0,.12.12,0,0,1,0,.17l0,.07-.21-.16Z"/><path class="cls-4" d="M63.25,200.7a.14.14,0,0,1,.18,0,.12.12,0,0,1,0,.17l0,.07-.21-.16Z"/><path class="cls-4" d="M58.13,208.46a.15.15,0,0,1,.18,0,.12.12,0,0,1,0,.17l0,.07-.21-.16Z"/><path class="cls-4" d="M54.08,214.48l.09-.13.24.12-.1.15a.13.13,0,0,1-.18,0h0A.12.12,0,0,1,54.08,214.48Z"/><path class="cls-6" d="M59.52,206.72l3.9-5.81A2.31,2.31,0,0,1,64,204l-1.25,1.9A2.58,2.58,0,0,1,59.52,206.72Z"/><path class="cls-6" d="M64.77,198.76l3.9-5.81a2.31,2.31,0,0,1,.57,3.08L68,197.93A2.59,2.59,0,0,1,64.77,198.76Z"/><path class="cls-6" d="M69.89,191l3.9-5.81a2.31,2.31,0,0,1,.57,3.08l-1.25,1.9A2.59,2.59,0,0,1,69.89,191Z"/><path class="cls-6" d="M58.88,211.75l-1.25,1.89a2.58,2.58,0,0,1-3.22.83l3.9-5.81A2.31,2.31,0,0,1,58.88,211.75Z"/><polygon class="cls-4" points="56.78 217.46 56.77 217.44 56.79 217.44 56.78 217.46"/><polygon class="cls-5" points="58.29 217.21 58.28 217.21 58.29 217.2 58.29 217.21"/><polygon class="cls-4" points="99.72 274.09 53.05 247.14 50.93 245.92 80.99 228.56 129.79 256.73 127.66 257.95 99.72 274.09"/><polygon class="cls-5" points="80.17 208.73 80.18 208.7 80.2 208.71 80.85 209.09 100.59 220.48 108.43 263.49 108.64 264.64 108.64 264.64 108.63 264.64 72.42 243.73 80.17 208.73"/><polygon class="cls-5" points="100.59 220.48 80.85 209.09 80.2 208.71 81.05 208.18 81.05 208.18 81.06 208.18 101.46 219.96 109.51 264.11 109.51 264.12 109.5 264.11 108.64 264.64 108.43 263.49 100.59 220.48"/><polygon class="cls-5" points="88.47 190.52 89.97 190.26 89.42 191.08 88.47 190.52"/><polygon class="cls-5" points="109.21 245.33 107.71 245.57 108.25 244.76 109.21 245.33"/><polygon class="cls-4" points="89.42 191.08 70.8 219.3 69.33 221.53 71.53 222.85 75.28 225.09 81.44 228.76 85.18 230.99 91.34 234.67 95.09 236.9 101.25 240.58 104.99 242.81 108.25 244.76 107.71 245.57 107.69 245.57 67.82 221.78 88.44 190.52 88.47 190.52 89.42 191.08"/><polygon class="cls-4" points="88.47 190.52 88.44 190.52 88.45 190.51 88.47 190.52"/><polygon class="cls-5" points="128.34 214.31 89.42 191.08 89.97 190.26 129.85 214.06 109.22 245.33 109.21 245.33 108.25 244.76 128.34 214.31"/><path class="cls-6" d="M70.91,219.32l1.25-1.9a2.61,2.61,0,0,1,3.4-.74l-3.93,5.84A2.33,2.33,0,0,1,70.91,219.32Z"/><path class="cls-6" d="M76,211.56l1.25-1.9a2.6,2.6,0,0,1,3.4-.74l-3.92,5.84A2.33,2.33,0,0,1,76,211.56Z"/><path class="cls-6" d="M81.28,203.6l1.25-1.9a2.6,2.6,0,0,1,3.4-.74L82,206.8A2.33,2.33,0,0,1,81.28,203.6Z"/><path class="cls-6" d="M86.4,195.84l1.25-1.89a2.6,2.6,0,0,1,3.4-.74L87.12,199A2.33,2.33,0,0,1,86.4,195.84Z"/><path class="cls-4" d="M71.64,222.51l-.09.14a.12.12,0,0,0,0,.17l-.06,0-2.2-1.32,1.47-2.23h.11A2.33,2.33,0,0,0,71.64,222.51Z"/><path class="cls-4" d="M71.8,222.62l-.16-.1,3.93-5.84.11.06.12.07-3.93,5.85Z"/><path class="cls-4" d="M76.92,214.86l-.16-.1,3.92-5.84.11.07.11.07L77,214.89Z"/><path class="cls-4" d="M82.16,206.9l-.16-.1L85.93,201,86,201l.11.07-3.93,5.84Z"/><path class="cls-4" d="M87.29,199.14l-.16-.1L91,193.2l.11.07.11.07-3.93,5.84Z"/><path class="cls-4" d="M75.56,216.67l0-.05a.14.14,0,0,1,.18,0,.12.12,0,0,1,0,.17l0,0-.12-.07Z"/><path class="cls-4" d="M80.68,208.92l0-.06a.14.14,0,0,1,.18,0,.12.12,0,0,1,0,.17l0,.05L80.8,209Z"/><path class="cls-4" d="M85.93,201l0-.06a.14.14,0,0,1,.18,0,.12.12,0,0,1,0,.17l0,.05L86,201Z"/><path class="cls-4" d="M91,193.2l0-.05a.13.13,0,0,1,.18,0,.12.12,0,0,1,0,.17l0,0-.11-.07Z"/><path class="cls-4" d="M87.35,199.18l-.09.14a.14.14,0,0,1-.18,0h0a.12.12,0,0,1,0-.17l.09-.14.16.1Z"/><path class="cls-4" d="M82.23,206.94l-.09.13a.13.13,0,0,1-.18,0h0a.12.12,0,0,1,0-.17l.09-.14.16.1Z"/><path class="cls-4" d="M77,214.89l-.09.13a.14.14,0,0,1-.18,0h0a.12.12,0,0,1,0-.17l.09-.13.16.1Z"/><path class="cls-4" d="M71.86,222.65l-.09.13a.14.14,0,0,1-.18,0,.12.12,0,0,1,0-.17l.09-.14.16.1Z"/><path class="cls-6" d="M75.32,224.72l-3.46-2.07,3.93-5.85,3.41,2,.11.07-3.93,5.84Z"/><path class="cls-6" d="M80.44,217,77,214.89l3.93-5.84,3.41,2,.11.07L80.49,217Z"/><path class="cls-6" d="M85.69,209l-3.46-2.06,3.93-5.84,3.41,2,.11.07L85.74,209Z"/><path class="cls-6" d="M90.81,201.25l-3.46-2.07,3.93-5.84,3.41,2,.1.06-3.93,5.84Z"/><path class="cls-4" d="M71.77,222.78l.09-.13,3.46,2.07.05,0-.09.13a.12.12,0,0,0,0,.17l-.05,0-3.74-2.23.06,0A.14.14,0,0,0,71.77,222.78Z"/><path class="cls-4" d="M79.31,218.91l.21.15-3.9,5.81-.24-.12Z"/><path class="cls-4" d="M80.49,217l3.93-5.84.21.15-3.9,5.81Z"/><path class="cls-4" d="M85.74,209l3.93-5.84.21.15L86,209.15Z"/><path class="cls-4" d="M90.86,201.28l3.93-5.84.21.16-3.9,5.8Z"/><path class="cls-4" d="M91,201.55a.13.13,0,0,1-.18,0h0a.12.12,0,0,1,0-.17l.09-.13.24.12Z"/><path class="cls-4" d="M85.88,209.3a.13.13,0,0,1-.18,0h0a.12.12,0,0,1,0-.17l.09-.14.24.12Z"/><path class="cls-4" d="M80.63,217.26a.14.14,0,0,1-.18,0h0a.12.12,0,0,1,0-.17l.09-.13.24.12Z"/><path class="cls-4" d="M84.46,211.1a.14.14,0,0,1,.18,0,.12.12,0,0,1,0,.17l0,.08-.21-.15Z"/><path class="cls-4" d="M89.71,203.14a.15.15,0,0,1,.18,0,.12.12,0,0,1,0,.17l0,.07-.21-.15Z"/><path class="cls-4" d="M94.82,195.38a.15.15,0,0,1,.18,0,.12.12,0,0,1,0,.17l0,.08-.21-.16Z"/><path class="cls-4" d="M79.34,218.85a.14.14,0,0,1,.18,0,.12.12,0,0,1,0,.17l0,.07-.21-.15Z"/><path class="cls-4" d="M75.29,224.88l.09-.13.24.12-.1.15a.13.13,0,0,1-.18,0h0A.12.12,0,0,1,75.29,224.88Z"/><path class="cls-6" d="M80.09,222.14,78.83,224a2.59,2.59,0,0,1-3.22.83l3.9-5.81A2.32,2.32,0,0,1,80.09,222.14Z"/><path class="cls-6" d="M80.73,217.11l3.9-5.81a2.31,2.31,0,0,1,.57,3.08L84,216.28A2.59,2.59,0,0,1,80.73,217.11Z"/><path class="cls-6" d="M86,209.15l3.9-5.81a2.31,2.31,0,0,1,.57,3.08l-1.25,1.9A2.59,2.59,0,0,1,86,209.15Z"/><path class="cls-6" d="M91.1,201.4l3.9-5.8a2.3,2.3,0,0,1,.57,3.08l-1.25,1.9A2.59,2.59,0,0,1,91.1,201.4Z"/><path class="cls-6" d="M80.82,225.23l1.25-1.9a2.6,2.6,0,0,1,3.4-.74l-3.93,5.84A2.33,2.33,0,0,1,80.82,225.23Z"/><path class="cls-6" d="M85.93,217.47l1.25-1.9a2.61,2.61,0,0,1,3.4-.74l-3.92,5.84A2.34,2.34,0,0,1,85.93,217.47Z"/><path class="cls-6" d="M91.18,209.51l1.25-1.89a2.61,2.61,0,0,1,3.4-.74l-3.93,5.84A2.33,2.33,0,0,1,91.18,209.51Z"/><path class="cls-6" d="M96.3,201.75l1.25-1.9a2.61,2.61,0,0,1,3.4-.74L97,204.95A2.32,2.32,0,0,1,96.3,201.75Z"/><path class="cls-4" d="M81.7,228.53l-.16-.1,3.93-5.84.11.06.11.07-3.93,5.85Z"/><path class="cls-4" d="M86.82,220.77l-.16-.1,3.92-5.84.11.07.11.07-3.93,5.85Z"/><path class="cls-4" d="M92.07,212.81l-.16-.1,3.93-5.84.11.07.11.07-3.93,5.85Z"/><path class="cls-4" d="M97.19,205.05l-.16-.11,3.92-5.83.12.06.11.07-3.93,5.84Z"/><path class="cls-4" d="M85.47,222.59l0-.05a.14.14,0,0,1,.18,0,.12.12,0,0,1,0,.17l0,0-.11-.07Z"/><path class="cls-4" d="M90.59,214.83l0-.05a.14.14,0,0,1,.18,0,.13.13,0,0,1,0,.17l0,0-.11-.07Z"/><path class="cls-4" d="M95.84,206.87l0-.05a.13.13,0,0,1,.18,0,.12.12,0,0,1,0,.17l0,0-.11-.07Z"/><path class="cls-4" d="M101,199.11l0-.05a.14.14,0,0,1,.18,0,.13.13,0,0,1,0,.17l0,0-.11-.07Z"/><path class="cls-4" d="M97.25,205.09l-.09.14a.13.13,0,0,1-.18,0h0a.13.13,0,0,1,0-.17l.09-.14.16.11Z"/><path class="cls-4" d="M92.13,212.85,92,213a.13.13,0,0,1-.18,0h0a.12.12,0,0,1,0-.17l.09-.14.16.1Z"/><path class="cls-4" d="M86.88,220.81l-.09.13a.13.13,0,0,1-.18,0h0a.12.12,0,0,1,0-.17l.09-.14.16.1Z"/><path class="cls-4" d="M81.76,228.57l-.09.13a.13.13,0,0,1-.18,0h0a.12.12,0,0,1,0-.17l.09-.13.16.1Z"/><path class="cls-6" d="M85.23,230.63l-3.46-2.06,3.93-5.85,3.41,2,.1.07-3.93,5.84Z"/><path class="cls-6" d="M90.35,222.87l-3.46-2.07L90.81,215l3.41,2,.1.07L90.4,222.9Z"/><path class="cls-6" d="M95.59,214.91l-3.46-2.07L96.07,207l3.41,2,.11.06-3.93,5.84Z"/><path class="cls-6" d="M100.71,207.16l-3.46-2.07,3.93-5.84,3.41,2,.11.07-3.93,5.84Z"/><path class="cls-4" d="M81.5,228.73a.13.13,0,0,0,.18,0l.09-.13,3.46,2.06.05,0-.09.13a.12.12,0,0,0,0,.17l-.06,0-3.74-2.23.05,0Z"/><path class="cls-4" d="M89.21,224.82l.21.15-3.9,5.81-.24-.12Z"/><path class="cls-4" d="M90.4,222.9l3.93-5.84a1.45,1.45,0,0,1,.21.16l-3.9,5.8Z"/><path class="cls-4" d="M95.65,214.95l3.93-5.84.21.16-3.9,5.81Z"/><path class="cls-4" d="M100.77,207.19l3.93-5.84.21.16-3.9,5.8Z"/><path class="cls-4" d="M100.91,207.46a.14.14,0,0,1-.18,0h0a.12.12,0,0,1,0-.17l.09-.14.24.12Z"/><path class="cls-4" d="M95.79,215.21a.14.14,0,0,1-.18,0h0a.12.12,0,0,1,0-.17l.09-.13.24.12Z"/><path class="cls-4" d="M90.54,223.17a.13.13,0,0,1-.18,0h0a.12.12,0,0,1,0-.17l.09-.13.24.11Z"/><path class="cls-4" d="M99.62,209a.14.14,0,0,1,.18,0,.12.12,0,0,1,0,.17l0,.07-.21-.16Z"/><path class="cls-4" d="M104.73,201.29a.16.16,0,0,1,.18,0,.13.13,0,0,1,0,.17l-.05.07-.21-.16Z"/><path class="cls-4" d="M94.36,217a.15.15,0,0,1,.18,0,.12.12,0,0,1,0,.17l0,.07a1.45,1.45,0,0,0-.21-.16Z"/><path class="cls-4" d="M89.24,224.77a.14.14,0,0,1,.18,0,.12.12,0,0,1,0,.17l0,.07-.21-.15Z"/><path class="cls-4" d="M85.19,230.79l.09-.13.24.12-.1.15a.13.13,0,0,1-.18,0h0A.12.12,0,0,1,85.19,230.79Z"/><path class="cls-6" d="M90,228.06,88.74,230a2.59,2.59,0,0,1-3.22.82l3.9-5.81A2.31,2.31,0,0,1,90,228.06Z"/><path class="cls-6" d="M90.64,223l3.9-5.8a2.31,2.31,0,0,1,.57,3.08l-1.25,1.9A2.58,2.58,0,0,1,90.64,223Z"/><path class="cls-6" d="M95.89,215.07l3.9-5.81a2.31,2.31,0,0,1,.57,3.08l-1.25,1.9A2.59,2.59,0,0,1,95.89,215.07Z"/><path class="cls-6" d="M101,207.31l3.9-5.8a2.31,2.31,0,0,1,.57,3.08l-1.25,1.89A2.59,2.59,0,0,1,101,207.31Z"/><path class="cls-6" d="M90.72,231.13l1.25-1.9a2.61,2.61,0,0,1,3.4-.74l-3.92,5.84A2.33,2.33,0,0,1,90.72,231.13Z"/><path class="cls-6" d="M95.84,223.38l1.26-1.9a2.61,2.61,0,0,1,3.4-.74l-3.93,5.84A2.33,2.33,0,0,1,95.84,223.38Z"/><path class="cls-6" d="M101.09,215.42l1.25-1.9a2.6,2.6,0,0,1,3.4-.74l-3.92,5.83A2.32,2.32,0,0,1,101.09,215.42Z"/><path class="cls-6" d="M106.21,207.66l1.25-1.9a2.6,2.6,0,0,1,3.4-.74l-3.92,5.83A2.33,2.33,0,0,1,106.21,207.66Z"/><path class="cls-4" d="M96.73,226.68l-.16-.1,3.93-5.84.12.06.11.07-3.93,5.85Z"/><path class="cls-4" d="M102,218.72l-.16-.11,3.92-5.83.12.07.11.07L102,218.76Z"/><path class="cls-4" d="M107.1,211l-.16-.1,3.92-5.83.12.06.11.07L107.16,211Z"/><path class="cls-4" d="M91.61,234.44l-.16-.1,3.92-5.84.11.07.11.07-3.93,5.84Z"/><path class="cls-4" d="M95.37,228.49l0-.05a.14.14,0,0,1,.18,0,.12.12,0,0,1,0,.17l0,.05-.11-.07Z"/><path class="cls-4" d="M100.49,220.74l0-.05a.14.14,0,0,1,.18,0,.12.12,0,0,1,0,.17l0,0-.11-.07Z"/><path class="cls-4" d="M105.74,212.78l0-.05a.14.14,0,0,1,.18,0,.12.12,0,0,1,0,.17l0,0-.11-.07Z"/><path class="cls-4" d="M110.86,205l0-.06a.14.14,0,0,1,.18,0,.12.12,0,0,1,0,.17l0,.05-.11-.07Z"/><path class="cls-4" d="M107.16,211l-.08.13a.14.14,0,0,1-.18,0h0a.12.12,0,0,1,0-.17l.09-.14.16.1Z"/><path class="cls-4" d="M102,218.76l-.09.13a.13.13,0,0,1-.18,0h0a.12.12,0,0,1,0-.17l.09-.14.16.11Z"/><path class="cls-4" d="M96.79,226.72l-.09.13a.14.14,0,0,1-.18,0h0a.13.13,0,0,1,0-.17l.09-.13.16.1Z"/><path class="cls-4" d="M91.67,234.47l-.09.13a.14.14,0,0,1-.18,0,.12.12,0,0,1,0-.17l.09-.14.16.1Z"/><path class="cls-6" d="M100.25,228.78l-3.46-2.06,3.93-5.85,3.4,2,.11.07-3.93,5.84Z"/><path class="cls-6" d="M105.5,220.82,102,218.76l3.93-5.85,3.41,2,.11.07-3.93,5.85Z"/><path class="cls-6" d="M110.62,213.07,107.16,211l3.93-5.84,3.41,2,.11.07-3.93,5.84Z"/><path class="cls-6" d="M95.13,236.54l-3.46-2.07,3.93-5.84,3.41,2,.1.07-3.93,5.84Z"/><path class="cls-4" d="M91.58,234.61l.09-.13,3.46,2.07.05,0-.09.13a.12.12,0,0,0,0,.17l-.06,0-3.74-2.23.06,0A.14.14,0,0,0,91.58,234.61Z"/><path class="cls-4" d="M100.31,228.81l3.93-5.84.21.15-3.9,5.81Z"/><path class="cls-4" d="M105.55,220.86l3.93-5.85.21.16-3.9,5.81Z"/><path class="cls-4" d="M99.12,230.73l.21.16-3.9,5.81-.24-.12Z"/><path class="cls-4" d="M110.67,213.1l3.93-5.84.21.15-3.9,5.81Z"/><path class="cls-4" d="M105.69,221.12a.13.13,0,0,1-.18,0h0a.13.13,0,0,1,0-.17l.09-.13.24.12Z"/><path class="cls-4" d="M100.44,229.08a.13.13,0,0,1-.18,0h0a.12.12,0,0,1,0-.17l.09-.13.24.12Z"/><path class="cls-4" d="M99.15,230.68a.14.14,0,0,1,.18,0,.12.12,0,0,1,0,.17l0,.07-.21-.16Z"/><path class="cls-4" d="M104.27,222.92a.15.15,0,0,1,.18,0,.12.12,0,0,1,0,.17l0,.07-.21-.15Z"/><path class="cls-4" d="M109.52,215a.14.14,0,0,1,.18,0,.12.12,0,0,1,0,.17l0,.07-.21-.16Z"/><path class="cls-4" d="M114.64,207.2a.15.15,0,0,1,.18,0,.12.12,0,0,1,0,.17l-.05.07-.21-.15Z"/><path class="cls-4" d="M110.81,213.36a.13.13,0,0,1-.18,0h0a.11.11,0,0,1,0-.17l.08-.13.24.12Z"/><path class="cls-4" d="M95.1,236.7l.09-.13.24.12-.1.15a.14.14,0,0,1-.18,0h0A.12.12,0,0,1,95.1,236.7Z"/><path class="cls-6" d="M99.9,234l-1.25,1.9a2.59,2.59,0,0,1-3.22.83l3.9-5.81A2.31,2.31,0,0,1,99.9,234Z"/><path class="cls-6" d="M100.55,228.93l3.9-5.81a2.31,2.31,0,0,1,.57,3.08l-1.25,1.9A2.58,2.58,0,0,1,100.55,228.93Z"/><path class="cls-6" d="M105.79,221l3.9-5.81a2.31,2.31,0,0,1,.57,3.08l-1.25,1.9A2.59,2.59,0,0,1,105.79,221Z"/><path class="cls-6" d="M110.91,213.22l3.9-5.81a2.3,2.3,0,0,1,.57,3.08l-1.25,1.9A2.59,2.59,0,0,1,110.91,213.22Z"/><path class="cls-6" d="M100.63,237l1.25-1.9a2.61,2.61,0,0,1,3.4-.74l-3.92,5.83A2.32,2.32,0,0,1,100.63,237Z"/><path class="cls-6" d="M105.75,229.29l1.25-1.9a2.61,2.61,0,0,1,3.4-.74l-3.92,5.84A2.33,2.33,0,0,1,105.75,229.29Z"/><path class="cls-6" d="M111,221.33l1.25-1.9a2.6,2.6,0,0,1,3.4-.74l-3.92,5.84A2.32,2.32,0,0,1,111,221.33Z"/><path class="cls-6" d="M116.12,213.57l1.25-1.9a2.6,2.6,0,0,1,3.4-.74l-3.92,5.84A2.33,2.33,0,0,1,116.12,213.57Z"/><path class="cls-4" d="M111.89,224.63l-.16-.1,3.92-5.84.12.07.11.07-3.93,5.85Z"/><path class="cls-4" d="M117,216.88l-.16-.1,3.92-5.84.12.06.11.07-3.93,5.85Z"/><path class="cls-4" d="M106.64,232.59l-.16-.1,3.92-5.84.11.07.11.06-3.93,5.85Z"/><path class="cls-4" d="M101.52,240.35l-.16-.11,3.92-5.83.12.07.11.06-3.93,5.85Z"/><path class="cls-4" d="M120.77,210.94l0-.05a.14.14,0,0,1,.18,0,.13.13,0,0,1,0,.17l0,0-.11-.07Z"/><path class="cls-4" d="M105.28,234.41l0-.05a.14.14,0,0,1,.18,0,.11.11,0,0,1,0,.17l0,0-.11-.06Z"/><path class="cls-4" d="M110.4,226.65l0-.05a.14.14,0,0,1,.18,0,.12.12,0,0,1,0,.17l0,0-.11-.06Z"/><path class="cls-4" d="M115.65,218.69l0-.05a.14.14,0,0,1,.18,0,.12.12,0,0,1,0,.17l0,0-.11-.07Z"/><path class="cls-4" d="M117.06,216.91,117,217a.14.14,0,0,1-.18,0s0,0,0,0a.11.11,0,0,1,0-.17l.09-.14.16.1Z"/><path class="cls-4" d="M111.94,224.67l-.09.14a.13.13,0,0,1-.18,0h0a.12.12,0,0,1,0-.17l.09-.14.16.1Z"/><path class="cls-4" d="M106.69,232.63l-.09.13a.13.13,0,0,1-.18,0h0a.12.12,0,0,1,0-.17l.09-.14.16.1Z"/><path class="cls-4" d="M128.34,214.31,89.42,191.08,70.8,219.3h.11l1.25-1.9a2.61,2.61,0,0,1,3.4-.74l0-.05a.14.14,0,0,1,.18,0,.12.12,0,0,1,0,.17l0,0,3.41,2,.11.07,0-.05a.14.14,0,0,1,.18,0,.12.12,0,0,1,0,.17l0,.07a2.32,2.32,0,0,1,.57,3.08L78.83,224a2.59,2.59,0,0,1-3.22.83l-.1.15a.13.13,0,0,1-.18,0h0l-.05,0,6.16,3.68.05,0a.12.12,0,0,1,0-.17l.09-.13a2.33,2.33,0,0,1-.72-3.2l1.25-1.9a2.6,2.6,0,0,1,3.4-.74l0-.05a.14.14,0,0,1,.18,0,.12.12,0,0,1,0,.17l0,0,3.41,2,.1.07,0,0a.14.14,0,0,1,.18,0,.12.12,0,0,1,0,.17l0,.07a2.31,2.31,0,0,1,.57,3.09L88.74,230a2.59,2.59,0,0,1-3.22.82l-.1.15a.13.13,0,0,1-.18,0h0l-.06,0,6.16,3.68.06,0a.12.12,0,0,1,0-.17l.09-.14a2.33,2.33,0,0,1-.73-3.2l1.25-1.9a2.61,2.61,0,0,1,3.4-.74l0-.05a.14.14,0,0,1,.18,0,.12.12,0,0,1,0,.17l0,.05,3.41,2,.1.07,0,0a.14.14,0,0,1,.18,0,.12.12,0,0,1,0,.17l0,.07A2.31,2.31,0,0,1,99.9,234l-1.25,1.9a2.59,2.59,0,0,1-3.22.83l-.1.15a.14.14,0,0,1-.18,0h0l-.06,0,6.16,3.68.05,0a.12.12,0,0,1,0-.17l.09-.14a2.32,2.32,0,0,1-.73-3.2l1.25-1.9a2.61,2.61,0,0,1,3.4-.74l0-.05a.14.14,0,0,1,.18,0,.11.11,0,0,1,0,.17l0,0,3.41,2,.11.07,0-.05a.15.15,0,0,1,.18,0,.12.12,0,0,1,0,.17l0,.07a2.31,2.31,0,0,1,.57,3.08l-1.25,1.9a2.58,2.58,0,0,1-3.22.83l-.1.15a.13.13,0,0,1-.18,0h0l-.05,0,3.26,1.94Zm-34-13.74a2.59,2.59,0,0,1-3.22.83l-.1.15a.13.13,0,0,1-.18,0h0a.12.12,0,0,1,0-.17l.09-.13-.05,0-3.46-2.07-.09.14a.14.14,0,0,1-.18,0h0a.12.12,0,0,1,0-.17l.09-.14a2.33,2.33,0,0,1-.72-3.2l1.25-1.89a2.6,2.6,0,0,1,3.4-.74l0-.05a.13.13,0,0,1,.18,0,.12.12,0,0,1,0,.17l0,0,3.41,2,.1.06,0-.05a.15.15,0,0,1,.18,0,.12.12,0,0,1,0,.17l0,.08a2.3,2.3,0,0,1,.57,3.08Zm-5.12,7.76a2.59,2.59,0,0,1-3.22.82l-.1.15a.13.13,0,0,1-.18,0h0a.12.12,0,0,1,0-.17l.09-.14-.05,0-3.46-2.06-.09.13a.13.13,0,0,1-.18,0h0a.12.12,0,0,1,0-.17l.09-.14a2.33,2.33,0,0,1-.73-3.2l1.25-1.9a2.6,2.6,0,0,1,3.4-.74l0-.06a.14.14,0,0,1,.18,0,.12.12,0,0,1,0,.17l0,.05,3.41,2,.11.07,0-.06a.15.15,0,0,1,.18,0,.12.12,0,0,1,0,.17l0,.07a2.31,2.31,0,0,1,.57,3.08Zm-5.25,8a2.59,2.59,0,0,1-3.22.83l-.1.15a.14.14,0,0,1-.18,0h0a.12.12,0,0,1,0-.17l.09-.13-.05,0L77,214.89l-.09.13a.14.14,0,0,1-.18,0h0a.12.12,0,0,1,0-.17l.09-.13a2.33,2.33,0,0,1-.73-3.2l1.25-1.9a2.6,2.6,0,0,1,3.4-.74l0-.06a.14.14,0,0,1,.18,0,.12.12,0,0,1,0,.17l0,.05,3.41,2,.11.07,0-.05a.14.14,0,0,1,.18,0,.12.12,0,0,1,0,.17l0,.08a2.31,2.31,0,0,1,.57,3.08Zm20.27-9.81a2.59,2.59,0,0,1-3.22.83l-.1.15a.14.14,0,0,1-.18,0h0a.12.12,0,0,1,0-.17l.09-.14-.05,0-3.46-2.07-.09.14a.13.13,0,0,1-.18,0h0a.13.13,0,0,1,0-.17l.09-.14a2.32,2.32,0,0,1-.73-3.2l1.25-1.9a2.61,2.61,0,0,1,3.4-.74l0-.05a.14.14,0,0,1,.18,0,.13.13,0,0,1,0,.17l0,0,3.41,2,.11.07,0-.06a.16.16,0,0,1,.18,0,.13.13,0,0,1,0,.17l-.05.07a2.31,2.31,0,0,1,.57,3.08Zm-5.12,7.76a2.59,2.59,0,0,1-3.22.83l-.1.15a.14.14,0,0,1-.18,0h0a.12.12,0,0,1,0-.17l.09-.13-.05,0-3.46-2.07L92,213a.13.13,0,0,1-.18,0h0a.12.12,0,0,1,0-.17l.09-.14a2.33,2.33,0,0,1-.73-3.2l1.25-1.89a2.61,2.61,0,0,1,3.4-.74l0-.05a.13.13,0,0,1,.18,0,.12.12,0,0,1,0,.17l0,0,3.41,2,.11.06,0-.05a.14.14,0,0,1,.18,0,.12.12,0,0,1,0,.17l0,.07a2.31,2.31,0,0,1,.57,3.08Zm-5.25,8a2.58,2.58,0,0,1-3.22.82l-.1.15a.13.13,0,0,1-.18,0h0a.12.12,0,0,1,0-.17l.09-.13-.05,0-3.46-2.07-.09.13a.13.13,0,0,1-.18,0h0a.12.12,0,0,1,0-.17l.09-.14a2.34,2.34,0,0,1-.73-3.2l1.25-1.9a2.61,2.61,0,0,1,3.4-.74l0-.05a.14.14,0,0,1,.18,0,.13.13,0,0,1,0,.17l0,0,3.41,2,.1.07,0-.05a.15.15,0,0,1,.18,0,.12.12,0,0,1,0,.17l0,.07a2.31,2.31,0,0,1,.57,3.08Zm20.27-9.81a2.59,2.59,0,0,1-3.22.82l-.1.15a.13.13,0,0,1-.18,0h0a.11.11,0,0,1,0-.17l.08-.13-.06,0L107.16,211l-.08.13a.14.14,0,0,1-.18,0h0a.12.12,0,0,1,0-.17l.09-.14a2.33,2.33,0,0,1-.73-3.2l1.25-1.9a2.6,2.6,0,0,1,3.4-.74l0-.06a.14.14,0,0,1,.18,0,.12.12,0,0,1,0,.17l0,.05,3.41,2,.11.07,0-.06a.15.15,0,0,1,.18,0,.12.12,0,0,1,0,.17l-.05.07a2.3,2.3,0,0,1,.57,3.08ZM109,220.15a2.59,2.59,0,0,1-3.22.83l-.1.15a.13.13,0,0,1-.18,0h0a.13.13,0,0,1,0-.17l.09-.13-.05,0L102,218.76l-.09.13a.13.13,0,0,1-.18,0h0a.12.12,0,0,1,0-.17l.09-.14a2.32,2.32,0,0,1-.72-3.2l1.25-1.9a2.6,2.6,0,0,1,3.4-.74l0-.05a.14.14,0,0,1,.18,0,.12.12,0,0,1,0,.17l0,0,3.41,2,.11.07,0,0a.14.14,0,0,1,.18,0,.12.12,0,0,1,0,.17l0,.07a2.31,2.31,0,0,1,.57,3.08Zm-5.25,8a2.58,2.58,0,0,1-3.22.83l-.1.15a.13.13,0,0,1-.18,0h0a.12.12,0,0,1,0-.17l.09-.13-.06,0-3.46-2.06-.09.13a.14.14,0,0,1-.18,0h0a.13.13,0,0,1,0-.17l.09-.13a2.33,2.33,0,0,1-.73-3.2l1.26-1.9a2.61,2.61,0,0,1,3.4-.74l0-.05a.14.14,0,0,1,.18,0,.12.12,0,0,1,0,.17l0,0,3.4,2,.11.07,0-.05a.15.15,0,0,1,.18,0,.12.12,0,0,1,0,.17l0,.07a2.31,2.31,0,0,1,.57,3.08ZM124,218.3a2.59,2.59,0,0,1-3.22.83l-.1.15a.14.14,0,0,1-.18,0h0a.11.11,0,0,1,0-.17l.09-.13-.06,0-3.46-2.07L117,217a.14.14,0,0,1-.18,0s0,0,0,0a.11.11,0,0,1,0-.17l.09-.14a2.33,2.33,0,0,1-.72-3.2l1.25-1.9a2.6,2.6,0,0,1,3.4-.74l0-.05a.14.14,0,0,1,.18,0,.13.13,0,0,1,0,.17l0,0,3.41,2,.11.07,0-.05a.14.14,0,0,1,.18,0,.12.12,0,0,1,0,.17l0,.07a2.31,2.31,0,0,1,.57,3.08Zm-5.12,7.75a2.58,2.58,0,0,1-3.22.83l-.1.15a.13.13,0,0,1-.18,0h0a.12.12,0,0,1,0-.17l.09-.13-.06,0-3.46-2.07-.09.14a.13.13,0,0,1-.18,0h0a.12.12,0,0,1,0-.17l.09-.14a2.32,2.32,0,0,1-.73-3.2l1.25-1.9a2.6,2.6,0,0,1,3.4-.74l0-.05a.14.14,0,0,1,.18,0,.12.12,0,0,1,0,.17l0,0,3.41,2,.1.06,0-.05a.15.15,0,0,1,.18,0,.12.12,0,0,1,0,.17l0,.07a2.31,2.31,0,0,1,.57,3.08Zm-5.25,8a2.59,2.59,0,0,1-3.22.83l-.1.15a.14.14,0,0,1-.18,0h0a.12.12,0,0,1,0-.17l.09-.14-.05,0-3.47-2.06-.09.13a.13.13,0,0,1-.18,0h0a.12.12,0,0,1,0-.17l.09-.14a2.33,2.33,0,0,1-.73-3.2l1.25-1.9a2.61,2.61,0,0,1,3.4-.74l0-.05a.14.14,0,0,1,.18,0,.12.12,0,0,1,0,.17l0,0,3.41,2,.11.07,0-.05a.15.15,0,0,1,.18,0,.12.12,0,0,1,0,.17l0,.07a2.31,2.31,0,0,1,.57,3.08Z"/><path class="cls-4" d="M101.58,240.38l-.09.14a.13.13,0,0,1-.18,0h0a.12.12,0,0,1,0-.17l.09-.14.16.11Z"/><path class="cls-6" d="M115.41,226.73l-3.46-2.07,3.93-5.85,3.41,2,.1.06-3.93,5.84Z"/><path class="cls-6" d="M120.52,219l-3.46-2.07,3.93-5.85,3.41,2,.11.07L120.58,219Z"/><path class="cls-6" d="M110.16,234.69l-3.47-2.06,3.93-5.85,3.41,2,.11.07-3.93,5.84Z"/><path class="cls-6" d="M105,242.45l-3.46-2.07,3.93-5.85,3.41,2,.11.07-3.93,5.84Z"/><path class="cls-4" d="M101.31,240.55a.13.13,0,0,0,.18,0l.09-.14,3.46,2.07.05,0-.09.13a.12.12,0,0,0,0,.17l-.05,0-3.74-2.23.05,0Z"/><path class="cls-4" d="M109,236.64l.21.16-3.9,5.8-.24-.12Z"/><path class="cls-4" d="M110.21,234.72l3.93-5.84.21.16-3.9,5.81Z"/><path class="cls-4" d="M115.46,226.77l3.93-5.84.21.16-3.9,5.81Z"/><path class="cls-4" d="M120.58,219l3.93-5.84.21.15-3.9,5.81Z"/><path class="cls-4" d="M110.35,235a.14.14,0,0,1-.18,0h0a.12.12,0,0,1,0-.17l.09-.14.24.12Z"/><path class="cls-4" d="M120.72,219.28a.14.14,0,0,1-.18,0h0a.11.11,0,0,1,0-.17l.09-.13.24.12Z"/><path class="cls-4" d="M115.6,227a.13.13,0,0,1-.18,0h0a.12.12,0,0,1,0-.17l.09-.13.24.12Z"/><path class="cls-4" d="M124.54,213.11a.14.14,0,0,1,.18,0,.12.12,0,0,1,0,.17l0,.07-.21-.15Z"/><path class="cls-4" d="M119.42,220.87a.15.15,0,0,1,.18,0,.12.12,0,0,1,0,.17l0,.07-.21-.16Z"/><path class="cls-4" d="M114.17,228.83a.15.15,0,0,1,.18,0,.12.12,0,0,1,0,.17l0,.07-.21-.16Z"/><path class="cls-4" d="M109.06,236.59a.15.15,0,0,1,.18,0,.12.12,0,0,1,0,.17l0,.07-.21-.16Z"/><path class="cls-4" d="M105,242.61l.09-.13.24.12-.1.15a.13.13,0,0,1-.18,0h0A.12.12,0,0,1,105,242.61Z"/><path class="cls-6" d="M110.45,234.84l3.9-5.81a2.31,2.31,0,0,1,.57,3.08l-1.25,1.9A2.59,2.59,0,0,1,110.45,234.84Z"/><path class="cls-6" d="M115.7,226.89l3.9-5.81a2.31,2.31,0,0,1,.57,3.08l-1.25,1.9A2.58,2.58,0,0,1,115.7,226.89Z"/><path class="cls-6" d="M120.82,219.13l3.9-5.81a2.31,2.31,0,0,1,.57,3.08L124,218.3A2.59,2.59,0,0,1,120.82,219.13Z"/><path class="cls-6" d="M109.81,239.88l-1.25,1.9a2.58,2.58,0,0,1-3.22.83l3.9-5.8A2.31,2.31,0,0,1,109.81,239.88Z"/><polygon class="cls-4" points="107.7 245.58 107.69 245.57 107.71 245.57 107.7 245.58"/><polygon class="cls-5" points="109.22 245.34 109.21 245.33 109.22 245.33 109.22 245.34"/></g></g></svg>