<svg xmlns="http://www.w3.org/2000/svg" xmlns:xlink="http://www.w3.org/1999/xlink" viewBox="0 0 576.84 452.73"><defs><style>.cls-1{fill:none;}.cls-2{fill:#e6e6e6;}.cls-3{fill:#55a7dd;}.cls-4{fill:#f4a032;}.cls-5{fill:#2a3038;}.cls-6{fill:#706f6f;}.cls-7{clip-path:url(#clip-path);}.cls-8{clip-path:url(#clip-path-2);}.cls-9{fill:#765635;opacity:0.75;}</style><clipPath id="clip-path"><polygon class="cls-1" points="282.85 96.86 94.75 167.53 204.38 274.38 354.08 151.95 282.85 96.86"/></clipPath><clipPath id="clip-path-2"><polygon class="cls-1" points="355.68 59.49 463.83 4.59 566.04 49.48 420.24 104.76 355.68 59.49"/></clipPath></defs><title>Asset 48</title><g id="Layer_2" data-name="Layer 2"><g id="Livello_1" data-name="Livello 1"><polygon class="cls-2" points="348.58 59.48 463.85 0 576.84 49.47 420.24 110.88 348.58 59.48"/><polygon class="cls-3" points="355.68 59.49 463.83 4.59 566.04 49.48 420.24 104.76 355.68 59.49"/><path class="cls-2" d="M414,103.23l-39.7,44.15c-9.65-6.31-70.6-50.49-70.6-50.49A29,29,0,0,1,298.72,80c0-16.9,13.35-30.61,29.82-30.61,6.18,0,11.72,2.22,16.67,5.23C346.44,55.37,411,99.52,414,103.23Z"/><path class="cls-4" d="M307.25,101.41c-.25-1.26-5.81-31,12.44-42.82s28.72-4.13,29.16-3.8l-2.58,3.38c-.33-.25-8.65-6.08-24.26,4-15.83,10.21-10.62,38.15-10.57,38.43Z"/><rect class="cls-4" x="351.74" y="43.22" width="4.25" height="69.56" transform="translate(92.69 329.18) rotate(-56.31)"/><path class="cls-4" d="M359.35,181.65c-1.15,2.75-3.46,4.4-5.16,3.68h0c-1.7-.71-2.15-3.51-1-6.26l15.47-37c1.15-2.75,3.46-4.4,5.16-3.68h0c1.7.71,2.15,3.51,1,6.26Z"/><path class="cls-4" d="M428.92,150.2c1.85,1.71,2.34,4.19,1.09,5.55h0c-1.25,1.36-3.76,1.07-5.61-.64l-24.94-23c-1.85-1.71-2.34-4.19-1.08-5.55h0c1.25-1.36,3.76-1.07,5.61.64Z"/><polygon class="cls-2" points="85.47 166.65 203.93 281.83 361.38 151.95 283.33 92.18 85.47 166.65"/><ellipse class="cls-4" cx="392.72" cy="124.15" rx="29.82" ry="30.61"/><ellipse class="cls-5" cx="395.59" cy="125.03" rx="25.63" ry="25.11"/><path class="cls-6" d="M414.53,123.1c-1.82,15.63-14.52,25.17-29.12,23.25C374.9,145,368,132.8,368.76,122.87c.82-10.32,9.15-21,24-22.1C403.38,100,416.15,109.11,414.53,123.1Z"/><ellipse class="cls-2" cx="395.05" cy="125.42" rx="12.63" ry="10.25" transform="translate(48.02 352.06) rotate(-50.76)"/><path class="cls-4" d="M352.06,61.35a3.34,3.34,0,0,1-4.21,2.14h0a3.34,3.34,0,0,1-2.14-4.21l7.72-23.63a3.34,3.34,0,0,1,4.21-2.14h0a3.34,3.34,0,0,1,2.14,4.21Z"/><path class="cls-4" d="M292.35,110.34a3.34,3.34,0,0,1-4.49-1.47h0a3.34,3.34,0,0,1,1.47-4.49L311.5,93.14A3.34,3.34,0,0,1,316,94.61h0a3.34,3.34,0,0,1-1.47,4.49Z"/><path class="cls-4" d="M331.72,143a3.34,3.34,0,0,1-4.67-.72h0a3.34,3.34,0,0,1,.72-4.67l20-14.71a3.34,3.34,0,0,1,4.67.72h0a3.34,3.34,0,0,1-.71,4.67Z"/><polygon class="cls-3" points="282.85 96.86 94.75 167.53 204.38 274.38 354.08 151.95 282.85 96.86"/><g class="cls-7"><rect class="cls-2" x="299.93" y="83.64" width="2.13" height="101.17" transform="translate(3.62 276.29) rotate(-49.57)"/><rect class="cls-2" x="269.75" y="95.01" width="2.12" height="111.85" transform="translate(-23.67 247.89) rotate(-47.36)"/><rect class="cls-2" x="238.48" y="106.16" width="2.12" height="125.95" transform="translate(-47.48 229.18) rotate(-47.04)"/><polygon class="cls-2" points="257.62 236.19 155.65 139.08 157.12 137.54 259.1 234.66 257.62 236.19"/><polygon class="cls-2" points="232.51 254.97 123.15 152.87 124.6 151.31 233.96 253.42 232.51 254.97"/></g><g class="cls-8"><rect class="cls-2" x="499.22" y="-25.6" width="2.13" height="124.93" transform="translate(244.43 468.35) rotate(-63.55)"/><polygon class="cls-2" points="518.96 73.41 424.91 20.54 425.95 18.68 520 71.56 518.96 73.41"/><polygon class="cls-2" points="489.44 83.41 402.07 31.66 403.15 29.83 490.52 81.58 489.44 83.41"/><rect class="cls-2" x="422.41" y="19.39" width="2.13" height="98.94" transform="translate(134.73 386.2) rotate(-56.94)"/><rect class="cls-2" x="398.49" y="30.82" width="2.13" height="95.56" transform="matrix(0.57, -0.82, 0.82, 0.57, 106.97, 361.82)"/></g><path class="cls-4" d="M390.77,87.13A3.39,3.39,0,0,1,386.36,89h0a3.39,3.39,0,0,1-1.75-4.47l9.9-23.67A3.39,3.39,0,0,1,398.92,59h0a3.39,3.39,0,0,1,1.75,4.47Z"/><path class="cls-2" d="M395,95.58a29.59,29.59,0,1,0,29.17,29.59A29.38,29.38,0,0,0,395,95.58Zm.42,54.42a25,25,0,1,1,25.38-25A25.18,25.18,0,0,1,395.46,150Z"/><polygon class="cls-9" points="211.41 332.6 237.91 203.14 182.23 330.68 0 338.05 0 452.73 566.04 452.73 572.04 301.79 211.41 332.6"/></g></g></svg>