<svg xmlns="http://www.w3.org/2000/svg" viewBox="0 0 484.82 330.99"><defs><style>.cls-1{fill:#946c3a;fill-rule:evenodd;}.cls-2{opacity:0.59;}.cls-3{fill:#1d1d1b;}.cls-19,.cls-21,.cls-3{opacity:0.4;}.cls-4{fill:#cfd8dc;}.cls-5{fill:#f47b4e;}.cls-6{fill:#eceff1;}.cls-7{fill:#a1887f;}.cls-8{isolation:isolate;}.cls-9{fill:#8d6e63;}.cls-10{fill:#cfae74;}.cls-11{fill:#ffc783;}.cls-12{fill:#e5a457;}.cls-13{fill:#426b80;}.cls-14{fill:#64b5f6;}.cls-15{fill:#e9e5d9;}.cls-16{fill:#f9f8f7;}.cls-17{fill:#4d7f91;}.cls-18{fill:#fa6564;}.cls-20{fill:#55a7dd;}.cls-21{fill:#fdf7fb;}.cls-22{fill:#765635;opacity:0.75;}</style></defs><title>Asset 50</title><g id="Layer_2" data-name="Layer 2"><g id="Livello_1" data-name="Livello 1"><path class="cls-1" d="M484.82,243c0,35.3-67.83,88-144.31,88s-132.66-46.27-132.66-88c0-60.78,62-98,138.48-98S484.82,180.48,484.82,243Z"/><g class="cls-2"><path class="cls-3" d="M415.89,200.67c-56.91-2.8-101.29,1.64-115.89,5-2.54.59-40.92,29-33.67,36.1,11.42,11.12,31.57,46.75,65,45.84,35.71-1,67.71-41.39,76.84-45.87C437,227.65,420.17,200.88,415.89,200.67Z"/></g><polygon class="cls-4" points="331.91 266.27 278 234.93 277.85 185.15 331.77 216.49 331.91 266.27"/><polygon class="cls-5" points="331.77 216.49 277.85 185.15 361.99 136.58 415.91 167.91 331.77 216.49"/><polygon class="cls-6" points="415.91 167.91 416.05 217.69 331.91 266.27 331.77 216.49 415.91 167.91"/><polygon class="cls-5" points="330.33 220.29 271.28 185.97 363.43 132.77 422.49 167.09 330.33 220.29"/><polygon class="cls-7" points="330.33 218.28 271.28 183.96 363.43 130.75 422.49 165.07 330.33 218.28"/><g class="cls-8"><polygon class="cls-9" points="392.23 232.49 391.33 231.97 391.23 198.35 392.13 198.88 392.23 232.49"/><polyline class="cls-10" points="392.13 198.88 356.17 219.64 356.26 253.25 354.91 254.04 354.81 218.86 393.49 196.53 393.59 231.71 392.23 232.49"/></g><g class="cls-8"><polygon class="cls-11" points="400.64 220.34 399.75 219.82 408.33 214.86 409.23 215.39 400.64 220.34"/><polygon class="cls-12" points="409.23 215.39 408.33 214.86 408.27 193.69 409.17 194.21 409.23 215.39"/><path class="cls-10" d="M399.22,198.39l11.3-6.52.07,24.29-11.3,6.52Z"/></g><g class="cls-8"><polygon class="cls-11" points="340.75 254.92 339.85 254.4 348.43 249.45 349.33 249.97 340.75 254.92"/><polygon class="cls-12" points="349.33 249.97 348.43 249.45 348.37 228.27 349.27 228.79 349.33 249.97"/><path class="cls-10" d="M339.32,233l11.3-6.52.07,24.29-11.3,6.52Z"/></g><polygon class="cls-13" points="391.12 182.24 388.87 180.94 388.86 175.97 391.1 177.28 391.12 182.24"/><polygon class="cls-13" points="394.4 175.38 394.42 180.34 391.12 182.24 391.1 177.28 394.4 175.38"/><polygon class="cls-13" points="391.1 177.28 388.86 175.97 392.15 174.07 394.4 175.38 391.1 177.28"/><polygon class="cls-13" points="359.02 195.8 359.04 200.77 355.74 202.67 355.72 197.71 359.02 195.8"/><polygon class="cls-13" points="355.74 202.67 353.49 201.36 353.48 196.4 355.72 197.71 355.74 202.67"/><polygon class="cls-13" points="355.72 197.71 353.48 196.4 356.77 194.5 359.02 195.8 355.72 197.71"/><polygon class="cls-13" points="348.45 201.91 346.2 200.6 346.15 182.97 348.4 184.28 348.45 201.91"/><polygon class="cls-13" points="401.62 153.55 401.67 171.18 394.4 175.38 391.1 177.28 359.02 195.8 355.72 197.71 348.45 201.91 348.4 184.28 401.62 153.55"/><polygon class="cls-13" points="348.4 184.28 346.15 182.97 399.37 152.25 401.62 153.55 348.4 184.28"/><polygon class="cls-9" points="391.33 231.97 391.33 199.34 356.17 219.64 356.3 252.19 391.33 231.97"/><polygon class="cls-14" points="348.43 249.45 348.43 229.27 340.69 233.75 340.74 253.88 348.43 249.45"/><polygon class="cls-14" points="400.58 199.16 400.64 219.3 408.33 214.86 408.27 194.73 400.58 199.16"/><polyline class="cls-4" points="400.27 155.9 349.76 185.06 349.8 199.56 400.31 170.4 400.27 155.9"/><g class="cls-8"><path class="cls-12" d="M416.22,176.15l-.61-.35a1.94,1.94,0,0,1-.81-1.78l.61.35A1.94,1.94,0,0,0,416.22,176.15Z"/><path class="cls-10" d="M420.95,168v3.18a6.09,6.09,0,0,1-2.77,4.79c-1.53.88-2.78.18-2.78-1.59v-3.18Z"/><polygon class="cls-15" points="415.41 174.37 414.8 174.02 414.79 170.84 415.4 171.19 415.41 174.37"/><polygon class="cls-16" points="415.4 171.19 414.79 170.84 420.34 167.63 420.95 167.98 415.4 171.19"/></g><g class="cls-8"><path class="cls-17" d="M410.67,179.36l-.61-.35a1.94,1.94,0,0,1-.81-1.78l.61.35A1.94,1.94,0,0,0,410.67,179.36Z"/><path class="cls-14" d="M415.4,171.19v3.18a6.08,6.08,0,0,1-2.76,4.79c-1.53.88-2.78.18-2.78-1.59v-3.18Z"/><polygon class="cls-17" points="409.86 177.57 409.25 177.22 409.24 174.04 409.85 174.39 409.86 177.57"/><polygon class="cls-18" points="409.85 174.39 409.24 174.04 414.79 170.84 415.4 171.19 409.85 174.39"/></g><g class="cls-8"><path class="cls-12" d="M405.12,182.56l-.61-.35a1.94,1.94,0,0,1-.81-1.78l.61.35A1.94,1.94,0,0,0,405.12,182.56Z"/><path class="cls-10" d="M409.85,174.39v3.18a6.09,6.09,0,0,1-2.77,4.79c-1.53.88-2.78.18-2.78-1.59V177.6Z"/><polygon class="cls-15" points="404.31 180.78 403.7 180.43 403.69 177.24 404.3 177.6 404.31 180.78"/><polygon class="cls-16" points="404.3 177.6 403.69 177.24 409.24 174.04 409.85 174.39 404.3 177.6"/></g><g class="cls-8"><path class="cls-17" d="M399.57,185.76l-.61-.35a1.94,1.94,0,0,1-.81-1.78l.61.35A1.94,1.94,0,0,0,399.57,185.76Z"/><path class="cls-14" d="M404.3,177.6v3.18a6.08,6.08,0,0,1-2.76,4.79c-1.53.88-2.78.18-2.78-1.59V180.8Z"/><polygon class="cls-17" points="398.76 183.98 398.15 183.63 398.14 180.44 398.75 180.8 398.76 183.98"/><polygon class="cls-18" points="398.75 180.8 398.14 180.44 403.69 177.24 404.3 177.6 398.75 180.8"/></g><g class="cls-8"><path class="cls-12" d="M394,189l-.61-.35a1.94,1.94,0,0,1-.81-1.78l.61.35A1.94,1.94,0,0,0,394,189Z"/><path class="cls-10" d="M398.76,180.8V184a6.09,6.09,0,0,1-2.77,4.79c-1.53.88-2.78.18-2.78-1.59V184Z"/><polygon class="cls-15" points="393.21 187.19 392.6 186.83 392.59 183.65 393.2 184 393.21 187.19"/><polygon class="cls-16" points="393.2 184 392.59 183.65 398.14 180.44 398.75 180.8 393.2 184"/></g><g class="cls-8"><path class="cls-17" d="M388.48,192.17l-.61-.35a1.94,1.94,0,0,1-.81-1.78l.61.35A1.94,1.94,0,0,0,388.48,192.17Z"/><path class="cls-14" d="M393.2,184v3.18a6.08,6.08,0,0,1-2.76,4.79c-1.53.88-2.78.18-2.78-1.59V187.2Z"/><polygon class="cls-17" points="387.67 190.39 387.06 190.03 387.05 186.85 387.66 187.21 387.67 190.39"/><polygon class="cls-18" points="387.66 187.21 387.05 186.85 392.59 183.65 393.2 184 387.66 187.21"/></g><g class="cls-8"><path class="cls-12" d="M382.92,195.37l-.61-.35a1.94,1.94,0,0,1-.81-1.78l.61.35A1.94,1.94,0,0,0,382.92,195.37Z"/><path class="cls-10" d="M387.66,187.2v3.18a6.09,6.09,0,0,1-2.77,4.79c-1.53.88-2.78.18-2.78-1.59v-3.18Z"/><polygon class="cls-15" points="382.12 193.59 381.5 193.24 381.5 190.06 382.11 190.41 382.12 193.59"/><polygon class="cls-16" points="382.11 190.41 381.5 190.06 387.05 186.85 387.66 187.21 382.11 190.41"/></g><g class="cls-8"><path class="cls-17" d="M377.38,198.58l-.61-.35a1.94,1.94,0,0,1-.81-1.78l.61.35A1.94,1.94,0,0,0,377.38,198.58Z"/><path class="cls-14" d="M382.11,190.41v3.18a6.08,6.08,0,0,1-2.76,4.79c-1.53.88-2.78.18-2.78-1.59v-3.18Z"/><polygon class="cls-17" points="376.57 196.79 375.96 196.44 375.95 193.26 376.56 193.61 376.57 196.79"/><polygon class="cls-18" points="376.56 193.61 375.95 193.26 381.5 190.06 382.11 190.41 376.56 193.61"/></g><g class="cls-8"><path class="cls-12" d="M371.83,201.78l-.61-.35a1.94,1.94,0,0,1-.81-1.78l.61.35A1.94,1.94,0,0,0,371.83,201.78Z"/><path class="cls-10" d="M376.56,193.61v3.18a6.09,6.09,0,0,1-2.77,4.79c-1.53.88-2.78.18-2.78-1.59v-3.18Z"/><polygon class="cls-15" points="371.02 200 370.41 199.65 370.4 196.46 371.01 196.82 371.02 200"/><polygon class="cls-16" points="371.01 196.82 370.4 196.46 375.95 193.26 376.56 193.61 371.01 196.82"/></g><g class="cls-8"><path class="cls-17" d="M366.28,205l-.61-.35a1.94,1.94,0,0,1-.81-1.78l.61.35A1.94,1.94,0,0,0,366.28,205Z"/><path class="cls-14" d="M371,196.82V200a6.08,6.08,0,0,1-2.76,4.79c-1.53.88-2.78.18-2.78-1.59V200Z"/><polygon class="cls-17" points="365.47 203.2 364.86 202.85 364.85 199.66 365.46 200.02 365.47 203.2"/><polygon class="cls-18" points="365.46 200.02 364.85 199.66 370.4 196.46 371.01 196.82 365.46 200.02"/></g><g class="cls-8"><path class="cls-12" d="M360.73,208.19l-.61-.35a1.94,1.94,0,0,1-.81-1.78l.61.35A1.94,1.94,0,0,0,360.73,208.19Z"/><path class="cls-10" d="M365.46,200v3.18a6.09,6.09,0,0,1-2.77,4.79c-1.53.88-2.78.18-2.78-1.59v-3.18Z"/><polygon class="cls-15" points="359.92 206.41 359.31 206.05 359.3 202.87 359.91 203.22 359.92 206.41"/><polygon class="cls-16" points="359.91 203.22 359.3 202.87 364.85 199.66 365.46 200.02 359.91 203.22"/></g><g class="cls-8"><path class="cls-17" d="M355.18,211.39l-.61-.35a1.94,1.94,0,0,1-.81-1.78l.61.35A1.94,1.94,0,0,0,355.18,211.39Z"/><path class="cls-14" d="M359.91,203.22v3.18a6.08,6.08,0,0,1-2.76,4.79c-1.53.88-2.78.18-2.78-1.59v-3.18Z"/><polygon class="cls-17" points="354.38 209.61 353.77 209.25 353.76 206.07 354.37 206.43 354.38 209.61"/><polygon class="cls-18" points="354.37 206.43 353.76 206.07 359.3 202.87 359.91 203.22 354.37 206.43"/></g><g class="cls-8"><path class="cls-12" d="M349.63,214.59l-.61-.35a1.94,1.94,0,0,1-.81-1.78l.61.35A1.94,1.94,0,0,0,349.63,214.59Z"/><path class="cls-10" d="M354.37,206.43v3.18a6.09,6.09,0,0,1-2.77,4.79c-1.53.88-2.78.18-2.78-1.59v-3.18Z"/><polygon class="cls-15" points="348.82 212.81 348.21 212.46 348.2 209.28 348.82 209.63 348.82 212.81"/><polygon class="cls-16" points="348.82 209.63 348.2 209.28 353.76 206.07 354.37 206.43 348.82 209.63"/></g><g class="cls-8"><path class="cls-17" d="M344.09,217.8l-.61-.35a1.94,1.94,0,0,1-.81-1.78l.61.35A1.94,1.94,0,0,0,344.09,217.8Z"/><path class="cls-14" d="M348.82,209.63v3.18a6.08,6.08,0,0,1-2.76,4.79c-1.53.88-2.78.18-2.78-1.59v-3.18Z"/><polygon class="cls-17" points="343.28 216.01 342.67 215.66 342.66 212.48 343.27 212.83 343.28 216.01"/><polygon class="cls-18" points="343.27 212.83 342.66 212.48 348.2 209.28 348.82 209.63 343.27 212.83"/></g><g class="cls-8"><path class="cls-12" d="M338.54,221l-.61-.35a1.94,1.94,0,0,1-.81-1.78l.61.35A1.94,1.94,0,0,0,338.54,221Z"/><path class="cls-10" d="M343.27,212.83V216a6.09,6.09,0,0,1-2.77,4.79c-1.53.88-2.78.18-2.78-1.59V216Z"/><polygon class="cls-15" points="337.73 219.22 337.12 218.87 337.11 215.68 337.72 216.04 337.73 219.22"/><polygon class="cls-16" points="337.72 216.04 337.11 215.68 342.66 212.48 343.27 212.83 337.72 216.04"/></g><g class="cls-8"><path class="cls-14" d="M337.72,216v3.18A6.08,6.08,0,0,1,335,224c-1.53.88-2.78.18-2.78-1.59v-3.18Z"/><polygon class="cls-18" points="332.17 219.24 331.56 218.88 337.11 215.68 337.72 216.04 332.17 219.24"/></g><polygon class="cls-7" points="422.49 165.07 422.49 167.09 330.33 220.29 330.33 218.28 422.49 165.07"/><polygon class="cls-7" points="271.28 183.96 271.28 185.97 330.33 220.29 330.33 218.28 271.28 183.96"/><polygon class="cls-10" points="374.98 241.43 374.98 208.8 376.07 208.16 376.07 240.79 374.98 241.43"/><circle class="cls-15" cx="377.84" cy="226.29" r="0.88"/><circle class="cls-15" cx="373.55" cy="228.6" r="0.88"/><g class="cls-8"><path class="cls-13" d="M366.84,178c.28-.16.39-.08.39.22v1.48a.7.7,0,0,1-.39.67l-2.51,1.45a.61.61,0,0,0-.29.54c0,.22.11.31.29.22l1.61-.68c1-.41,1.69-.3,1.69,1.09v1.3a4.06,4.06,0,0,1-2.23,3.48l-3.41,2c-.27.15-.39.08-.39-.22V188a.7.7,0,0,1,.39-.67l2.91-1.68a.61.61,0,0,0,.27-.52c0-.29-.1-.34-.28-.26l-1.62.68c-1,.41-1.68.3-1.68-1.09v-1.3a4,4,0,0,1,2.23-3.48Z"/></g><g class="cls-8"><path class="cls-13" d="M375.13,173.17c.27-.15.39-.08.39.22l0,8.05a.71.71,0,0,1-.39.67l-1.68,1c-.27.15-.39.08-.39-.22V180.1l-1.8,1v2.76a.71.71,0,0,1-.4.68l-1.67,1c-.27.15-.39.08-.39-.22l0-8.05a.71.71,0,0,1,.39-.67l1.67-1c.28-.16.4-.09.4.22v2.69l1.8-1v-2.69a.71.71,0,0,1,.39-.67Z"/></g><g class="cls-8"><path class="cls-13" d="M380.25,170c2.7-1.56,3.35-.9,3.36.61v4.24c0,1.51-.64,2.91-3.34,4.47s-3.37.92-3.37-.59v-4.24C376.89,173,377.55,171.58,380.25,170Zm.93,5.81v-3.35c0-.32-.12-.5-.91,0s-.91.78-.91,1.09v3.35c0,.34.13.5.91.05s.91-.77.91-1.1"/></g><g class="cls-8"><path class="cls-13" d="M388.67,165.35c2-1.14,2.56-.5,2.56.95v1.59c0,1.44-.58,2.75-2.55,3.89l-1.24.72v2.07a.71.71,0,0,1-.39.67l-1.67,1c-.28.16-.39.09-.39-.22l0-8.05a.7.7,0,0,1,.39-.67Zm.23,3.46v-.65c0-.33-.09-.56-.51-.32l-1,.56v1.87l1-.56a.94.94,0,0,0,.51-.9"/></g><g class="cls-19"><path class="cls-20" d="M462.76,241.68c6.15-76.36-29.9-152.17-109.53-156.09-89.31-4.4-134.85,88.52-126,154.81.51,2.15-10.6,50.38,99,61.61C431.33,312.78,462.45,245.54,462.76,241.68Z"/></g><path class="cls-21" d="M260.53,146.12c-.92-23.55,56.47-55.61,75-53.72,6.74.69-16.07,9-39.65,23.6C280.87,125.24,260.68,149.91,260.53,146.12ZM240.18,252.86c11.65,24.68,49.1,35.28,82.15,34.49s-44.72-17.41-58.15-31.76c-23.14-24.74-19.89-76.27-26.83-62.14C232.89,202.52,234.22,240.24,240.18,252.86Z"/><polygon class="cls-22" points="194.73 99.87 265.42 161.59 165.55 101.8 0 112.39 0 14.95 291.87 0 286.4 82.22 194.73 99.87"/></g></g></svg>