<svg xmlns="http://www.w3.org/2000/svg" viewBox="0 0 467.3 309.68"><defs><style>.cls-1{fill:#765635;opacity:0.75;}.cls-2{opacity:0.59;}.cls-3{fill:#1d1d1b;opacity:0.4;}.cls-4{fill:#8fb8cc;}.cls-5{fill:#a8d1e5;}.cls-6{fill:#82abbf;}.cls-7{fill:#5c8599;}.cls-8{fill:#426b80;}.cls-9{fill:#204f6b;}.cls-10{fill:#759eb2;}</style></defs><title>Asset 51</title><g id="Layer_2" data-name="Layer 2"><g id="Livello_1" data-name="Livello 1"><polygon class="cls-1" points="245.14 125.86 335.41 226.64 216.39 131.2 0 169.23 0 29.8 344.09 0 349.25 118.19 245.14 125.86"/><g class="cls-2"><path class="cls-3" d="M440.63,243.35c-34.47-3.15-37.56,2-46.4,5.83-1.54.66-16.54,21.86-12.15,29.82,6.91,12.53,19.26,31.67,39.51,30.64C443.22,308.55,461.78,256,467.3,251,463.34,247.43,443.22,243.59,440.63,243.35Z"/></g><path class="cls-4" d="M413.15,202.57A10.78,10.78,0,1,1,424.62,198a20.06,20.06,0,0,1,2.2-.13c20.05,0,46.31,43.45,32.14,57.62-12.84,12.84-54.34,11.88-64.19-2.24C386.07,240.79,399.88,211.77,413.15,202.57Z"/><path class="cls-5" d="M420.72,198.83a10.78,10.78,0,0,0-14.86-11.31A10.78,10.78,0,1,1,424.63,198a20,20,0,0,1,2.2-.13c20.05,0,42.77,37.69,33.76,55.6-2.87,5.7-17.94,9.6-17.94,9.6,0-16.18-6.29-54-20.91-62.12l-1.32-.68Z"/><path class="cls-6" d="M399.5,181.5c8.27-18.84,12.43-36.48,12.75-48.61,12.42,8.54,14,32.8,2.77,56.87-10.78,23.17-29.91,37.68-44.26,35.18C379.7,217,390.91,201.09,399.5,181.5Z"/><path class="cls-4" d="M409.54,151.91a96.79,96.79,0,0,0,2.72-19c11.89,8.17,13.8,30.75,4.13,53.77C419.06,171.82,416.61,158.8,409.54,151.91Z"/><ellipse class="cls-7" cx="377.74" cy="171.18" rx="63.3" ry="18.34" transform="translate(69.18 448.27) rotate(-66.3)"/><ellipse class="cls-8" cx="386.13" cy="173.78" rx="37.8" ry="9.18" transform="translate(71.83 457.53) rotate(-66.31)"/><path class="cls-9" d="M330,140a5.47,5.47,0,0,1,3.8,2.57L399,126.86a1.66,1.66,0,0,1,.78,3.23L335,145.75l51.83,18A1.66,1.66,0,0,1,386,167l-.28-.07-49.42-17.21,45.57,40a1.66,1.66,0,0,1-2.19,2.5l-45.2-39.65,30.7,58.25a1.66,1.66,0,1,1-2.94,1.55L329.86,150.9A5.49,5.49,0,1,1,330,140Z"/><path class="cls-10" d="M352.3,229.14c9.28,4.08,28.19-18.57,42.24-50.59,13.3-30.3,17.47-58.12,10-64.45a7.21,7.21,0,0,1,1.13.38c10.75,4.72,8,34.59-6.06,66.71s-34.25,54.34-45,49.62a7.71,7.71,0,0,1-2.43-1.73Z"/></g></g></svg>