<svg xmlns="http://www.w3.org/2000/svg" viewBox="0 0 1140.87 919.96"><defs><style>.cls-1{isolation:isolate;}.cls-2{fill:#cfc4ae;}.cls-3{fill:#579e93;}.cls-4{fill:#518e82;}.cls-5{fill:#605553;}.cls-6{fill:#fff;opacity:0.28;mix-blend-mode:soft-light;}.cls-7{fill:#e0ab4f;}.cls-8{fill:#514947;}</style></defs><title>Asset 28</title><g class="cls-1"><g id="Layer_2" data-name="Layer 2"><g id="Livello_1" data-name="Livello 1"><path class="cls-2" d="M1091.16,854.24c126.28,25.41,3.69,53.52-274,62.76s-605.26-3.88-731.56-29.28-138-51.88,139.62-61.11S964.76,828.83,1091.16,854.24Z"/><rect class="cls-3" x="60.49" width="1019.89" height="883.11" rx="41.55" ry="41.55"/><rect class="cls-4" x="119.63" y="49.08" width="901.61" height="649.51" rx="41.55" ry="41.55"/><path class="cls-5" d="M908.06,659.58c-184.57,31.29-488.6,31.29-673.18,0-31.36-5.32-56.32-28.17-63.3-58.11q-52.66-225.75,0-451.23c7-29.93,31.94-52.79,63.3-58.11,184.57-31.29,488.6-31.29,673.18,0,31.36,5.32,56.32,28.17,63.3,58.11q52.66,225.75,0,451.23C964.37,631.41,939.41,654.26,908.06,659.58Z"/><path class="cls-6" d="M885.06,118.34c-169.25-28.69-457.92-28.69-627.18,0-28.75,4.87-51.64,25.84-58,53.28-26.14,112-31.63,309.24,8.51,421.65,83.57,47,174.88,38.54,302.62,38.54s342.92-.48,426.5-47.51c41.75-119.49,31.77-300.65,5.64-412.68C936.7,144.18,913.81,123.22,885.06,118.34Z"/><circle class="cls-7" cx="509.31" cy="788.54" r="27.57" transform="translate(-408.41 591.1) rotate(-45)"/><rect class="cls-8" x="466.54" y="781.63" width="85.54" height="13.82" transform="translate(1427.03 985.99) rotate(135)"/><circle class="cls-7" cx="410.64" cy="788.54" r="27.57" transform="translate(-437.31 521.33) rotate(-45)"/><rect class="cls-8" x="367.87" y="781.63" width="85.54" height="13.82" transform="translate(677.86 -59.41) rotate(45)"/><rect class="cls-5" x="311.52" y="783.83" width="78.16" height="9.42" rx="0.72" ry="0.72" transform="translate(1139.14 437.94) rotate(90)"/><rect class="cls-5" x="289.22" y="783.83" width="78.16" height="9.42" rx="0.72" ry="0.72" transform="translate(1116.85 460.24) rotate(90)"/><rect class="cls-5" x="266.93" y="783.83" width="78.16" height="9.42" rx="0.72" ry="0.72" transform="translate(1094.55 482.53) rotate(90)"/><rect class="cls-5" x="244.63" y="783.83" width="78.16" height="9.42" rx="0.72" ry="0.72" transform="translate(1072.25 504.83) rotate(90)"/><rect class="cls-5" x="222.33" y="783.83" width="78.16" height="9.42" rx="0.72" ry="0.72" transform="translate(1049.96 527.12) rotate(90)"/><rect class="cls-5" x="200.04" y="783.83" width="78.16" height="9.42" rx="0.72" ry="0.72" transform="translate(1027.66 549.42) rotate(90)"/><circle class="cls-5" cx="206.09" cy="762.83" r="6.58"/><circle class="cls-5" cx="187.33" cy="762.83" r="6.58"/><circle class="cls-5" cx="149.8" cy="762.83" r="6.58"/><circle class="cls-5" cx="206.09" cy="797.11" r="6.58"/><circle class="cls-5" cx="187.33" cy="797.11" r="6.58"/><circle class="cls-5" cx="168.56" cy="797.11" r="6.58"/><circle class="cls-5" cx="149.8" cy="797.11" r="6.58"/><circle class="cls-5" cx="196.71" cy="814.26" r="6.58"/><circle class="cls-5" cx="177.94" cy="814.26" r="6.58"/></g></g></g></svg>