<svg xmlns="http://www.w3.org/2000/svg" viewBox="0 0 270.71 360.68"><defs><style>.cls-1{fill:#55a7dd;}.cls-2{fill:#e6e6e6;}.cls-3,.cls-6{fill:#bcbcbc;}.cls-3{fill-rule:evenodd;}.cls-4{fill:#939393;}.cls-5{fill:#f4a032;}.cls-7{fill:#2a3038;}.cls-8{fill:#b5bcbc;}.cls-9{fill:#f4f4f2;}.cls-10{fill:#78b382;}.cls-11{fill:#de6857;}.cls-12{fill:#84a2aa;}.cls-13{fill:#b3b2ae;}</style></defs><title>Asset 33</title><g id="Layer_2" data-name="Layer 2"><g id="Livello_1" data-name="Livello 1"><path class="cls-1" d="M193.61,243.44c-.46,6.54-6.46,11.45-13.39,11L72.41,246.74c-6.93-.49-12.17-6.2-11.7-12.74l8.47-119.28c.46-6.54,6.46-11.45,13.39-11l107.82,7.65c6.93.49,12.17,6.2,11.7,12.74Z"/><path class="cls-2" d="M99.74,106.75C98.9,109.33,66.63,203.41,76.33,224c13,27.64,61,41.69,90.89,14.57S182.74,115.16,173.62,98,110.21,74.77,99.74,106.75Z"/><path class="cls-3" d="M37.52,53.22c.47,9.27.47,9.27-2,12.34-4.53.06-7.65-1.82-8.87-5.31a44.55,44.55,0,0,1-2.09-9.63c-1.33-11-8.73-14-21.13-8.28-8.31,4,.51,27,6.17,40.2,2.72,0,5.11.49,6.81-.19,9.71,2,14.54.39,22.45-2.16,3.29-8.26,5.62-16.28,3.16-24.71C41.52,53.83,40.5,51.88,37.52,53.22Z"/><path class="cls-2" d="M92.74,134.53S43.8,139,43.18,80.7l-37.09.14S4.47,182.07,91.85,177.38Z"/><path class="cls-4" d="M3.09,86.88c.14,3.38,2.69,6,5.7,5.89l34.39-1.45c3-.13,5.32-3,5.18-6.35h0c-.14-3.38-2.69-6-5.7-5.89L8.27,80.53c-3,.13-5.32,3-5.18,6.35Z"/><polygon class="cls-5" points="68.81 129.19 62.87 126.3 40.64 163.57 47 168.42 68.81 129.19"/><path class="cls-2" d="M65.4,302.42c11.23-1.85,22.46-3.7,33.73-5.31-3.42-9.09-6.46-15.86-6.46-15.86l23-36.73-32.19-13s-30,29.33-23.88,51C61.32,288.61,63.39,295.68,65.4,302.42Z"/><path class="cls-6" d="M62.35,292.09c4.9,16.8,10.78,35.73,10.78,35.73s-26,10.3-22.25,20.46l55.45-5.86c-.6-25.15-2.68-33.88-8.84-49.56A261.87,261.87,0,0,1,62.35,292.09Z"/><polygon class="cls-5" points="78.25 237.18 108.56 258.03 104.11 263.78 68.56 249.97 78.25 237.18"/><rect class="cls-4" x="50.73" y="343.75" width="55.75" height="3.25" transform="translate(-28.71 7.82) rotate(-4.81)"/><path class="cls-2" d="M173,312c-10.74-3.76-21.49-7.52-32.3-11.06,4.94-8.36,9.1-14.5,9.1-14.5l-16.32-40.16,34-7.26s24.44,34.07,14.69,54.41C179.45,299.08,176.19,305.69,173,312Z"/><path class="cls-6" d="M177.83,302.33C170.1,318,161,335.66,161,335.66s23.86,14.64,18.37,24l-53.61-15.36c4.93-24.67,8.49-32.9,17.27-47.29A261.87,261.87,0,0,0,177.83,302.33Z"/><polygon class="cls-5" points="171.67 245.5 138.21 260.8 141.6 267.23 179 259.78 171.67 245.5"/><rect class="cls-4" x="150.98" y="324.13" width="3.25" height="55.75" transform="translate(-226.67 409.83) rotate(-75.23)"/><path class="cls-2" d="M73.75,58.83c6-36.79,41.57-64.36,81-57.88S221,44.76,215,81.55s-37.26,62.62-76.82,56.64C86.17,130.33,67.71,95.62,73.75,58.83Z"/><path class="cls-7" d="M92.62,45.08c7.14-20.87,30-27,57.78-22.4s46.69,9.9,46.94,38.6c.12,14.57,9,61-62.13,48.9C66.51,98.46,87.9,58.87,92.62,45.08Z"/><path class="cls-8" d="M227.91,72.86c.06,8.19,0,14.73-7.84,14.88-11.32.22-8-6.58-8.06-14.76s-2.56-15.41,7.84-14.88C229.5,58.59,227.85,64.68,227.91,72.86Z"/><path class="cls-2" d="M221.27,65.54a2.6,2.6,0,0,1-5.18-.45c.12-1.35.8-2.28,2.23-2.16S221.39,64.2,221.27,65.54Z"/><path class="cls-2" d="M221.5,80.24a2.6,2.6,0,0,1-5.18-.45,2.6,2.6,0,0,1,5.18.45Z"/><path class="cls-8" d="M62.47,63.35C61.58,71.49,61,78,68.76,78.95c11.24,1.37,8.62-5.73,9.51-13.87S82.38,50,72,49.48C62.35,49,63.37,55.21,62.47,63.35Z"/><path class="cls-2" d="M69.82,56.74a2.6,2.6,0,0,0,5.2.08c0-1.35-.57-2.35-2-2.37S69.84,55.39,69.82,56.74Z"/><path class="cls-2" d="M68.1,71.33a2.6,2.6,0,0,0,5.19.08,2.6,2.6,0,0,0-5.19-.08Z"/><ellipse class="cls-2" cx="113.95" cy="43.57" rx="11.18" ry="9.65" transform="translate(-5.82 66.77) rotate(-31.89)"/><path class="cls-3" d="M233,57.24c-1,9.23-1,9.23,1.3,12.43,4.52.32,7.75-1.37,9.17-4.78a44.55,44.55,0,0,0,2.65-9.49c2-10.89,9.53-13.49,21.58-7,8.06,4.45-2.09,26.88-8.51,39.77-2.71-.2-5.13.19-6.79-.59-9.81,1.39-14.54-.46-22.29-3.47-2.8-8.44-4.66-16.58-1.71-24.85C229,57.61,230.14,55.73,233,57.24Z"/><path class="cls-2" d="M173.15,135.18s48.6,7.29,52.62-50.85l37,2.31S258.49,187.8,171.54,178Z"/><path class="cls-4" d="M265.44,92.85c-.34,3.36-3,5.85-6,5.54l-34.25-3.46c-3-.3-5.14-3.27-4.8-6.64h0c.34-3.36,3-5.85,6-5.54l34.25,3.46c3,.3,5.14,3.27,4.8,6.64Z"/><polygon class="cls-5" points="197.36 131.25 203.45 128.71 223.47 167.22 216.84 171.68 197.36 131.25"/><polygon class="cls-9" points="88.74 215.33 96.44 141.25 177.06 145.36 173.75 221.49 88.74 215.33"/><path class="cls-10" d="M111.08,156.67a4.35,4.35,0,0,1-8.65-.75,4,4,0,0,1,4.39-3.76C109.21,152.36,111.28,154.42,111.08,156.67Z"/><path class="cls-11" d="M109.29,177.27a4.35,4.35,0,0,1-8.65-.75,4,4,0,0,1,4.39-3.76C107.41,173,109.48,175,109.29,177.27Z"/><polygon class="cls-12" points="118.1 154.76 153.69 156.2 149.91 185.36 116.97 182.07 118.1 154.76"/><polygon class="cls-13" points="159.37 156.14 171.93 156.54 171.5 161.49 159.14 160.41 159.37 156.14"/><polygon class="cls-13" points="157.28 180.19 169.84 180.59 169.41 185.53 157.04 184.46 157.28 180.19"/><polygon class="cls-13" points="106.69 201.53 155.11 205.05 154.68 210 106.85 205.83 106.69 201.53"/><polygon class="cls-13" points="158.46 168.25 170.48 168.46 170.05 173.41 157.68 172.33 158.46 168.25"/></g></g></svg>