<svg xmlns="http://www.w3.org/2000/svg" viewBox="0 0 139.34 151.79"><defs><style>.cls-1{fill:#8fb8cc;}.cls-2{fill:#a8d1e5;}.cls-3{fill:#82abbf;}.cls-4{fill:#5c8599;}.cls-5{fill:#426b80;}.cls-6{fill:#204f6b;}.cls-7{fill:#759eb2;}</style></defs><title>Asset 32</title><g id="Layer_2" data-name="Layer 2"><g id="Livello_1" data-name="Livello 1"><path class="cls-1" d="M89.5,89.83A10.78,10.78,0,1,1,101,85.28a20.06,20.06,0,0,1,2.2-.13c20.05,0,46.31,43.45,32.14,57.62C122.48,155.6,81,154.64,71.12,140.52,62.42,128,76.23,99,89.5,89.83Z"/><path class="cls-2" d="M97.07,86.08A10.78,10.78,0,0,0,82.21,74.78,10.78,10.78,0,1,1,101,85.27a20,20,0,0,1,2.2-.13c20.05,0,42.77,37.69,33.76,55.6-2.87,5.7-17.94,9.6-17.94,9.6,0-16.18-6.29-54-20.91-62.12l-1.32-.68Z"/><path class="cls-3" d="M75.85,68.76C84.13,49.92,88.28,32.28,88.6,20.15c12.42,8.54,14,32.8,2.77,56.87-10.78,23.17-29.91,37.68-44.26,35.18C56,104.23,67.26,88.35,75.85,68.76Z"/><path class="cls-1" d="M85.89,39.17a96.79,96.79,0,0,0,2.72-19c11.89,8.17,13.8,30.75,4.13,53.77C95.41,59.08,93,46.05,85.89,39.17Z"/><ellipse class="cls-4" cx="54.09" cy="58.43" rx="63.3" ry="18.34" transform="translate(-21.16 84.48) rotate(-66.3)"/><ellipse class="cls-5" cx="62.48" cy="61.04" rx="37.8" ry="9.18" transform="translate(-18.52 93.73) rotate(-66.31)"/><path class="cls-6" d="M6.39,27.3a5.47,5.47,0,0,1,3.8,2.57l65.2-15.75a1.66,1.66,0,0,1,.78,3.23L11.32,33l51.83,18a1.66,1.66,0,0,1-.81,3.21l-.28-.07L12.64,37,58.21,77A1.66,1.66,0,0,1,56,79.46L10.82,39.8l30.7,58.25a1.66,1.66,0,1,1-2.94,1.55L6.21,38.16A5.49,5.49,0,1,1,6.39,27.3Z"/><path class="cls-7" d="M28.65,116.4c9.28,4.08,28.19-18.57,42.24-50.59,13.3-30.3,17.47-58.12,10-64.45A7.21,7.21,0,0,1,82,1.73c10.75,4.72,8,34.59-6.06,66.71s-34.25,54.34-45,49.62a7.71,7.71,0,0,1-2.43-1.73Z"/></g></g></svg>