<svg xmlns="http://www.w3.org/2000/svg" viewBox="0 0 326.72 326.77"><defs><style>.cls-1{fill:#9daeb4;opacity:0.2;}.cls-2{fill:#549c86;}.cls-3{fill:#eddf9d;}.cls-4{fill:#146f81;opacity:0.5;}</style></defs><title>Asset 1</title><g id="Layer_2" data-name="Layer 2"><g id="Livello_1" data-name="Livello 1"><path class="cls-1" d="M326.72,162.15c-7.3,84.12-79.63,156.45-164.36,164.61a155.84,155.84,0,0,1-42.34-5.7A163.27,163.27,0,0,1,0,163.45C.3,122.88,17.32,80.33,48.31,48A149.92,149.92,0,0,1,81,22.31,163.54,163.54,0,0,1,321.06,120,153.37,153.37,0,0,1,326.72,162.15Z"/><path id="path3144" class="cls-2" d="M109.8,298a144.92,144.92,0,0,1-91-143A142.31,142.31,0,0,1,29,109.86,147.14,147.14,0,0,1,52.71,70,144.91,144.91,0,0,1,217.1,28.89h0a144.18,144.18,0,0,1,69.13,57.64,145.66,145.66,0,0,1,17.51,40.74c19.93,76.45-39.64,153-107.62,175.35a107.87,107.87,0,0,1-41.05,5.48A144.74,144.74,0,0,1,109.8,298Z"/><path class="cls-3" d="M171,40.24a16.37,16.37,0,0,0-9.82.78c-4.29,2-7.74,6.19-11.65,9.23-2.67,2.06-4.95,5.88-8.07,6.14-6.38.52-13.61-2.54-20.42-3.77-10.52-1.91-21-5-31.54-5.67-4.9-.33-10.76.22-14.7,2.53-3.07,1.78-5.82,6.3-6.34,9.71-.42,2.94,2.7,6.18,3.48,9.39.51,2.14-.17,4.54.4,6.67.74,2.93,1.64,8.94,3.45,8.49,3.41-.83,8-10.74,12.13-12.32,1.88-.73,3.61,4.87,5.73,5.38,1.85.44,5.26,1.72,7.41,1.84,15.1.78,21,10.78,22.38,11.42,2,.9,9.65,2.32,12.32,7.79,1.83,3.72.24,8.78,6.95,11,2.8.94,7.54-.75,10.35.37,3.25,1.29,1.71,6.33,7.83,6.92,1.87.2,4.46.42,5.72-1.46,2.51-3.71,1.36-7.45,3.58-11.61s10.49-8.49,13.37-12.16a65.61,65.61,0,0,1,8.57-8.32c1.61-1.1.66-4.39,1.3-5.68,1.47-3-1.74-5.1-.42-8.17,1.41-3.28,1.33-6.54,1.37-10.08a19.36,19.36,0,0,0-2.13-8.93c-.8-1.48-2.77-2.42-4.42-3.15-5.44-2.46-11.08-5.18-16.82-6.38ZM98.49,237.63c1.86,3.79,5.59,11.12,7.62,10.32,2.71-1.06,2-13.66,6.58-15.93,9.15-4.61,25.07.8,34.44-4.7,11.6-6.81,21.21-20.42,28.42-32.25,3.44-5.63,4.38-13.91,3.5-20.16-.58-4.08-3.4-8.66-5.85-12.39-3.22-4.91-2.64-12.15-6.33-15.93-1.13-1.17-7.31,1.15-8.84.54-1.77-.7-3.47-2.73-5.22-3.75a16,16,0,0,0-9.33-1.81c-2.78.44-5,4.18-7.68,6-2.42,1.7-6.38,2.5-7.6,4.64-.92,1.63,1.81,4.88,1.16,6.68-.53,1.54-4.2,1.82-4.7,3.4-.71,2.24,2.11,6.1,1.08,8.09s-4.91,4-7.45,4.22c-2.21.16-4.45-3.19-6.86-3.22-4.12,0-8.82,3.79-12.71,3.08-3.55-.66-6.16-5.22-9.59-7.18A19.86,19.86,0,0,0,82,164.94c-1.67-.22-3.45,1.1-5.12.82-4.34-.68-8.59-3.7-12.89-3.69-4.48,0-11.07,1.32-13.45,3.72-1.37,1.38,2.2,5.11,2.22,7.6,0,1.82-2.4,3.6-2.12,5.38A22.34,22.34,0,0,0,55,188.18c2.23,3,5.73,5,8.43,7.68a64.4,64.4,0,0,1,7,7.58c1.61,2.19,1.87,5.53,3.8,7.27,2.67,2.33,6.54,3.87,10,4.94,1.93.59,5.21-1.46,6.2.06,3.75,5.79,4.65,15,8,21.91ZM307.77,157a139.57,139.57,0,0,0-7.2-39.77,143.33,143.33,0,0,0-83.06-88c-1.5-.61-3-1.16-4.54-1.72-4.72,2.27-8.63,4.94-11,8.11-5.5,7.31,2,22.75,4.35,33.83a138.92,138.92,0,0,0,7.85,24.17c1.08,2.61,4.3,4.28,5.09,6.88,1,3.39-1.81,9.18.26,11.12,2.48,2.34,8.9,1.24,13.35,1.7,4.19.46,5,5.66,7.09,5.32,6.06-1,8.22-2,10.15.51.94,1.2,2.11,6.27,2.59,7.87a74.75,74.75,0,0,0,4,9.1c2.84,5.81,3.81,8.77,4.61,13.79a17.53,17.53,0,0,1-.8,8.67c16.32,19.7,29.09-14.34,47.22-1.55Zm-25,77.47c-1.64-13.68,2.61-26.44-5.9-35-29.78-21.27-72.33-21.27-86,17.19-2,2.22-4.49,4.53-7.36,5.18-9.67,2.23-20.23,2-30.26,3.5-2.08.31-5.15.16-6,1.85-2.72,5.17-6.72,13.15-4.77,18.72s7.57,10.85,12.68,16c6.86,1.36,11.11,5.62,11.11,14.13,0,17-12.76,21.27-24.42,26.77-5.55,2.46-13.9-6.68-20.45-6.42a18.11,18.11,0,0,0-7.73,2.5,143.29,143.29,0,0,0,39.5,8.8,108.09,108.09,0,0,0,36.2-3.2c36.45-15.69,70.49-32.71,93.41-70.09Z"/><path class="cls-4" d="M273.44,246.64C238.58,271.8,191.77,280.31,149,263A144.85,144.85,0,0,1,88.31,39.59,144.79,144.79,0,0,0,64,58c-21.19,13.79-29.7,30.81-35,51.83a142.2,142.2,0,0,0-10.22,45.2A145,145,0,0,0,156.52,308.18c15.61.75,28.56-1.71,42.13-6.42a148.63,148.63,0,0,0,39.58-21.41A197.68,197.68,0,0,0,273.44,246.64Z"/></g></g></svg>