<svg xmlns="http://www.w3.org/2000/svg" viewBox="0 0 209.07 213.1"><defs><style>.cls-1{fill:#9daeb4;opacity:0.2;}.cls-2{fill:#d0612d;}.cls-3{fill:#b75524;}</style></defs><title>Asset 3</title><g id="Layer_2" data-name="Layer 2"><g id="Livello_1" data-name="Livello 1"><path class="cls-1" d="M209.07,106.24a105.9,105.9,0,0,1-31.12,75.12c-31.43,35.87-82.49,40.12-120.78,18.85C14.61,174.68-6.66,123.62,1.85,72.56,10.36,42.78,31.63,17.25,61.71,7.88A112.19,112.19,0,0,1,102.83,0,106.24,106.24,0,0,1,209.07,106.24Z"/><path class="cls-2" d="M76.8,193.85C23.12,166.17-10.92,89.58,35.89,38.52,52.91,21.5,74.18,13,100.56,13a93.25,93.25,0,0,1,68.86,158.45c-8.48,8.65-17.36,15.52-27.34,20.4a80.54,80.54,0,0,1-31.63,8.27A75.59,75.59,0,0,1,76.8,193.85Z"/><path class="cls-3" d="M189.54,140.41c.71-1.85,1-3.75,1.59-5.62A97.79,97.79,0,0,1,161.58,161c-27.83,17.93-61.87,13.67-87.4-3.35C44.4,132.13,14.61,89.58,31.63,47c-29.78,25.53-17,63.82-8.51,93.61,21.27,42.55,72.33,76.59,119,51.23,10-4.88,18.86-11.75,27.34-20.4A93,93,0,0,0,189.54,140.41Z"/><path class="cls-3" d="M145.6,120.2a15.26,15.26,0,0,1-8.05-18.62c2.53-7.2,10.39-10.55,17.69-7.68a14.31,14.31,0,0,1,8.07,18.55C160.45,119.76,152.58,123.22,145.6,120.2Z"/><path class="cls-3" d="M61.15,156.85c-21-7.7-16.75-33.23-4-41.74,25.53-12.76,42.55,25.53,20,41.87A19.06,19.06,0,0,1,61.15,156.85Z"/><path class="cls-3" d="M92.77,68.35C85.6,65.16,81.64,57,84.06,50.17s10.32-10,17.53-7,11,11.24,8.45,18.3S99.9,71.58,92.77,68.35Z"/></g></g></svg>