<svg xmlns="http://www.w3.org/2000/svg" viewBox="0 0 1156.96 1114.54"><defs><style>.cls-1{fill:#fff;opacity:0.05;}.cls-2{fill:#cfae74;}.cls-3{fill:#8b672d;opacity:0.4;}.cls-4{fill:#946c3a;}.cls-5{fill:#765635;}.cls-6{fill:#936f34;}</style></defs><title>Asset 5</title><g id="Layer_2" data-name="Layer 2"><g id="Livello_1" data-name="Livello 1"><path class="cls-1" d="M31.25,424.88C131,129.42,453.64-65.83,759.83,20.6s467.46,414.11,367.63,709.59S689.36,1176.81,383,1090.35-68.6,720.38,31.25,424.88Z"/><path class="cls-2" d="M288.6,1012.42C38.38,861.89-48.31,542.11,127.55,298S664.12-12.71,914.34,137.83s290.17,474.26,114.31,718.36S538.81,1163,288.6,1012.42Z"/><path class="cls-2" d="M288.6,1012.42C38.38,861.89-48.31,542.11,127.55,298S664.12-12.71,914.34,137.83s290.17,474.26,114.31,718.36S538.81,1163,288.6,1012.42Z"/><path class="cls-3" d="M288.6,1012.42C38.38,861.89-48.31,542.11,127.55,298S664.12-12.71,914.34,137.83s290.17,474.26,114.31,718.36S538.81,1163,288.6,1012.42Z"/><path class="cls-4" d="M473,959.59c-9-5.44-11.54-16.55-5.59-24.8s18.11-10.55,27.14-5.11,11.54,16.55,5.59,24.81S482.06,965,473,959.59Z"/><path class="cls-2" d="M127,297.07C302.91,53,663.66-13.62,913.93,137s290.27,474.33,114.4,718.43C1129.71,641.67,742.81,26.32,127,297.07Z"/><path class="cls-4" d="M111.36,548.4c-.33-16.34,13-29.83,29.9-30.12S172,531,172.37,547.35s-5.6,31.27-22.44,31.55S111.7,564.74,111.36,548.4Z"/><path class="cls-4" d="M1001.86,667.59c-9-5.44-10.8-17.57-3.93-27.1s19.76-12.85,28.8-7.41,10.79,17.58,3.93,27.1S1010.89,673,1001.86,667.59Z"/><path class="cls-4" d="M832.78,850.5c-13.89-8.36-10.72-35.18,7.1-59.9s43.52-38,57.41-29.63,19.88,25.09,2.07,49.81S846.67,858.85,832.78,850.5Z"/><path class="cls-4" d="M832.78,850.5c13.89,8.36,48.76-15,66.58-39.72s11.83-41.45-2.07-49.81a18.7,18.7,0,0,0-9.79-2.46c10,15.58,4.36,37.39-14.19,50.68-14.44,10.35-32.54,12.53-46.55,7.08C822,831.72,823.71,845,832.78,850.5Z"/><path class="cls-5" d="M870.52,804.7c18.55-13.3,21.3-37.47,17-46.2-14.25,0-33.42,12.39-47.62,32.09a90.26,90.26,0,0,0-13.12,25.67C840.07,821.94,856.08,815,870.52,804.7Z"/><path class="cls-6" d="M922.06,310.15c8.14-10.51,32.35-2.48,54.07,17.94s32.73,45.49,24.59,56-23.56,12.48-45.29-7.94S913.91,320.66,922.06,310.15Z"/><path class="cls-4" d="M957.54,346.18c16.25,15.28,26.5,33.16,27.22,45.59a18.88,18.88,0,0,0,16-7.69c8.14-10.51-2.86-35.58-24.59-56s-45.93-28.45-54.07-17.94c-2.35,3-2.32,8.16-.64,14.35C932,327,945.16,334.54,957.54,346.18Z"/><path class="cls-5" d="M955.44,376.14c11.64,10.94,21.45,15.41,29.32,15.62-.72-12.43-11-30.32-27.22-45.59C945.16,334.54,932,327,921.42,324.5,925.58,339.74,940,361.62,955.44,376.14Z"/><path class="cls-4" d="M218.92,819.2c11.64-.2,19.35-5.67,24.05-13.9-18.89-5.38-37.32-21.22-37.67-38.73a38.6,38.6,0,0,1,10.82-27.48,41.78,41.78,0,0,0-8.74-.8c-22.49.39-40.36,18.4-39.92,40.22S196.43,819.6,218.92,819.2Z"/><path class="cls-5" d="M205.29,766.57c.35,17.5,18.79,33.34,37.67,38.73,4.37-7.66,6.13-17.7,5.92-28.22-.38-18.9-14.41-34.42-32.77-38A38.6,38.6,0,0,0,205.29,766.57Z"/></g></g></svg>