<svg xmlns="http://www.w3.org/2000/svg" viewBox="0 0 199.28 254.97"><defs><style>.cls-1{opacity:0.59;}.cls-2{fill:#1d1d1b;opacity:0.4;}.cls-3{fill:#55a7dd;}.cls-4{fill:#4b91be;}.cls-5{fill:#0b62ac;}</style></defs><title>Asset 42</title><g id="Layer_2" data-name="Layer 2"><g id="Livello_1" data-name="Livello 1"><g class="cls-1"><path class="cls-2" d="M96.56,184.37C22.81,191.17.82,182.24.82,196.11c0,2.63,16.14-1.09,17.6,5.42,2.42,10.79,16.23,20.91,23.24,32.27,11,17.88-4.1,22.38,28.2,20.92,34.52-1.56,106.31-58.46,127.62-61.45C211.18,189.39,143.45,180,96.56,184.37Z"/></g><path class="cls-3" d="M99.51,79.86h0c-12,17.38-19.45,54.5-20.17,87.07,4.76,2.65,15.79,4,20.18,4,4.74,0,14.67-1.39,20.18-4C119,134.36,111.53,97.23,99.51,79.86Z"/><path class="cls-4" d="M107.84,164.43c-5-.38-17.53-2.84-22.75-6.13,2.92-29.53,5-59,14.38-78.4-12,17.39-19.42,54.48-20.15,87,4.76,2.65,15.79,4,20.18,4,4.74,0,14.67-1.39,20.18-4,0-.93-.07-1.88-.1-2.83A73.8,73.8,0,0,1,107.84,164.43Z"/><path class="cls-5" d="M198.82,158.32c-.21-5.81-1.66-12.61-3.65-14.62-2,2-3.44,8.76-3.65,14.59,0,.08,0,.16,0,.24v.28c-2.91-2.71-10.46-7.62-20-12.67C163.94,79.27,136.29,24.39,99.51,0h0c-36.77,24.39-64.42,79.25-72,146.1-9.67,5.12-17.32,10.11-20.16,12.81v-.38c0-.08,0-.16,0-.24-.21-5.83-1.66-12.58-3.65-14.59-2,2-3.44,8.81-3.65,14.62,0,.07,0,.13,0,.2v32.59a3.67,3.67,0,1,0,7.35,0v-.82a157.18,157.18,0,0,1,18.09-9.5v0a170.44,170.44,0,0,1,44.72-12.88C70.77,125,82.75,79.6,99.5,64.65h0c11.75,10.49,21.15,36,25.92,65.06h0q.19,1,.36,2.09a263.14,263.14,0,0,1,2.82,27.9l0,.34q.08,1.7.13,3.39c0,.42,0,.84,0,1.25q0,1.25.06,2.5c0,.25,0,.5,0,.75h0q2.94.43,5.85,1l.2,0q2.86.52,5.67,1.13h.07q5.57,1.21,11,2.76l.87.25q2.4.7,4.76,1.46l.45.14q2.53.83,5,1.73l1.05.39q1.92.71,3.81,1.47l1.37.55q2.2.9,4.37,1.86a157.26,157.26,0,0,1,18.19,9.53v.88a3.67,3.67,0,1,0,7.35,0V158.52C198.84,158.45,198.82,158.39,198.82,158.32Z"/><path class="cls-5" d="M198.82,158.32c-.21-5.81-1.66-12.61-3.65-14.62-2,2-3.44,8.76-3.65,14.59,0,.08,0,.16,0,.24v.28c-2.91-2.71-10.46-7.62-20-12.67C163.94,79.27,136.29,24.39,99.51,0h0c-36.77,24.39-64.42,79.25-72,146.1-9.67,5.12-17.32,10.11-20.16,12.81v-.38c0-.08,0-.16,0-.24-.21-5.83-1.66-12.58-3.65-14.59-2,2-3.44,8.81-3.65,14.62,0,.07,0,.13,0,.2v32.59a3.67,3.67,0,1,0,7.35,0v-.82a157.18,157.18,0,0,1,18.09-9.5v0a170.44,170.44,0,0,1,44.72-12.88C70.77,125,82.75,79.6,99.5,64.65h0c11.75,10.49,21.15,36,25.92,65.06h0q.19,1,.36,2.09a263.14,263.14,0,0,1,2.82,27.9l0,.34q.08,1.7.13,3.39c0,.42,0,.84,0,1.25q0,1.25.06,2.5c0,.25,0,.5,0,.75h0q2.94.43,5.85,1l.2,0q2.86.52,5.67,1.13h.07q5.57,1.21,11,2.76l.87.25q2.4.7,4.76,1.46l.45.14q2.53.83,5,1.73l1.05.39q1.92.71,3.81,1.47l1.37.55q2.2.9,4.37,1.86a157.26,157.26,0,0,1,18.19,9.53v.88a3.67,3.67,0,1,0,7.35,0V158.52C198.84,158.45,198.82,158.39,198.82,158.32Z"/><path class="cls-3" d="M188.21,162.33c-2.28-2.12-9.18-6.76-19-11.94L167,149.2l-.28-2.53C159.63,84,134,30.51,99.51,5.85c-.94.67-1.85,1.45-2.78,2.16,34,25,59.18,78,66.2,140l.28,2.53,2.25,1.19c9.77,5.18,16.67,9.81,19,11.94l5.81,5.41V184c1.26.72,2.56,1.4,3.79,2.15V167.74Z"/><path class="cls-3" d="M95.72,59.56l-3.21,2.87C73.7,79.2,63,125.56,61.67,164.54c1.25-.24,2.5-.52,3.76-.73C66.65,124.7,77.39,77.92,96.3,61l.55-.49Z"/></g></g></svg>