<svg xmlns="http://www.w3.org/2000/svg" viewBox="0 0 1528.78 644.51"><defs><style>.cls-1{fill:#7c939f;}</style></defs><title>Asset 25</title><g id="Layer_2" data-name="Layer 2"><g id="Livello_1" data-name="Livello 1"><path class="cls-1" d="M1454.11,278.87c1.06.51,2.18,1.08,3.35,1.73l-.69,1.16,1.35-.14c.08,1.34.13,2.6.14,3.76.51-1,1.07-2.17,1.72-3.35.39.23.77.45,1.16.69-.05-.47-.09-.9-.14-1.34,1.35-.1,2.59-.14,3.76-.16q-1.58-.74-3.35-1.71c.23-.39.45-.77.69-1.16l-1.35.14c-.09-1.35-.13-2.6-.14-3.76-.5,1.06-1.08,2.17-1.71,3.36l-1.17-.69c.06.45.09.89.13,1.34C1456.54,278.82,1455.28,278.86,1454.11,278.87Z"/><path class="cls-1" d="M618.88,324c1.05.51,2.17,1.08,3.35,1.72-.24.38-.45.76-.69,1.15l1.35-.12c.07,1.32.13,2.58.12,3.76.53-1.06,1.08-2.18,1.73-3.35l1.16.68c0-.46-.1-.89-.13-1.33,1.33-.09,2.59-.13,3.75-.15-1.05-.5-2.18-1.06-3.34-1.71.22-.39.44-.77.68-1.17l-1.34.14c-.1-1.34-.13-2.59-.16-3.77-.49,1.07-1.07,2.18-1.69,3.36l-1.17-.69c.05.46.08.9.14,1.35C621.3,323.95,620,324,618.88,324Z"/><path class="cls-1" d="M1295.77,638c1.06.5,2.17,1.06,3.36,1.71-.24.39-.45.76-.69,1.17l1.34-.15c.09,1.35.14,2.6.16,3.76.49-1,1.06-2.16,1.7-3.35.39.23.76.44,1.16.7,0-.47-.09-.9-.14-1.35,1.35-.09,2.6-.14,3.77-.14-1.05-.5-2.18-1.08-3.36-1.73.23-.37.45-.76.69-1.16-.46.06-.9.09-1.34.14-.09-1.34-.14-2.59-.14-3.76-.51,1.05-1.08,2.17-1.73,3.35-.38-.23-.76-.44-1.16-.69.06.46.09.9.14,1.34C1298.19,638,1296.95,638,1295.77,638Z"/><path class="cls-1" d="M526.35,479.1c1.06.51,2.18,1.08,3.36,1.72-.24.38-.45.77-.69,1.17.44-.06.89-.09,1.35-.14.06,1.33.13,2.59.14,3.77.51-1.06,1.07-2.18,1.71-3.36l1.17.69c0-.46-.11-.91-.14-1.35,1.34-.08,2.59-.14,3.76-.15-1.05-.5-2.17-1.07-3.35-1.71.22-.39.46-.76.7-1.15l-1.36.13c-.09-1.33-.13-2.59-.14-3.76-.5,1.05-1.09,2.17-1.71,3.35-.39-.23-.78-.45-1.16-.68.05.46.08.89.14,1.34C528.78,479.06,527.53,479.1,526.35,479.1Z"/><ellipse class="cls-1" cx="1345.03" cy="295.81" rx="3.2" ry="3.19" transform="translate(767.19 1545.89) rotate(-77.6)"/><path class="cls-1" d="M629.3,402a3.19,3.19,0,1,1,2.43,3.82A3.18,3.18,0,0,1,629.3,402Z"/><path class="cls-1" d="M746.36,165.94a3.21,3.21,0,1,1,2.46,3.81A3.22,3.22,0,0,1,746.36,165.94Z"/><path class="cls-1" d="M1424.47,618.85a3.2,3.2,0,1,1,2.43,3.81A3.19,3.19,0,0,1,1424.47,618.85Z"/><path class="cls-1" d="M544.15,208.65a3.2,3.2,0,1,1,2.45,3.82A3.21,3.21,0,0,1,544.15,208.65Z"/><path class="cls-1" d="M727.27,274.54a2.41,2.41,0,1,1,1.84,2.85A2.41,2.41,0,0,1,727.27,274.54Z"/><path class="cls-1" d="M513.23,356.07a2.39,2.39,0,1,1,1.84,2.85A2.4,2.4,0,0,1,513.23,356.07Z"/><path class="cls-1" d="M943,358.08c1.05.52,2.18,1.08,3.37,1.72-.25.39-.47.77-.7,1.16l1.35-.13c.06,1.32.13,2.58.13,3.76.51-1.07,1.06-2.19,1.72-3.36l1.18.69c-.06-.45-.11-.89-.15-1.34,1.34-.08,2.58-.13,3.76-.15-1.06-.5-2.16-1.06-3.34-1.71.23-.39.44-.76.69-1.16l-1.35.13c-.1-1.34-.13-2.59-.15-3.77-.49,1.06-1.08,2.18-1.69,3.36-.4-.22-.79-.44-1.18-.68,0,.46.08.88.14,1.34C945.42,358,944.16,358.08,943,358.08Z"/><path class="cls-1" d="M953.41,436.11a3.19,3.19,0,1,1,2.44,3.8A3.2,3.2,0,0,1,953.41,436.11Z"/><path class="cls-1" d="M837.35,390.15a2.4,2.4,0,1,1,1.83,2.86A2.39,2.39,0,0,1,837.35,390.15Z"/><path class="cls-1" d="M1154.06,234.85q1.58.74,3.36,1.72c-.24.37-.45.76-.7,1.15l1.36-.13c.06,1.34.12,2.59.12,3.75.5-1.06,1.08-2.16,1.72-3.34l1.15.69c-.06-.46-.09-.91-.12-1.34,1.34-.1,2.61-.14,3.77-.15-1.05-.5-2.18-1.08-3.36-1.72.21-.39.42-.77.67-1.16l-1.33.14c-.08-1.34-.14-2.6-.15-3.77-.49,1.05-1.08,2.18-1.72,3.35-.36-.24-.76-.45-1.15-.69.06.46.09.9.15,1.34C1156.49,234.79,1155.23,234.84,1154.06,234.85Z"/><path class="cls-1" d="M1039.44,627.67c1.06.5,2.18,1.08,3.36,1.72-.23.38-.44.76-.68,1.17.44-.06.89-.1,1.34-.14.07,1.33.13,2.58.14,3.76.51-1.07,1.07-2.18,1.72-3.35l1.17.69c0-.47-.11-.91-.14-1.35,1.34-.08,2.6-.14,3.77-.15-1.05-.5-2.17-1.07-3.36-1.71.22-.39.47-.75.7-1.16l-1.36.13c-.09-1.34-.13-2.59-.15-3.76-.5,1.06-1.08,2.17-1.7,3.35l-1.16-.69c.05.47.08.89.13,1.34C1041.88,627.61,1040.62,627.65,1039.44,627.67Z"/><path class="cls-1" d="M1142.39,550.58a3.19,3.19,0,1,1,2.43,3.8A3.19,3.19,0,0,1,1142.39,550.58Z"/><path class="cls-1" d="M1259.46,314.48a3.2,3.2,0,1,1,2.45,3.82A3.2,3.2,0,0,1,1259.46,314.48Z"/><path class="cls-1" d="M1057.24,357.21a3.2,3.2,0,1,1,2.45,3.82A3.22,3.22,0,0,1,1057.24,357.21Z"/><path class="cls-1" d="M1469.93,402.53a2.4,2.4,0,1,1,1.83,2.85A2.4,2.4,0,0,1,1469.93,402.53Z"/><path class="cls-1" d="M1368.7,193.12a2.4,2.4,0,1,1,1.84,2.86A2.4,2.4,0,0,1,1368.7,193.12Z"/><path class="cls-1" d="M1524,158.64a2.4,2.4,0,1,1,1.83,2.86A2.4,2.4,0,0,1,1524,158.64Z"/><path class="cls-1" d="M567.78,11.07a2.4,2.4,0,1,1,1.84,2.86A2.41,2.41,0,0,1,567.78,11.07Z"/><path class="cls-1" d="M270.09,599.41c1.06.5,2.17,1.06,3.36,1.71l-.68,1.17,1.33-.15c.09,1.35.14,2.6.16,3.76.49-1,1.06-2.17,1.7-3.35l1.17.7c-.05-.47-.09-.89-.14-1.35,1.35-.09,2.6-.14,3.77-.14-1.05-.5-2.17-1.09-3.36-1.73.23-.38.45-.76.69-1.16l-1.35.14c-.08-1.34-.14-2.6-.14-3.76-.5,1.05-1.07,2.17-1.72,3.35-.37-.23-.76-.44-1.15-.69.05.46.08.9.13,1.34C272.52,599.34,271.27,599.39,270.09,599.41Z"/><path class="cls-1" d="M398.79,580.23a3.2,3.2,0,1,1,2.44,3.81A3.2,3.2,0,0,1,398.79,580.23Z"/><path class="cls-1" d="M74.81,315.8c1,.5,2.17,1.07,3.35,1.71-.25.38-.46.77-.7,1.16l1.36-.13c.06,1.33.13,2.58.13,3.76.51-1.06,1.07-2.18,1.72-3.36l1.17.69c-.05-.45-.11-.9-.14-1.34,1.34-.09,2.59-.13,3.75-.15-1-.51-2.16-1.07-3.34-1.71.21-.4.45-.76.69-1.16l-1.35.13c-.1-1.33-.13-2.59-.15-3.77-.5,1.07-1.08,2.18-1.7,3.36l-1.18-.68c.05.46.08.88.15,1.34C77.23,315.74,76,315.78,74.81,315.8Z"/><path class="cls-1" d="M96.9,78.08c1.05.51,2.18,1.08,3.36,1.72-.24.38-.45.77-.69,1.16l1.34-.13c.07,1.34.13,2.59.13,3.76.5-1.06,1.08-2.17,1.72-3.35l1.15.68c-.05-.45-.09-.89-.12-1.33,1.34-.09,2.6-.13,3.77-.15-1.06-.5-2.18-1.07-3.36-1.71.21-.39.42-.77.66-1.17-.45.06-.87.09-1.32.14-.09-1.34-.15-2.6-.16-3.76-.49,1-1.07,2.17-1.72,3.35-.36-.22-.76-.44-1.14-.69,0,.46.08.9.14,1.35C99.33,78,98.06,78.08,96.9,78.08Z"/><path class="cls-1" d="M116.72,512a3.19,3.19,0,1,1,2.43,3.8A3.19,3.19,0,0,1,116.72,512Z"/><path class="cls-1" d="M.08,200.46a3.2,3.2,0,1,1,2.44,3.81A3.22,3.22,0,0,1,.08,200.46Z"/><path class="cls-1" d="M.66,466a2.39,2.39,0,1,1,1.83,2.87A2.39,2.39,0,0,1,.66,466Z"/><path class="cls-1" d="M412.77,245.76a2.4,2.4,0,1,1,1.83,2.86A2.39,2.39,0,0,1,412.77,245.76Z"/><path class="cls-1" d="M311.53,36.37a2.4,2.4,0,1,1,1.84,2.86A2.39,2.39,0,0,1,311.53,36.37Z"/><path class="cls-1" d="M466.87,1.89a2.4,2.4,0,1,1,1.83,2.85A2.4,2.4,0,0,1,466.87,1.89Z"/></g></g></svg>