<svg xmlns="http://www.w3.org/2000/svg" viewBox="0 0 255.44 251.23"><defs><style>.cls-1{fill:#9daeb4;opacity:0.2;}.cls-2,.cls-3{fill:#ffe26c;}.cls-2{opacity:0.5;}.cls-4{fill:#e3c95f;}</style></defs><title>Asset 3</title><g id="Layer_2" data-name="Layer 2"><g id="Livello_1" data-name="Livello 1"><path class="cls-1" d="M233.73,56c45.43,62.34,13.93,138-42.78,175.76a106.28,106.28,0,0,1-50.27,18.76,123.47,123.47,0,0,1-27.08,0C64.94,238,14.53,212.84,1.93,156.13-10.67,80.52,39.73,4.91,117.31.54a135.63,135.63,0,0,1,27.37.31,122.43,122.43,0,0,1,89,55.13Z"/><path class="cls-2" d="M219.15,65.09c34.26,44.36,13.72,95.51-19.61,129.56a159.74,159.74,0,0,1-21.19,18.19c-56.71,37.8-138.62,12.6-151.22-56.71C14.53,74.22,71.24-14,161.4,22a105.08,105.08,0,0,1,39.33,22A114.14,114.14,0,0,1,219.15,65.09Z"/><path class="cls-3" d="M209.38,71c19.14,30,13,65.45-5.88,94.21a133,133,0,0,1-16.27,20.14C153.15,219.14,90.14,238,58.64,187.63c-25.2-44.11-18.9-107.11,12.6-144.92,18.9-18.9,56.71-12.6,79.31-11.83a102.29,102.29,0,0,1,22.36,8.17A93.2,93.2,0,0,1,193,52.69,108.08,108.08,0,0,1,209.38,71Z"/><path class="cls-4" d="M92.56,163.5C83.84,118.32,71.24,61.62,102.74,30.11,46,42.71,39.73,112,46,162.43c6.3,37.8,37.8,56.71,69.31,56.71,25.2-6.3,63-6.3,69.31-37.8-25.2,18.9-56.71,12.6-83.05-2.41A75.18,75.18,0,0,1,92.56,163.5Z"/></g></g></svg>