<svg xmlns="http://www.w3.org/2000/svg" viewBox="0 0 416.91 582.62"><defs><style>.cls-1{fill:#990a2c;}.cls-2{fill:#e6e6e6;}.cls-3,.cls-6{fill:#bcbcbc;}.cls-3{fill-rule:evenodd;}.cls-4{fill:#939393;}.cls-5{fill:#0069b4;}.cls-7{fill:#f4f4f2;}.cls-8{fill:#78b382;}.cls-9{fill:#de6857;}.cls-10{fill:#84a2aa;}.cls-11{fill:#b3b2ae;}.cls-12{fill:#2a3038;}.cls-13{fill:#6b6556;opacity:0.31;}</style></defs><title>Asset 27</title><g id="Layer_2" data-name="Layer 2"><g id="Livello_1" data-name="Livello 1"><path class="cls-1" d="M234.31,408.78a6.69,6.69,0,0,1-6.77,6.6l-59,.94a6.69,6.69,0,0,1-7-6.38l-1-65.32a6.69,6.69,0,0,1,6.77-6.6l59-.94a6.69,6.69,0,0,1,7,6.38Z"/><path class="cls-2" d="M176.75,338.85c-.34,1.44-13.44,54.18-7.18,64.91,8.41,14.42,35.16,19.8,50.15,3.62s2.59-67.88-3.18-76.78S180.93,320.95,176.75,338.85Z"/><path class="cls-3" d="M164,421.06c-.89-5-.89-5-2.59-6.32-2.42.52-3.85,1.91-4.07,3.92a24.34,24.34,0,0,0,.07,5.38c.64,6-2.93,8.53-10.23,7-4.91-1.1-3-14.41-1.65-22.15,1.45-.31,2.66-.89,3.65-.73,4.93-2.23,7.69-2,12.22-1.6,2.76,4,5,8,4.72,12.77C166,420.24,165.72,421.4,164,421.06Z"/><path class="cls-2" d="M183.39,371s-26.6,3.65-19.77,34.74l-19.76,4.48s-13.29-53.69,33.8-61.91Z"/><path class="cls-4" d="M141.52,407.37a3.17,3.17,0,0,1,2.31-3.83l18.48-3.45a3.17,3.17,0,0,1,3.54,2.74h0a3.17,3.17,0,0,1-2.31,3.83l-18.48,3.45a3.17,3.17,0,0,1-3.54-2.74Z"/><polygon class="cls-5" points="171.31 376.78 168.5 379.05 152.09 361.94 154.88 358.58 171.31 376.78"/><path class="cls-2" d="M167.34,447c6-1.54,12-3.08,18.1-4.49-2.29-4.78-4.27-8.32-4.27-8.32L192,413.07l-18.14-5.56s-14.92,17.38-10.58,28.91C164.46,439.64,165.92,443.39,167.34,447Z"/><path class="cls-6" d="M165.19,441.48c3.46,8.91,7.56,18.94,7.56,18.94s-13.68,6.84-11.14,12.19l29.9-5.82c-1.52-13.66-3.06-18.31-7.16-26.55A143.05,143.05,0,0,1,165.19,441.48Z"/><polygon class="cls-5" points="171.24 410.85 188.72 420.76 186.57 424.1 166.57 418.27 171.24 410.85"/><rect class="cls-4" x="161.33" y="468.82" width="30.45" height="1.78" transform="translate(-77.31 36.87) rotate(-9.79)"/><path class="cls-2" d="M226.37,447.06c-6-1.54-12-3.08-18.1-4.49,2.29-4.78,4.27-8.32,4.27-8.32l-10.79-21.08,18.14-5.56S234.8,425,230.46,436.52C229.25,439.74,227.78,443.49,226.37,447.06Z"/><path class="cls-6" d="M228.52,441.58c-3.46,8.91-7.56,18.94-7.56,18.94s13.68,6.84,11.14,12.19l-29.9-5.82c1.52-13.66,3.06-18.31,7.16-26.55A143.05,143.05,0,0,0,228.52,441.58Z"/><polygon class="cls-5" points="222.47 410.95 204.99 420.86 207.14 424.2 227.14 418.37 222.47 410.95"/><rect class="cls-4" x="216.26" y="454.58" width="1.78" height="30.45" transform="translate(-282.75 603.89) rotate(-80.21)"/><polygon class="cls-7" points="175.91 398.46 176.59 357.78 220.66 356.2 222.47 397.78 175.91 398.46"/><path class="cls-8" d="M185.29,365.47a2.38,2.38,0,0,1-4.74,0,2.19,2.19,0,0,1,2.21-2.26A2.48,2.48,0,0,1,185.29,365.47Z"/><path class="cls-9" d="M185.29,376.77a2.38,2.38,0,0,1-4.74,0,2.19,2.19,0,0,1,2.21-2.26A2.48,2.48,0,0,1,185.29,376.77Z"/><polygon class="cls-10" points="189.02 364.11 208.45 363.2 207.78 379.25 189.7 379.02 189.02 364.11"/><polygon class="cls-11" points="211.54 362.9 218.4 362.52 218.4 365.24 211.62 365.24 211.54 362.9"/><polygon class="cls-11" points="211.54 376.09 218.4 375.71 218.4 378.42 211.62 378.42 211.54 376.09"/><polygon class="cls-11" points="185.02 390.1 211.54 389.72 211.54 392.43 185.32 392.43 185.02 390.1"/><polygon class="cls-11" points="211.62 369.53 218.17 369.08 218.17 371.79 211.39 371.79 211.62 369.53"/><path class="cls-2" d="M34,123.83C62.23,34.09,160.87-22,257.16,8.29s149.7,133.17,121.42,222.92-115.53,143.08-212.2,114C39.35,306.89,5.68,213.57,34,123.83Z"/><path class="cls-12" d="M86,96.26C111.36,46.7,170.61,39.65,238.4,61s113.09,41.48,103.41,113.24c-4.91,36.45.56,155.64-172.72,99.88C1.68,220.25,69.31,129,86,96.26Z"/><path class="cls-5" d="M414,214.16c-2.78,20.47-5.33,36.79-24.91,34.36-28.36-3.51-17.61-19.3-14.83-39.77s-.87-39.41,24.91-34.36C423.12,179.06,416.82,193.68,414,214.16Z"/><path class="cls-2" d="M400.08,193.49a6.57,6.57,0,0,1-12.77-3c.77-3.32,2.83-5.41,6.35-4.59S400.86,190.17,400.08,193.49Z"/><path class="cls-2" d="M395.38,230.28a6.57,6.57,0,0,1-12.77-3,6.56,6.56,0,0,1,12.77,3Z"/><path class="cls-5" d="M4.18,131.08c-5.15,20-8.94,36.08,10.1,41.22,27.59,7.45,23.59-11.23,28.74-31.24S58.7,104.9,32.92,99.84C9,95.15,9.33,111.07,4.18,131.08Z"/><path class="cls-2" d="M24.9,117.2a6.37,6.37,0,0,0,5.51,7.12,6.37,6.37,0,0,0,7.44-5.07c.53-3.37-.57-6.08-4.15-6.65S25.44,113.83,24.9,117.2Z"/><path class="cls-2" d="M15.38,153a6.37,6.37,0,0,0,5.51,7.12,6.37,6.37,0,0,0,7.44-5.07A6.56,6.56,0,0,0,15.38,153Z"/><ellipse class="cls-2" cx="139.85" cy="100.14" rx="28.22" ry="24.36" transform="translate(-28.47 64.73) rotate(-23.72)"/><path class="cls-3" d="M251.36,306.22c-.11,5.07-.11,5.07,1.3,6.7,2.48,0,4.15-1.11,4.76-3a24.34,24.34,0,0,0,1-5.29c.55-6,4.55-7.79,11.41-4.85,4.6,2,.14,14.73-2.75,22-1.48,0-2.78.35-3.72,0-5.27,1.22-7.94.44-12.29-.83-1.92-4.46-3.32-8.8-2.11-13.44C249.19,306.62,249.72,305.54,251.36,306.22Z"/><path class="cls-2" d="M222.47,351.48s26.79,1.66,26.23-30.16l20.25-.5s2.45,55.25-45.33,54Z"/><path class="cls-4" d="M270.68,324.07a3.17,3.17,0,0,1-3,3.3l-18.8-.26a3.17,3.17,0,0,1-2.93-3.38h0a3.17,3.17,0,0,1,3-3.3l18.8.26a3.17,3.17,0,0,1,2.93,3.38Z"/><polygon class="cls-5" points="235.45 348.19 238.65 346.52 251.37 366.53 247.97 369.27 235.45 348.19"/><path class="cls-13" d="M189.34,491.88c-14.53-.78-.89-16.07-3.2-20.7-3.05-6.13-19.59-1.76-24.52-.51-1.51.38-16.2,12.64-11.9,17.24,6.77,7.25-16.26,95.29,3.57,94.7,21.19-.63,71.63-109.07,77-112-1.72-.91-21.21-3.66-29.52,1.17C190.36,477.87,190.75,492,189.34,491.88Z"/></g></g></svg>