<svg xmlns="http://www.w3.org/2000/svg" viewBox="0 0 419.15 585.67"><defs><style>.cls-1{fill:#6b6556;opacity:0.31;}.cls-2{fill:#e2e20e;}.cls-3{fill:#e6e6e6;}.cls-4,.cls-7{fill:#bcbcbc;}.cls-4{fill-rule:evenodd;}.cls-5{fill:#939393;}.cls-6{fill:#00a553;}.cls-8{fill:#f4f4f2;}.cls-9{fill:#78b382;}.cls-10{fill:#de6857;}.cls-11{fill:#84a2aa;}.cls-12{fill:#b3b2ae;}.cls-13{fill:#2a3038;}</style></defs><title>Asset 28</title><g id="Layer_2" data-name="Layer 2"><g id="Livello_1" data-name="Livello 1"><path class="cls-1" d="M209,494.93c-14.53-.78-.89-16.07-3.2-20.7-3.05-6.13-19.59-1.76-24.52-.51-1.51.38-16.2,12.64-11.9,17.24,6.77,7.25-16.26,95.29,3.57,94.7,21.19-.63,71.63-109.07,77-112-1.72-.91-21.21-3.66-29.52,1.17C210.07,480.92,210.46,495,209,494.93Z"/><path class="cls-2" d="M245.94,413.26a6.69,6.69,0,0,1-6.77,6.6l-59,.94a6.69,6.69,0,0,1-7-6.38l-1-65.32a6.69,6.69,0,0,1,6.77-6.6l59-.94a6.69,6.69,0,0,1,7,6.38Z"/><path class="cls-3" d="M188.38,343.32c-.34,1.44-13.44,54.18-7.18,64.91,8.41,14.42,35.16,19.8,50.15,3.62s2.59-67.88-3.18-76.78S192.56,325.42,188.38,343.32Z"/><path class="cls-4" d="M175.61,425.53c-.89-5-.89-5-2.59-6.32-2.42.52-3.85,1.91-4.07,3.92a24.34,24.34,0,0,0,.07,5.38c.64,6-2.93,8.53-10.23,7-4.91-1.1-3-14.41-1.65-22.15,1.45-.31,2.66-.89,3.65-.73,4.93-2.23,7.69-2,12.22-1.6,2.76,4,5,8,4.72,12.77C177.66,424.72,177.35,425.88,175.61,425.53Z"/><path class="cls-3" d="M195,375.47s-26.6,3.65-19.77,34.74l-19.76,4.48S142.2,361,189.28,352.78Z"/><path class="cls-5" d="M153.15,411.84a3.17,3.17,0,0,1,2.31-3.83l18.48-3.45a3.17,3.17,0,0,1,3.54,2.74h0a3.17,3.17,0,0,1-2.31,3.83l-18.48,3.45a3.17,3.17,0,0,1-3.54-2.74Z"/><polygon class="cls-6" points="182.94 381.25 180.13 383.52 163.72 366.41 166.51 363.05 182.94 381.25"/><path class="cls-3" d="M179,451.43c6-1.54,12-3.08,18.1-4.49-2.29-4.78-4.27-8.32-4.27-8.32l10.79-21.08L185.45,412s-14.92,17.38-10.58,28.91C176.09,444.11,177.55,447.87,179,451.43Z"/><path class="cls-7" d="M176.82,446c3.46,8.91,7.56,18.94,7.56,18.94s-13.68,6.84-11.14,12.19l29.9-5.82c-1.52-13.66-3.06-18.31-7.16-26.55A143.05,143.05,0,0,1,176.82,446Z"/><polygon class="cls-6" points="182.87 415.32 200.35 425.23 198.2 428.57 178.2 422.75 182.87 415.32"/><rect class="cls-5" x="172.96" y="473.3" width="30.45" height="1.78" transform="translate(-77.9 38.91) rotate(-9.79)"/><path class="cls-3" d="M238,451.54c-6-1.54-12-3.08-18.1-4.49,2.29-4.78,4.27-8.32,4.27-8.32l-10.79-21.08,18.14-5.56s14.92,17.38,10.58,28.91C240.88,444.21,239.41,448,238,451.54Z"/><path class="cls-7" d="M240.15,446.06C236.69,455,232.59,465,232.59,465s13.68,6.84,11.14,12.19l-29.9-5.82c1.52-13.66,3.06-18.31,7.16-26.55A143.05,143.05,0,0,0,240.15,446.06Z"/><polygon class="cls-6" points="234.1 415.42 216.62 425.34 218.77 428.67 238.77 422.85 234.1 415.42"/><rect class="cls-5" x="227.89" y="459.06" width="1.78" height="30.45" transform="translate(-277.51 619.07) rotate(-80.21)"/><polygon class="cls-8" points="187.54 402.94 188.22 362.25 232.29 360.67 234.1 402.26 187.54 402.94"/><path class="cls-9" d="M196.92,369.95a2.38,2.38,0,0,1-4.74,0,2.19,2.19,0,0,1,2.21-2.26A2.48,2.48,0,0,1,196.92,369.95Z"/><path class="cls-10" d="M196.92,381.25a2.38,2.38,0,0,1-4.74,0,2.19,2.19,0,0,1,2.21-2.26A2.48,2.48,0,0,1,196.92,381.25Z"/><polygon class="cls-11" points="200.65 368.58 220.08 367.68 219.41 383.73 201.33 383.5 200.65 368.58"/><polygon class="cls-12" points="223.17 367.38 230.03 367 230.03 369.71 223.25 369.71 223.17 367.38"/><polygon class="cls-12" points="223.17 380.56 230.03 380.18 230.03 382.9 223.25 382.9 223.17 380.56"/><polygon class="cls-12" points="196.66 394.57 223.17 394.2 223.17 396.91 196.95 396.91 196.66 394.57"/><polygon class="cls-12" points="223.25 374.01 229.8 373.55 229.8 376.27 223.02 376.27 223.25 374.01"/><path class="cls-3" d="M27.46,163.79C34.59,70,117.89-7.12,218.55.52S394.61,96.17,387.48,190s-80,165.6-180.73,159.22C74.35,340.83,20.33,257.61,27.46,163.79Z"/><path class="cls-13" d="M71.91,125.1c13.39-54,69.48-74.36,140.35-69S331.82,70.8,338.72,142.88c3.5,36.61,35.94,151.44-145.48,136.54C18,265,63.07,160.8,71.91,125.1Z"/><path class="cls-6" d="M418.13,165.32c1.94,20.57,3.18,37-16.44,39.13-28.42,3-21.54-14.79-23.49-35.35s-9.81-38.18,16.44-39.13C419,129.08,416.18,144.75,418.13,165.32Z"/><path class="cls-3" d="M399.84,148.37a6.57,6.57,0,0,1-13.11,0c0-3.41,1.52-5.91,5.14-5.91S399.84,145,399.84,148.37Z"/><path class="cls-3" d="M403.63,185.26a6.57,6.57,0,0,1-13.11,0,6.56,6.56,0,0,1,13.11,0Z"/><path class="cls-6" d="M.12,177.62c-.46,20.66-.51,37.17,19.21,37.85,28.56,1,20.42-16.3,20.88-37s7-38.78-19.21-37.85C-3.35,141.54.58,157,.12,177.62Z"/><path class="cls-3" d="M17.14,159.39a6.37,6.37,0,0,0,7,5.68,6.37,6.37,0,0,0,6.1-6.63c-.25-3.4-1.94-5.79-5.56-5.53S16.89,156,17.14,159.39Z"/><path class="cls-3" d="M16,196.46a6.37,6.37,0,0,0,7,5.68,6.37,6.37,0,0,0,6.1-6.63,6.56,6.56,0,0,0-13.08.94Z"/><ellipse class="cls-3" cx="125.19" cy="116.64" rx="28.22" ry="24.36" transform="translate(-44.94 98.44) rotate(-36.87)"/><path class="cls-4" d="M263,310.7c-.11,5.07-.11,5.07,1.3,6.7,2.48,0,4.15-1.11,4.76-3a24.34,24.34,0,0,0,1-5.29c.55-6,4.55-7.79,11.41-4.85,4.6,2,.14,14.73-2.75,22-1.48,0-2.78.35-3.72,0-5.27,1.22-7.94.44-12.29-.83-1.92-4.46-3.32-8.8-2.11-13.44C260.82,311.09,261.35,310,263,310.7Z"/><path class="cls-3" d="M234.1,356s26.79,1.66,26.23-30.16l20.25-.5s2.45,55.25-45.33,54Z"/><path class="cls-5" d="M282.31,328.55a3.17,3.17,0,0,1-3,3.3l-18.8-.26a3.17,3.17,0,0,1-2.93-3.38h0a3.17,3.17,0,0,1,3-3.3l18.8.26a3.17,3.17,0,0,1,2.93,3.38Z"/><polygon class="cls-6" points="247.08 352.67 250.28 351 263 371 259.6 373.75 247.08 352.67"/></g></g></svg>