<svg xmlns="http://www.w3.org/2000/svg" viewBox="0 0 1995.39 1130.7"><defs><style>.cls-1{fill:#fff8e3;}.cls-2{fill:#cfc4ae;}.cls-3{fill:#bdb29c;}</style></defs><title>Asset 24</title><g id="Layer_2" data-name="Layer 2"><g id="Livello_1" data-name="Livello 1"><path class="cls-1" d="M1145,14.94c530.7,68.19,944.37,383.3,831.82,690.95S1279.74,1184,749.05,1115.78-89.46,732.16,23.1,424.5,614.3-53.24,1145,14.94Z"/><path class="cls-2" d="M265.84,330.1c37.35,4.8,55.92,40.71,41.47,80.22S250.85,478,213.5,473.16s-65.85-23.78-51.39-63.28S228.48,325.3,265.84,330.1Z"/><path class="cls-2" d="M1112.89,432c19.6,25.41.57,53.52-42.53,62.76s-93.93-3.88-113.53-29.28-21.42-51.88,21.67-61.11S1093.27,406.6,1112.89,432Z"/><path class="cls-2" d="M687.67,152.55c19.16,2.46,31.62,12.9,27.82,23.3S693,192.71,673.87,190.25s-31.62-12.9-27.81-23.31S668.49,150.09,687.67,152.55Z"/><path class="cls-2" d="M265.84,330.1c-37.36-4.8-89.28,40.27-103.73,79.78s14,58.49,51.39,63.28a70.7,70.7,0,0,0,23.09-1c-36-15.76-44.53-46.3-17.73-71.38,20.86-19.54,57.21-30.12,92.06-29.12C306.5,349.64,290.21,333.23,265.84,330.1Z"/><path class="cls-3" d="M229,405.3c-26.79,25.1-9.82,57.43,7.6,66.81,30.2-6.15,59.2-30.32,70.71-61.8,5-13.74,6-27,3.62-38.71C277.32,370,249.86,385.78,229,405.3Z"/><path class="cls-2" d="M1547.46,346c-27.58,5.91-40.17,17.57-42.65,31.77,50.79-1.32,111.61,12.73,131,37.93,11.77,15.27,12.07,31.28,3.35,45.07a163.71,163.71,0,0,0,21.71-3.06c53.25-11.44,76.79-46.19,52.58-77.6S1600.71,334.58,1547.46,346Z"/><path class="cls-3" d="M1635.84,415.74c-19.42-25.2-80.24-39.26-131-37.93-2.3,13.22,4.18,28.63,15.84,43.78,21,27.22,70.94,42.93,118.54,39.22C1647.92,447,1647.61,431,1635.84,415.74Z"/></g></g></svg>