<svg xmlns="http://www.w3.org/2000/svg" viewBox="0 0 402.24 563.7"><defs><style>.cls-1{fill:#55a7dd;}.cls-2{fill:#e6e6e6;}.cls-12,.cls-3{fill:#bcbcbc;}.cls-4{fill:#f79f3e;}.cls-5{fill:#939393;}.cls-6{fill:#f4f4f2;}.cls-7{fill:#78b382;}.cls-8{fill:#de6857;}.cls-9{fill:#84a2aa;}.cls-10{fill:#b3b2ae;}.cls-11{fill:#2a3038;}.cls-12{fill-rule:evenodd;}.cls-13{fill:#6b6556;opacity:0.31;}</style></defs><title>Asset 26</title><g id="Layer_2" data-name="Layer 2"><g id="Livello_1" data-name="Livello 1"><path class="cls-1" d="M236,393.41a6.42,6.42,0,0,1-6.49,6.33l-56.66.91a6.42,6.42,0,0,1-6.69-6.12l-1-62.68a6.42,6.42,0,0,1,6.49-6.33l56.66-.91a6.42,6.42,0,0,1,6.69,6.12Z"/><path class="cls-2" d="M180.78,326.29c-.32,1.39-12.9,52-6.89,62.29,8.07,13.84,33.75,19,48.13,3.48s2.49-65.15-3.05-73.68S184.8,309.12,180.78,326.29Z"/><path class="cls-2" d="M171.75,430c5.78-1.47,11.56-3,17.37-4.31-2.2-4.59-4.1-8-4.1-8l10.35-20.23L178,392.18s-14.31,16.68-10.15,27.75C169,423,170.39,426.62,171.75,430Z"/><path class="cls-3" d="M169.69,424.79c3.32,8.55,7.25,18.17,7.25,18.17s-13.13,6.56-10.69,11.7l28.7-5.58c-1.46-13.11-2.94-17.57-6.87-25.48A137.28,137.28,0,0,1,169.69,424.79Z"/><polygon class="cls-4" points="175.49 395.39 192.27 404.9 190.21 408.11 171.01 402.51 175.49 395.39"/><rect class="cls-5" x="165.99" y="451.03" width="29.23" height="1.7" transform="translate(-74.22 37.3) rotate(-9.79)"/><path class="cls-2" d="M228.4,430.14c-5.78-1.47-11.56-3-17.37-4.31,2.2-4.59,4.1-8,4.1-8l-10.35-20.23,17.41-5.34S236.49,409,232.33,420C231.16,423.12,229.76,426.72,228.4,430.14Z"/><path class="cls-3" d="M230.46,424.89c-3.32,8.55-7.25,18.17-7.25,18.17s13.13,6.56,10.69,11.7l-28.7-5.58c1.46-13.11,2.94-17.57,6.87-25.48A137.28,137.28,0,0,0,230.46,424.89Z"/><polygon class="cls-4" points="224.66 395.49 207.88 405 209.94 408.2 229.14 402.61 224.66 395.49"/><rect class="cls-5" x="218.7" y="437.36" width="1.7" height="29.23" transform="translate(-263.18 591.46) rotate(-80.21)"/><polygon class="cls-6" points="179.97 383.5 180.63 344.46 222.92 342.94 224.65 382.85 179.97 383.5"/><path class="cls-7" d="M189,351.85a2.28,2.28,0,0,1-4.55,0,2.1,2.1,0,0,1,2.12-2.17A2.38,2.38,0,0,1,189,351.85Z"/><path class="cls-8" d="M189,362.69a2.28,2.28,0,0,1-4.55,0,2.1,2.1,0,0,1,2.12-2.17A2.38,2.38,0,0,1,189,362.69Z"/><polygon class="cls-9" points="192.55 350.54 211.21 349.67 210.56 365.07 193.21 364.85 192.55 350.54"/><polygon class="cls-10" points="214.17 349.38 220.75 349.02 220.75 351.62 214.24 351.62 214.17 349.38"/><polygon class="cls-10" points="214.17 362.03 220.75 361.67 220.75 364.27 214.24 364.27 214.17 362.03"/><polygon class="cls-10" points="188.72 375.48 214.17 375.12 214.17 377.72 189 377.72 188.72 375.48"/><polygon class="cls-10" points="214.24 355.74 220.53 355.31 220.53 357.91 214.03 357.91 214.24 355.74"/><path class="cls-2" d="M26.36,157.19C33.2,67.15,113.13-6.84,209.74.5s169,91.79,162.12,181.82-76.74,158.92-173.44,152.8C71.35,327.08,19.51,247.22,26.36,157.19Z"/><path class="cls-11" d="M69,120.05C81.86,68.21,135.69,48.69,203.7,53.86s114.73,14.08,121.35,83.26c3.36,35.13,34.49,145.33-139.61,131C17.23,254.33,60.52,154.31,69,120.05Z"/><path class="cls-4" d="M401.26,158.65c1.87,19.74,3,35.54-15.78,37.55-27.27,2.91-20.67-14.19-22.54-33.93s-9.41-36.64,15.78-37.55C402.09,123.88,399.39,138.91,401.26,158.65Z"/><path class="cls-2" d="M383.71,142.38a6.3,6.3,0,0,1-12.58,0c0-3.27,1.46-5.68,4.94-5.68S383.71,139.11,383.71,142.38Z"/><path class="cls-2" d="M387.35,177.79a6.3,6.3,0,0,1-12.58,0,6.29,6.29,0,0,1,12.58,0Z"/><path class="cls-4" d="M.11,170.45c-.44,19.82-.49,35.67,18.44,36.32,27.41.94,19.6-15.64,20-35.46S45.34,134.09,20.15,135C-3.22,135.83.55,150.63.11,170.45Z"/><path class="cls-2" d="M16.45,153a6.12,6.12,0,0,0,6.7,5.45A6.12,6.12,0,0,0,29,152.06c-.24-3.26-1.86-5.56-5.33-5.3S16.21,149.7,16.45,153Z"/><path class="cls-2" d="M15.37,188.54a6.11,6.11,0,0,0,6.7,5.45,6.11,6.11,0,0,0,5.85-6.36,6.29,6.29,0,0,0-12.55.9Z"/><ellipse class="cls-2" cx="120.14" cy="111.93" rx="27.08" ry="23.38" transform="matrix(0.8, -0.6, 0.6, 0.8, -43.13, 94.47)"/><path class="cls-12" d="M252.38,295c-.11,4.86-.11,4.86,1.24,6.43,2.38,0,4-1.07,4.57-2.92a23.35,23.35,0,0,0,1-5.08c.53-5.78,4.37-7.48,11-4.65,4.41,2,.13,14.13-2.64,21.16-1.42,0-2.67.33-3.57,0-5.06,1.17-7.62.42-11.8-.8-1.84-4.28-3.19-8.45-2-12.9C250.3,295.37,250.8,294.33,252.38,295Z"/><path class="cls-2" d="M224.65,338.42s25.71,1.6,25.17-28.95l19.44-.48s2.35,53-43.5,51.86Z"/><path class="cls-5" d="M270.93,312.11a3,3,0,0,1-2.9,3.17L250,315a3,3,0,0,1-2.81-3.25h0a3,3,0,0,1,2.9-3.17l18,.25a3,3,0,0,1,2.81,3.25Z"/><polygon class="cls-4" points="237.12 335.26 240.18 333.66 252.39 352.86 249.13 355.49 237.12 335.26"/><path class="cls-12" d="M162.23,298.75c-.85,4.79-.85,4.79-2.49,6.06-2.32-.5-3.69-1.83-3.91-3.76a23.35,23.35,0,0,1,.07-5.17c.62-5.77-2.81-8.19-9.82-6.72-4.71,1.05-2.91,13.83-1.58,21.26,1.39.3,2.55.85,3.5.7,4.73,2.14,7.38,1.91,11.72,1.54,2.65-3.83,4.79-7.65,4.53-12.25C164.2,299.53,163.91,298.41,162.23,298.75Z"/><path class="cls-2" d="M180.86,346.79s-25.52-3.5-19-33.34l-19-4.3s-12.75,51.52,32.43,59.42Z"/><path class="cls-5" d="M140.68,311.88a3,3,0,0,0,2.22,3.68l17.74,3.31a3,3,0,0,0,3.39-2.63h0a3,3,0,0,0-2.22-3.68l-17.74-3.31a3,3,0,0,0-3.39,2.63Z"/><polygon class="cls-4" points="169.27 341.24 166.57 339.06 150.83 355.48 153.5 358.71 169.27 341.24"/><path class="cls-13" d="M196.59,473c-14.53-.78-.89-16.07-3.2-20.7-3.05-6.13-19.59-1.76-24.52-.51-1.51.38-16.2,12.64-11.9,17.24,6.77,7.25-16.26,95.29,3.57,94.7,21.19-.63,71.63-109.07,77-112-1.72-.91-21.21-3.66-29.52,1.17C197.62,459,198,473,196.59,473Z"/></g></g></svg>