<?xml version="1.0" standalone="no"?>
<!DOCTYPE svg PUBLIC "-//W3C//DTD SVG 20010904//EN"
 "http://www.w3.org/TR/2001/REC-SVG-20010904/DTD/svg10.dtd">
<svg version="1.0" xmlns="http://www.w3.org/2000/svg"
 width="300.000000pt" height="300.000000pt" viewBox="0 0 300.000000 300.000000"
 preserveAspectRatio="xMidYMid meet">
<metadata>
Created by potrace 1.11, written by Peter Selinger 2001-2013
</metadata>
<g transform="translate(0.000000,300.000000) scale(0.100000,-0.100000)"
fill="#000000" stroke="none">
<path d="M1443 2824 c-350 -262 -620 -795 -715 -1412 l-22 -144 -46 -26 c-25
-14 -71 -43 -102 -64 -31 -21 -61 -38 -66 -38 -5 0 -12 21 -15 48 -3 26 -11
61 -17 77 l-12 30 -16 -30 c-14 -25 -18 -69 -20 -269 -3 -191 -1 -241 10 -247
25 -16 47 -9 60 19 10 20 44 43 138 90 140 70 283 119 440 152 l106 23 12 161
c31 403 141 774 273 918 l39 43 39 -43 c137 -150 257 -563 278 -958 l6 -122
91 -17 c220 -42 565 -186 594 -247 13 -28 35 -35 60 -19 11 6 13 56 10 247 -2
200 -6 244 -20 269 l-16 30 -12 -30 c-6 -16 -14 -51 -17 -77 -6 -46 -23 -63
-38 -38 -3 6 -48 35 -99 65 l-92 54 -13 96 c-80 615 -355 1176 -709 1448 l-60
47 -49 -36z"/>
<path d="M1442 1893 c-89 -195 -148 -475 -165 -790 -3 -61 -2 -63 25 -72 15
-6 64 -15 108 -22 82 -13 197 -3 270 23 l31 10 -6 87 c-17 232 -59 473 -111
631 -29 88 -91 220 -103 220 -4 0 -26 -39 -49 -87z"/>
<path d="M1233 890 c-46 -21 -83 -40 -83 -42 0 -2 37 -2 83 0 l82 4 -85 -87
-85 -87 103 51 c56 28 102 47 102 41 0 -5 -11 -39 -25 -76 -14 -36 -25 -68
-25 -70 0 -2 25 14 57 36 31 22 58 39 59 37 2 -1 17 -108 34 -237 17 -129 34
-242 37 -250 4 -8 22 99 42 238 l36 252 53 -36 c30 -19 56 -34 58 -32 2 3 -7
33 -21 68 -14 35 -25 67 -25 72 0 4 46 -15 103 -43 l102 -51 -85 87 -85 87 81
-4 c81 -3 82 -3 55 14 -47 32 -147 67 -171 61 l-23 -6 24 -18 24 -19 -38 0
-38 0 21 -31 c26 -36 22 -43 -14 -29 -51 19 -53 17 -71 -110 -10 -66 -21 -120
-25 -120 -3 0 -13 52 -22 116 -9 63 -19 118 -22 121 -3 4 -23 1 -43 -5 -20 -6
-39 -10 -41 -7 -2 2 6 18 18 34 l21 31 -38 0 -38 0 24 19 24 18 -24 6 c-32 9
-24 11 -116 -33z"/>
</g>
</svg>
